source-code-pro_light.sfdir

StartChar: exclam
Encoding: 33 33 486
Width: 600
Flags: MW
HStem: -12 21G<285 315> -12 126<285 315> 650 20G<279 321 321 321>
VStem: 242 116<31 71.5> 279 42<599 670 599 670>
LayerCount: 2
Fore
SplineSet
284 219 m 1xa8
 279 599 l 1
 279 670 l 1
 321 670 l 1
 321 599 l 1
 316 219 l 1
 284 219 l 1xa8
242 51 m 0xb0
 242 92 270 114 300 114 c 0x70
 330 114 358 92 358 51 c 0
 358 11 330 -12 300 -12 c 0
 270 -12 242 11 242 51 c 0xb0
EndSplineSet
EndChar

StartChar: quotedbl
Encoding: 34 34 491
Width: 600
Flags: MW
HStem: 381 307<178 178 178 214 386 422 386 386>
VStem: 158 76<599 688 599 688> 366 76<599 688 599 688>
LayerCount: 2
Fore
SplineSet
178 381 m 1
 158 599 l 1
 158 688 l 1
 234 688 l 1
 234 599 l 1
 214 381 l 1
 178 381 l 1
386 381 m 1
 366 599 l 1
 366 688 l 1
 442 688 l 1
 442 599 l 1
 422 381 l 1
 386 381 l 1
EndSplineSet
EndChar

StartChar: numbersign
Encoding: 35 35 533
Width: 600
Flags: MW
HStem: 0 21G<154 154 154 189 338 338 338 373> 214 36<96 179 96 184 96 214 219 364 404 489> 420 36<116 205 116 208 116 240 243 390 428 509> 630 20G<234 268 268 268 418 453 453 453>
VStem: 96 413<214 456 250 456>
LayerCount: 2
Fore
SplineSet
154 0 m 1
 179 214 l 1
 96 214 l 1
 96 250 l 1
 184 250 l 1
 205 420 l 1
 116 420 l 1
 116 456 l 1
 208 456 l 1
 234 650 l 1
 268 650 l 1
 243 456 l 1
 393 456 l 1
 418 650 l 1
 453 650 l 1
 428 456 l 1
 509 456 l 1
 509 420 l 1
 425 420 l 1
 404 250 l 1
 489 250 l 1
 489 214 l 1
 399 214 l 1
 373 0 l 1
 338 0 l 1
 364 214 l 1
 214 214 l 1
 189 0 l 1
 154 0 l 1
219 250 m 1
 369 250 l 1
 390 420 l 1
 240 420 l 1
 219 250 l 1
EndSplineSet
EndChar

StartChar: dollar
Encoding: 36 36 630
Width: 600
Flags: MW
HStem: 35 38<288 288 327 327> 579 38<288 288 288 342>
VStem: 127 45<408.5 506.5 408.5 515> 288 39<-110 35 -110 35 618 749> 459 46<151.5 257.5>
LayerCount: 2
Fore
SplineSet
484 546 m 1
 458 518 l 1
 413 556 379 579 305 579 c 0
 225 579 172 538 172 475 c 0
 172 342 505 371 505 187 c 0
 505 98 427 41 327 35 c 1
 327 -110 l 1
 288 -110 l 1
 288 35 l 1
 208 40 140 76 97 112 c 1
 121 144 l 1
 164 109 228 73 311 73 c 0
 407 73 459 119 459 184 c 0
 459 331 127 305 127 473 c 0
 127 557 195 610 288 617 c 1
 288 749 l 1
 327 749 l 1
 327 618 l 1
 402 613 445 583 484 546 c 1
EndSplineSet
Substitution2: "'ss04' Style Set 4 in Latin lookup 20 subtable" dollar.a
Substitution2: "'aalt' Access All Alternates in Latin lookup 0 subtable" dollar.a
EndChar

StartChar: percent
Encoding: 37 37 649
Width: 600
Flags: MW
HStem: -12 32<411.5 465 411.5 477.5> 281 32<411.5 465> 326 32<135 188.5 135 201> 619 32<135 188.5>
VStem: 27 39<448.5 534 448.5 543> 257 39<448.5 534> 304 39<110.5 196 110.5 205> 534 39<110.5 196>
LayerCount: 2
Fore
SplineSet
162 326 m 0
 83 326 27 386 27 491 c 0
 27 595 83 651 162 651 c 0
 240 651 296 595 296 491 c 0
 296 386 240 326 162 326 c 0
162 358 m 0
 215 358 257 406 257 491 c 0
 257 577 215 619 162 619 c 0
 108 619 66 577 66 491 c 0
 66 406 108 358 162 358 c 0
68 35 m 1
 35 63 l 1
 216 260 l 1
 238 240 l 1
 68 35 l 1
533 624 m 1
 565 596 l 1
 384 399 l 1
 362 419 l 1
 533 624 l 1
438 -12 m 0xc3
 360 -12 304 48 304 153 c 0
 304 257 360 313 438 313 c 0
 517 313 573 257 573 153 c 0
 573 48 517 -12 438 -12 c 0xc3
438 20 m 0
 492 20 534 68 534 153 c 0
 534 239 492 281 438 281 c 0
 385 281 343 239 343 153 c 0
 343 68 385 20 438 20 c 0
EndSplineSet
EndChar

StartChar: ampersand
Encoding: 38 38 460
Width: 600
Flags: MW
HStem: -12 38<206 273 206 278.5> 635 36<245 300.5>
VStem: 53 45<126.5 202.5 126.5 210> 141 41<504 556 504 566.5> 345 41<515 570.5>
LayerCount: 2
Fore
SplineSet
246 26 m 0
 300 26 349 55 389 97 c 1
 319 161 250 244 203 328 c 1
 146 283 98 235 98 170 c 0
 98 83 166 26 246 26 c 0
182 526 m 0
 182 482 196 434 219 385 c 1
 285 434 345 481 345 549 c 0
 345 592 327 635 274 635 c 0
 216 635 182 586 182 526 c 0
571 27 m 1
 556 -12 l 1
 515 3 468 30 419 71 c 1
 371 22 315 -12 242 -12 c 0
 137 -12 53 58 53 167 c 0
 53 253 117 309 186 361 c 1
 158 417 141 473 141 524 c 0
 141 609 196 671 275 671 c 0
 347 671 386 620 386 551 c 0
 386 466 309 410 235 353 c 1
 281 270 349 188 416 128 c 1
 463 188 495 261 518 345 c 1
 561 345 l 1
 535 255 497 170 446 103 c 1
 491 66 534 41 571 27 c 1
EndSplineSet
EndChar

StartChar: quotesingle
Encoding: 39 39 490
Width: 600
Flags: MW
HStem: 381 307<282 282 282 318>
VStem: 262 76<599 688 599 688>
LayerCount: 2
Fore
SplineSet
282 381 m 1
 262 599 l 1
 262 688 l 1
 338 688 l 1
 338 599 l 1
 318 381 l 1
 282 381 l 1
EndSplineSet
EndChar

StartChar: parenleft
Encoding: 40 40 511
Width: 600
Flags: MW
HStem: -174 904<456 456>
VStem: 224 45<191 365 191 376>
LayerCount: 2
Fore
SplineSet
456 -174 m 1
 312 -70 224 82 224 278 c 0
 224 474 312 626 456 730 c 1
 481 702 l 1
 337 591 269 452 269 278 c 0
 269 104 337 -35 481 -146 c 1
 456 -174 l 1
EndSplineSet
Substitution2: "'subs' Subscript in Latin lookup 14 subtable" parenleft.subs
Substitution2: "'sups' Superscript in Latin lookup 13 subtable" parenleft.sups
Substitution2: "'dnom' Denominators in Latin lookup 9 subtable" parenleft.dnom
Substitution2: "'numr' Numerators in Latin lookup 8 subtable" parenleft.numr
AlternateSubs2: "'aalt' Access All Alternates in Latin lookup 1 subtable" parenleft.numr parenleft.dnom parenleft.sups parenleft.subs
EndChar

StartChar: parenright
Encoding: 41 41 512
Width: 600
Flags: MW
HStem: -174 904<144 144>
VStem: 331 45<191 365>
LayerCount: 2
Fore
SplineSet
144 -174 m 1
 119 -146 l 1
 263 -35 331 104 331 278 c 0
 331 452 263 591 119 702 c 1
 144 730 l 1
 288 626 376 474 376 278 c 0
 376 82 288 -70 144 -174 c 1
EndSplineSet
Substitution2: "'subs' Subscript in Latin lookup 14 subtable" parenright.subs
Substitution2: "'sups' Superscript in Latin lookup 13 subtable" parenright.sups
Substitution2: "'dnom' Denominators in Latin lookup 9 subtable" parenright.dnom
Substitution2: "'numr' Numerators in Latin lookup 8 subtable" parenright.numr
AlternateSubs2: "'aalt' Access All Alternates in Latin lookup 1 subtable" parenright.numr parenright.dnom parenright.sups parenright.subs
EndChar

StartChar: asterisk
Encoding: 42 42 521
Width: 600
Flags: MW
HStem: 123 427<177 316 284 423>
VStem: 281 38
LayerCount: 2
Fore
SplineSet
177 123 m 1
 148 144 l 1
 264 315 l 1
 96 386 l 1
 107 416 l 1
 278 355 l 1
 284 550 l 1
 316 550 l 1
 322 355 l 1
 493 416 l 1
 504 386 l 1
 336 315 l 1
 452 144 l 1
 423 123 l 1
 300 292 l 1
 177 123 l 1
EndSplineSet
Substitution2: "'ss01' Style Set 1 in Latin lookup 17 subtable" asterisk.a
Substitution2: "'aalt' Access All Alternates in Latin lookup 0 subtable" asterisk.a
EndChar

StartChar: plus
Encoding: 43 43 660
Width: 600
Flags: MW
HStem: 311 38<95 279 95 279 321 505>
VStem: 279 42<110 311 110 311 349 550>
LayerCount: 2
Fore
SplineSet
279 110 m 1
 279 311 l 1
 95 311 l 1
 95 349 l 1
 279 349 l 1
 279 550 l 1
 321 550 l 1
 321 349 l 1
 505 349 l 1
 505 311 l 1
 321 311 l 1
 321 110 l 1
 279 110 l 1
EndSplineSet
EndChar

StartChar: comma
Encoding: 44 44 482
Width: 600
Flags: MW
HStem: 0 119<290.5 309.5>
VStem: 329 47
LayerCount: 2
Fore
SplineSet
221 -211 m 1
 205 -178 l 1
 285 -139 326 -85 329 3 c 1
 321 1 313 0 306 0 c 0
 271 0 246 19 246 59 c 0
 246 100 275 119 306 119 c 0
 352 119 376 79 376 17 c 0
 376 -94 314 -171 221 -211 c 1
EndSplineSet
Substitution2: "'subs' Subscript in Latin lookup 14 subtable" comma.subs
Substitution2: "'sups' Superscript in Latin lookup 13 subtable" comma.sups
Substitution2: "'dnom' Denominators in Latin lookup 9 subtable" comma.dnom
Substitution2: "'numr' Numerators in Latin lookup 8 subtable" comma.numr
AlternateSubs2: "'aalt' Access All Alternates in Latin lookup 1 subtable" comma.numr comma.dnom comma.sups comma.subs
EndChar

StartChar: hyphen
Encoding: 45 45 502
Width: 600
Flags: MW
HStem: 311 38<95 505 95 505>
VStem: 95 410<311 349 311 349>
LayerCount: 2
Fore
SplineSet
95 311 m 1
 95 349 l 1
 505 349 l 1
 505 311 l 1
 95 311 l 1
EndSplineSet
Substitution2: "'ss01' Style Set 1 in Latin lookup 17 subtable" hyphen.a
Substitution2: "'aalt' Access All Alternates in Latin lookup 0 subtable" hyphen.a
EndChar

StartChar: period
Encoding: 46 46 481
Width: 600
Flags: MW
HStem: -12 130<284.5 315.5>
VStem: 240 120<32.5 74>
LayerCount: 2
Fore
SplineSet
240 53 m 0
 240 95 269 118 300 118 c 0
 331 118 360 95 360 53 c 0
 360 12 331 -12 300 -12 c 0
 269 -12 240 12 240 53 c 0
EndSplineSet
Substitution2: "'subs' Subscript in Latin lookup 14 subtable" period.subs
Substitution2: "'sups' Superscript in Latin lookup 13 subtable" period.sups
Substitution2: "'dnom' Denominators in Latin lookup 9 subtable" period.dnom
Substitution2: "'numr' Numerators in Latin lookup 8 subtable" period.numr
AlternateSubs2: "'aalt' Access All Alternates in Latin lookup 1 subtable" period.numr period.dnom period.sups period.subs
EndChar

StartChar: slash
Encoding: 47 47 517
Width: 600
Flags: MW
HStem: -160 870<114 486 114 486>
VStem: 114 372
LayerCount: 2
Fore
SplineSet
486 710 m 1
 159 -160 l 1
 114 -160 l 1
 441 710 l 1
 486 710 l 1
EndSplineSet
Substitution2: "'frac' Diagonal Fractions in Latin lookup 10 subtable" slash.frac
EndChar

StartChar: zero
Encoding: 48 48 461
Width: 600
Flags: MW
HStem: -12 38<248 352 248 369.5> 271 120<286 314> 613 38<248 352>
VStem: 81 44<225 419 225 428> 245 110<311.5 350.5> 475 44<225 419>
LayerCount: 2
Fore
SplineSet
300 -12 m 0
 161 -12 81 111 81 322 c 0
 81 534 161 651 300 651 c 0
 439 651 519 534 519 322 c 0
 519 111 439 -12 300 -12 c 0
300 613 m 0
 196 613 125 516 125 322 c 0
 125 128 196 26 300 26 c 0
 404 26 475 128 475 322 c 0
 475 516 404 613 300 613 c 0
300 271 m 0
 272 271 245 292 245 331 c 0
 245 370 272 391 300 391 c 0
 328 391 355 370 355 331 c 0
 355 292 328 271 300 271 c 0
EndSplineSet
Substitution2: "'onum' Oldstyle Figures in Latin lookup 15 subtable" zero.onum
Substitution2: "'subs' Subscript in Latin lookup 14 subtable" zero.subs
Substitution2: "'sups' Superscript in Latin lookup 13 subtable" zero.sups
Substitution2: "'dnom' Denominators in Latin lookup 9 subtable" zero.dnom
Substitution2: "'numr' Numerators in Latin lookup 8 subtable" zero.numr
AlternateSubs2: "'aalt' Access All Alternates in Latin lookup 1 subtable" zero.numr zero.dnom zero.sups zero.subs zero.onum
EndChar

StartChar: one
Encoding: 49 49 462
Width: 600
Flags: MW
HStem: 0 39<108 299 343 522 108 299> 569 30<160 299 160 160> 569 70<160 343>
VStem: 299 44<39 569 569 569>
LayerCount: 2
Fore
SplineSet
343 39 m 1xb0
 522 39 l 1
 522 0 l 1
 108 0 l 1
 108 39 l 1
 299 39 l 1
 299 569 l 1
 160 569 l 1xb0
 160 599 l 1xd0
 224 608 273 622 310 639 c 1
 343 639 l 1
 343 39 l 1xb0
EndSplineSet
Substitution2: "'onum' Oldstyle Figures in Latin lookup 15 subtable" one.onum
Substitution2: "'subs' Subscript in Latin lookup 14 subtable" one.subs
Substitution2: "'sups' Superscript in Latin lookup 13 subtable" one.sups
Substitution2: "'dnom' Denominators in Latin lookup 9 subtable" one.dnom
Substitution2: "'numr' Numerators in Latin lookup 8 subtable" one.numr
AlternateSubs2: "'aalt' Access All Alternates in Latin lookup 1 subtable" one.numr one.dnom one.sups one.subs one.onum
EndChar

StartChar: two
Encoding: 50 50 463
Width: 600
Flags: MW
HStem: 0 40<269 514 269 514> 613 38<243 331>
VStem: 434 44<413.5 511>
LayerCount: 2
Fore
SplineSet
82 0 m 1
 82 28 l 1
 318 241 434 356 434 471 c 0
 434 551 386 613 276 613 c 0
 210 613 152 577 108 529 c 1
 79 557 l 1
 132 610 194 651 280 651 c 0
 405 651 478 580 478 472 c 0
 478 345 352 223 149 35 c 1
 189 37 229 40 269 40 c 2
 514 40 l 1
 514 0 l 1
 82 0 l 1
EndSplineSet
Substitution2: "'onum' Oldstyle Figures in Latin lookup 15 subtable" two.onum
Substitution2: "'subs' Subscript in Latin lookup 14 subtable" two.subs
Substitution2: "'sups' Superscript in Latin lookup 13 subtable" two.sups
Substitution2: "'dnom' Denominators in Latin lookup 9 subtable" two.dnom
Substitution2: "'numr' Numerators in Latin lookup 8 subtable" two.numr
AlternateSubs2: "'aalt' Access All Alternates in Latin lookup 1 subtable" two.numr two.dnom two.sups two.subs two.onum
EndChar

StartChar: three
Encoding: 51 51 464
Width: 600
Flags: MW
HStem: -12 39<244 341 244 353> 316 39<210 293.5 210 299> 613 38<256 334>
VStem: 210 132<335 339 335 355 335 355> 441 46<455.5 530> 465 46<125.5 212>
LayerCount: 2
Fore
SplineSet
67 78 m 1xf4
 92 109 l 1
 134 67 196 27 292 27 c 0
 390 27 465 83 465 168 c 0xf4
 465 256 388 316 210 316 c 1
 210 355 l 1
 377 355 441 417 441 494 c 0
 441 566 379 613 289 613 c 0
 223 613 160 582 120 543 c 1
 93 573 l 1
 141 616 208 651 290 651 c 0
 400 651 487 595 487 497 c 0xf8
 487 413 424 363 342 339 c 1
 342 335 l 1
 431 318 511 259 511 169 c 0
 511 58 414 -12 292 -12 c 0
 181 -12 111 35 67 78 c 1xf4
EndSplineSet
Substitution2: "'onum' Oldstyle Figures in Latin lookup 15 subtable" three.onum
Substitution2: "'subs' Subscript in Latin lookup 14 subtable" three.subs
Substitution2: "'sups' Superscript in Latin lookup 13 subtable" three.sups
Substitution2: "'dnom' Denominators in Latin lookup 9 subtable" three.dnom
Substitution2: "'numr' Numerators in Latin lookup 8 subtable" three.numr
AlternateSubs2: "'aalt' Access All Alternates in Latin lookup 1 subtable" three.numr three.dnom three.sups three.subs three.onum
EndChar

StartChar: four
Encoding: 52 52 465
Width: 600
Flags: MW
HStem: 0 21G<384 427 384 384> 191 39<102 384 102 384 427 538> 578 62<383 427 383 427> 620 20G<392 427 427 427>
VStem: 384 43<0 191 0 191 230 481 481 481>
LayerCount: 2
Fore
SplineSet
102 230 m 1xd8
 384 230 l 1
 384 481 l 1
 386 512 387 546 389 578 c 1
 383 578 l 1
 363 550 342 521 321 493 c 1xe8
 102 230 l 1xd8
538 230 m 1
 538 191 l 1
 427 191 l 1
 427 0 l 1
 384 0 l 1
 384 191 l 1
 42 191 l 1
 42 218 l 1
 392 640 l 1
 427 640 l 1
 427 230 l 1
 538 230 l 1
EndSplineSet
Substitution2: "'onum' Oldstyle Figures in Latin lookup 15 subtable" four.onum
Substitution2: "'subs' Subscript in Latin lookup 14 subtable" four.subs
Substitution2: "'sups' Superscript in Latin lookup 13 subtable" four.sups
Substitution2: "'dnom' Denominators in Latin lookup 9 subtable" four.dnom
Substitution2: "'numr' Numerators in Latin lookup 8 subtable" four.numr
AlternateSubs2: "'aalt' Access All Alternates in Latin lookup 1 subtable" four.numr four.dnom four.sups four.subs four.onum
EndChar

StartChar: five
Encoding: 53 53 466
Width: 600
Flags: MW
HStem: -12 39<236 336.5 236 345.5> 364 39<267 345> 600 39<179 483 179 179>
VStem: 470 46<147.5 250.5>
LayerCount: 2
Fore
SplineSet
62 74 m 1
 87 105 l 1
 131 66 185 27 287 27 c 0
 386 27 470 96 470 199 c 0
 470 302 401 364 289 364 c 0
 230 364 193 347 146 321 c 1
 115 340 l 1
 139 639 l 1
 483 639 l 1
 483 600 l 1
 179 600 l 1
 158 369 l 1
 199 389 238 403 296 403 c 0
 421 403 516 341 516 201 c 0
 516 65 404 -12 287 -12 c 0
 171 -12 109 33 62 74 c 1
EndSplineSet
Substitution2: "'onum' Oldstyle Figures in Latin lookup 15 subtable" five.onum
Substitution2: "'subs' Subscript in Latin lookup 14 subtable" five.subs
Substitution2: "'sups' Superscript in Latin lookup 13 subtable" five.sups
Substitution2: "'dnom' Denominators in Latin lookup 9 subtable" five.dnom
Substitution2: "'numr' Numerators in Latin lookup 8 subtable" five.numr
AlternateSubs2: "'aalt' Access All Alternates in Latin lookup 1 subtable" five.numr five.dnom five.sups five.subs five.onum
EndChar

StartChar: six
Encoding: 54 54 467
Width: 600
Flags: MW
HStem: -12 38<264 370 264 377.5> 348 38<293.5 374.5> 612 39<292 376>
VStem: 86 45 482 45<142.5 238.5>
LayerCount: 2
Fore
SplineSet
325 26 m 0
 415 26 482 97 482 188 c 0
 482 289 428 348 321 348 c 0
 266 348 196 322 132 251 c 1
 142 116 203 26 325 26 c 0
513 589 m 1
 486 559 l 1
 450 594 402 612 350 612 c 0
 234 612 133 531 131 296 c 1
 186 351 253 386 327 386 c 0
 449 386 527 317 527 188 c 0
 527 72 432 -12 323 -12 c 0
 179 -12 86 96 86 290 c 0
 86 558 212 651 350 651 c 0
 421 651 472 626 513 589 c 1
EndSplineSet
Substitution2: "'onum' Oldstyle Figures in Latin lookup 15 subtable" six.onum
Substitution2: "'subs' Subscript in Latin lookup 14 subtable" six.subs
Substitution2: "'sups' Superscript in Latin lookup 13 subtable" six.sups
Substitution2: "'dnom' Denominators in Latin lookup 9 subtable" six.dnom
Substitution2: "'numr' Numerators in Latin lookup 8 subtable" six.numr
AlternateSubs2: "'aalt' Access All Alternates in Latin lookup 1 subtable" six.numr six.dnom six.sups six.subs six.onum
EndChar

StartChar: seven
Encoding: 55 55 468
Width: 600
Flags: MW
HStem: 0 21G<245 245 245 294> 600 39<74 471 74 528>
VStem: 245 49<0 0>
LayerCount: 2
Fore
SplineSet
245 0 m 1
 255 259 318 414 471 600 c 1
 74 600 l 1
 74 639 l 1
 528 639 l 1
 528 613 l 1
 353 410 303 251 294 0 c 1
 245 0 l 1
EndSplineSet
Substitution2: "'onum' Oldstyle Figures in Latin lookup 15 subtable" seven.onum
Substitution2: "'subs' Subscript in Latin lookup 14 subtable" seven.subs
Substitution2: "'sups' Superscript in Latin lookup 13 subtable" seven.sups
Substitution2: "'dnom' Denominators in Latin lookup 9 subtable" seven.dnom
Substitution2: "'numr' Numerators in Latin lookup 8 subtable" seven.numr
AlternateSubs2: "'aalt' Access All Alternates in Latin lookup 1 subtable" seven.numr seven.dnom seven.sups seven.subs seven.onum
EndChar

StartChar: eight
Encoding: 56 56 469
Width: 600
Flags: MW
HStem: -12 37<246 362.5 246 374.5> 614 37<262 353.5>
VStem: 72 44<126.5 205.5 126.5 211> 120 43<461 529.5 449.5 541> 455 43<455.5 518.5> 481 45<119.5 201.5 108.5 209.5>
LayerCount: 2
Fore
SplineSet
116 166 m 0xe4
 116 87 187 25 305 25 c 0
 420 25 481 83 481 156 c 0
 481 263 377 287 253 327 c 1
 175 289 116 245 116 166 c 0xe4
357 335 m 1xd8
 422 379 455 428 455 483 c 0
 455 554 403 614 304 614 c 0
 220 614 163 564 163 495 c 0
 163 404 251 368 357 335 c 1xd8
72 164 m 0xe4
 72 258 149 311 220 343 c 1
 220 347 l 1
 167 377 120 427 120 495 c 0
 120 587 199 651 305 651 c 0
 429 651 498 580 498 484 c 0xd8
 498 423 453 364 396 324 c 1
 396 320 l 1
 469 284 526 248 526 155 c 0
 526 62 445 -12 304 -12 c 0
 162 -12 72 63 72 164 c 0xe4
EndSplineSet
Substitution2: "'onum' Oldstyle Figures in Latin lookup 15 subtable" eight.onum
Substitution2: "'subs' Subscript in Latin lookup 14 subtable" eight.subs
Substitution2: "'sups' Superscript in Latin lookup 13 subtable" eight.sups
Substitution2: "'dnom' Denominators in Latin lookup 9 subtable" eight.dnom
Substitution2: "'numr' Numerators in Latin lookup 8 subtable" eight.numr
AlternateSubs2: "'aalt' Access All Alternates in Latin lookup 1 subtable" eight.numr eight.dnom eight.sups eight.subs eight.onum
EndChar

StartChar: nine
Encoding: 57 57 470
Width: 600
Flags: MW
HStem: -12 39<225.5 309.5 225.5 320.5> 254 37<226.5 308.5 226.5 312> 613 38<232 338>
VStem: 75 44<401.5 497.5 401.5 510> 471 44
LayerCount: 2
Fore
SplineSet
280 291 m 0
 337 291 407 319 470 389 c 1
 460 524 399 613 277 613 c 0
 187 613 119 543 119 452 c 0
 119 351 173 291 280 291 c 0
88 50 m 1
 115 80 l 1
 152 45 199 27 252 27 c 0
 367 27 469 107 471 343 c 1
 415 289 349 254 275 254 c 0
 152 254 75 323 75 452 c 0
 75 568 170 651 278 651 c 0
 422 651 515 544 515 350 c 0
 515 82 389 -12 252 -12 c 0
 181 -12 130 13 88 50 c 1
EndSplineSet
Substitution2: "'onum' Oldstyle Figures in Latin lookup 15 subtable" nine.onum
Substitution2: "'subs' Subscript in Latin lookup 14 subtable" nine.subs
Substitution2: "'sups' Superscript in Latin lookup 13 subtable" nine.sups
Substitution2: "'dnom' Denominators in Latin lookup 9 subtable" nine.dnom
Substitution2: "'numr' Numerators in Latin lookup 8 subtable" nine.numr
AlternateSubs2: "'aalt' Access All Alternates in Latin lookup 1 subtable" nine.numr nine.dnom nine.sups nine.subs nine.onum
EndChar

StartChar: colon
Encoding: 58 58 483
Width: 600
Flags: MW
HStem: -12 130<284.5 315.5> 366 131<284.5 315.5>
VStem: 240 120<32.5 74 411 452.5>
LayerCount: 2
Fore
SplineSet
240 432 m 0
 240 473 269 497 300 497 c 0
 331 497 360 473 360 432 c 0
 360 390 331 366 300 366 c 0
 269 366 240 390 240 432 c 0
240 53 m 0
 240 95 269 118 300 118 c 0
 331 118 360 95 360 53 c 0
 360 12 331 -12 300 -12 c 0
 269 -12 240 12 240 53 c 0
EndSplineSet
EndChar

StartChar: semicolon
Encoding: 59 59 484
Width: 600
Flags: MW
HStem: 0 119<290.5 309.5> 366 131<284.5 315.5>
VStem: 240 120<411 452.5> 329 47
LayerCount: 2
Fore
SplineSet
300 366 m 0xe0
 269 366 240 390 240 432 c 0
 240 473 269 497 300 497 c 0
 331 497 360 473 360 432 c 0
 360 390 331 366 300 366 c 0xe0
221 -211 m 1
 205 -178 l 1
 285 -139 326 -85 329 3 c 1
 321 1 313 0 306 0 c 0
 271 0 246 19 246 59 c 0
 246 100 275 119 306 119 c 0
 352 119 376 79 376 17 c 0xd0
 376 -94 314 -171 221 -211 c 1
EndSplineSet
EndChar

StartChar: less
Encoding: 60 60 666
Width: 600
Flags: MW
HStem: 58 548<488 488>
VStem: 123 43<330 334 330 352 330 352>
LayerCount: 2
Fore
SplineSet
123 312 m 1
 123 352 l 1
 488 606 l 1
 488 558 l 1
 166 334 l 1
 166 330 l 1
 488 106 l 1
 488 58 l 1
 123 312 l 1
EndSplineSet
EndChar

StartChar: equal
Encoding: 61 61 665
Width: 600
Flags: MW
HStem: 209 38<95 505 95 505> 413 38<95 505 95 505>
VStem: 95 410<209 247 209 247 413 451 209 451>
LayerCount: 2
Fore
SplineSet
95 413 m 1
 95 451 l 1
 505 451 l 1
 505 413 l 1
 95 413 l 1
95 209 m 1
 95 247 l 1
 505 247 l 1
 505 209 l 1
 95 209 l 1
EndSplineSet
EndChar

StartChar: greater
Encoding: 62 62 667
Width: 600
Flags: MW
HStem: 58 548<112 112>
VStem: 434 43<330 334 334 334>
LayerCount: 2
Fore
SplineSet
477 352 m 1
 477 312 l 1
 112 58 l 1
 112 106 l 1
 434 330 l 1
 434 334 l 1
 112 558 l 1
 112 606 l 1
 477 352 l 1
EndSplineSet
EndChar

StartChar: question
Encoding: 63 63 488
Width: 600
Flags: MW
HStem: -12 21G<271 301> -12 126<271 301> 643 39<263 336.5>
VStem: 228 116<31 71.5> 423 45<467 557.5>
LayerCount: 2
Fore
SplineSet
257 219 m 1xb8
 231 367 423 408 423 526 c 0
 423 589 382 643 291 643 c 0
 235 643 184 620 145 579 c 1
 116 606 l 1
 158 649 217 682 294 682 c 0
 403 682 468 616 468 530 c 0
 468 399 276 357 297 219 c 1
 257 219 l 1xb8
228 51 m 0
 228 92 256 114 286 114 c 0x78
 316 114 344 92 344 51 c 0
 344 11 316 -12 286 -12 c 0
 256 -12 228 11 228 51 c 0
EndSplineSet
EndChar

StartChar: at
Encoding: 64 64 531
Width: 600
Flags: MW
HStem: -143 36<271.5 372 271.5 374> 88 36<341 387.5> 595 35<277.5 403>
VStem: 60 40<137 356.5 137 371> 233 41<185.5 250 185.5 262.5> 504 39<204 351 351 351>
LayerCount: 2
Fore
SplineSet
543 396 m 2
 543 100 l 1
 511 100 l 1
 506 162 l 1
 502 162 l 1
 471 125 413 88 362 88 c 0
 293 88 233 131 233 214 c 0
 233 311 325 363 506 384 c 1
 506 398 l 2
 506 506 460 595 346 595 c 0
 209 595 100 467 100 246 c 0
 100 28 201 -107 342 -107 c 0
 402 -107 449 -90 488 -59 c 1
 508 -87 l 1
 459 -124 406 -143 342 -143 c 0
 186 -143 60 -1 60 249 c 0
 60 493 184 630 349 630 c 0
 480 630 543 529 543 396 c 2
274 214 m 0
 274 157 312 124 370 124 c 0
 410 124 459 151 504 204 c 1
 504 351 l 1
 340 328 274 286 274 214 c 0
EndSplineSet
Substitution2: "'case' Case-Sensitive Forms in Latin lookup 16 subtable" at.case
Substitution2: "'aalt' Access All Alternates in Latin lookup 0 subtable" at.case
EndChar

StartChar: A
Encoding: 65 65 2
Width: 600
GlyphClass: 2
Flags: MW
HStem: 0 21G<45 91 45 45 506 555 506 506> 226 39<183 417 183 430 169 417> 616 43<298 302 298 298>
VStem: 45 510<0 0>
AnchorPoint: "Anchor-4" 496 0 basechar 0
AnchorPoint: "Anchor-2" 300 -22 basechar 0
AnchorPoint: "Anchor-0" 300 681 basechar 0
LayerCount: 2
Fore
SplineSet
183 265 m 1
 417 265 l 1
 375 388 l 2
 348 466 325 535 302 616 c 1
 298 616 l 1
 275 535 251 466 225 388 c 2
 183 265 l 1
506 0 m 1
 430 226 l 1
 169 226 l 1
 91 0 l 1
 45 0 l 1
 277 659 l 1
 323 659 l 1
 555 0 l 1
 506 0 l 1
EndSplineSet
EndChar

StartChar: B
Encoding: 66 66 3
Width: 600
GlyphClass: 2
Flags: MW
HStem: 0 38<161 281 281 293> 332 37<161 262 262 281 161 262> 621 38<161 267 161 161>
VStem: 115 46<38 38 38 332 369 621> 451 46<464.5 542.5> 492 46<139 237.5 128.5 239>
AnchorPoint: "Anchor-2" 306 -22 basechar 0
AnchorPoint: "Anchor-0" 295 681 basechar 0
LayerCount: 2
Fore
SplineSet
115 0 m 1xf4
 115 659 l 1
 280 659 l 2
 413 659 497 609 497 499 c 0xf8
 497 430 458 375 380 355 c 1
 380 351 l 1
 477 337 538 283 538 192 c 0
 538 65 442 0 293 0 c 2
 115 0 l 1xf4
161 369 m 1
 262 369 l 2
 397 369 451 413 451 500 c 0
 451 585 388 621 267 621 c 2
 161 621 l 1
 161 369 l 1
161 38 m 1
 281 38 l 2
 412 38 492 86 492 192 c 0xf4
 492 286 415 332 281 332 c 2
 161 332 l 1
 161 38 l 1
EndSplineSet
EndChar

StartChar: C
Encoding: 67 67 4
Width: 600
GlyphClass: 2
Flags: MW
HStem: -12 42<281 385.5 281 391.5> 629 42<282.5 385>
VStem: 72 48<239.5 422.5 239.5 435.5>
AnchorPoint: "Anchor-2" 346 -22 basechar 0
AnchorPoint: "Anchor-1" 346 0 basechar 0
AnchorPoint: "Anchor-0" 343 681 basechar 0
LayerCount: 2
Fore
SplineSet
72 331 m 0
 72 540 186 671 355 671 c 0
 431 671 490 633 526 592 c 1
 498 562 l 1
 463 602 415 629 355 629 c 0
 210 629 120 514 120 331 c 0
 120 148 210 30 352 30 c 0
 419 30 469 57 517 111 c 1
 544 82 l 1
 494 24 434 -12 349 -12 c 0
 186 -12 72 121 72 331 c 0
EndSplineSet
EndChar

StartChar: D
Encoding: 68 68 5
Width: 600
GlyphClass: 2
Flags: MW
HStem: 0 39<142 243 243 248> 620 39<142 243 142 142>
VStem: 96 46<39 39 39 620> 497 48<246 417.5>
AnchorPoint: "Anchor-2" 290 -22 basechar 0
AnchorPoint: "Anchor-0" 300 681 basechar 0
LayerCount: 2
Fore
SplineSet
96 0 m 1
 96 659 l 1
 247 659 l 2
 449 659 545 531 545 332 c 0
 545 132 449 0 248 0 c 2
 96 0 l 1
142 39 m 1
 243 39 l 2
 420 39 497 160 497 332 c 0
 497 503 420 620 243 620 c 2
 142 620 l 1
 142 39 l 1
EndSplineSet
EndChar

StartChar: E
Encoding: 69 69 6
Width: 600
GlyphClass: 2
Flags: MW
HStem: 0 40<173 527 173 527> 330 40<173 463 173 463> 619 40<173 517 173 173>
VStem: 127 46<40 330 370 619>
AnchorPoint: "Anchor-4" 428 0 basechar 0
AnchorPoint: "Anchor-2" 339 -22 basechar 0
AnchorPoint: "Anchor-0" 336 681 basechar 0
LayerCount: 2
Fore
SplineSet
127 0 m 1
 127 659 l 1
 517 659 l 1
 517 619 l 1
 173 619 l 1
 173 370 l 1
 463 370 l 1
 463 330 l 1
 173 330 l 1
 173 40 l 1
 527 40 l 1
 527 0 l 1
 127 0 l 1
EndSplineSet
EndChar

StartChar: F
Encoding: 70 70 7
Width: 600
GlyphClass: 2
Flags: MW
HStem: 0 21G<150 150 150 195> 317 40<195 481 195 481> 619 40<195 535 195 195>
VStem: 150 45<0 317 357 619>
AnchorPoint: "Anchor-2" 183 -22 basechar 0
AnchorPoint: "Anchor-0" 346 681 basechar 0
LayerCount: 2
Fore
SplineSet
150 0 m 1
 150 659 l 1
 535 659 l 1
 535 619 l 1
 195 619 l 1
 195 357 l 1
 481 357 l 1
 481 317 l 1
 195 317 l 1
 195 0 l 1
 150 0 l 1
EndSplineSet
EndChar

StartChar: G
Encoding: 71 71 8
Width: 600
GlyphClass: 2
Flags: MW
HStem: -12 42<265 366 265 376.5> 285 39<328 480 328 525> 629 42<270.5 378>
VStem: 59 48<239.5 422.5 239.5 435.5> 480 45<80 285 285 285>
AnchorPoint: "Anchor-2" 336 -22 basechar 0
AnchorPoint: "Anchor-0" 332 681 basechar 0
LayerCount: 2
Fore
SplineSet
59 331 m 0
 59 540 173 671 343 671 c 0
 430 671 484 629 518 592 c 1
 491 562 l 1
 458 599 413 629 343 629 c 0
 198 629 107 514 107 331 c 0
 107 148 193 30 337 30 c 0
 395 30 449 48 480 80 c 1
 480 285 l 1
 328 285 l 1
 328 324 l 1
 525 324 l 1
 525 63 l 1
 485 19 419 -12 334 -12 c 0
 170 -12 59 121 59 331 c 0
EndSplineSet
EndChar

StartChar: H
Encoding: 72 72 9
Width: 600
GlyphClass: 2
Flags: MW
HStem: 0 21G<89 89 89 135 465 465 465 511> 330 40<135 465 135 465> 639 20G<89 135 135 135 465 511 511 511>
VStem: 89 46<0 330 370 659> 465 46<0 330 330 330 370 659 0 659>
AnchorPoint: "Anchor-2" 299 -22 basechar 0
AnchorPoint: "Anchor-0" 299 681 basechar 0
LayerCount: 2
Fore
SplineSet
89 0 m 1
 89 659 l 1
 135 659 l 1
 135 370 l 1
 465 370 l 1
 465 659 l 1
 511 659 l 1
 511 0 l 1
 465 0 l 1
 465 330 l 1
 135 330 l 1
 135 0 l 1
 89 0 l 1
EndSplineSet
EndChar

StartChar: I
Encoding: 73 73 10
Width: 600
GlyphClass: 2
Flags: MW
HStem: 0 40<107 277 107 277 323 493> 619 40<107 277 107 493 323 323 323 493>
VStem: 277 46<40 619 40 619>
AnchorPoint: "Anchor-4" 275 0 basechar 0
AnchorPoint: "Anchor-2" 300 -22 basechar 0
AnchorPoint: "Anchor-0" 300 681 basechar 0
LayerCount: 2
Fore
SplineSet
107 0 m 1
 107 40 l 1
 277 40 l 1
 277 619 l 1
 107 619 l 1
 107 659 l 1
 493 659 l 1
 493 619 l 1
 323 619 l 1
 323 40 l 1
 493 40 l 1
 493 0 l 1
 107 0 l 1
EndSplineSet
EndChar

StartChar: J
Encoding: 74 74 11
Width: 600
GlyphClass: 2
Flags: MW
HStem: -12 41<250 332.5 250 353.5> 621 39<147 434 147 480>
VStem: 434 46<208 621 621 621>
AnchorPoint: "Anchor-2" 300 -22 basechar 0
AnchorPoint: "Anchor-0" 320 681 basechar 0
LayerCount: 2
Fore
SplineSet
93 98 m 1
 130 124 l 1
 168 59 222 29 278 29 c 0
 387 29 434 88 434 208 c 2
 434 621 l 1
 147 621 l 1
 147 660 l 1
 480 660 l 1
 480 204 l 2
 480 84 430 -12 277 -12 c 0
 203 -12 132 24 93 98 c 1
EndSplineSet
EndChar

StartChar: K
Encoding: 75 75 12
Width: 600
GlyphClass: 2
Flags: MW
HStem: 0 21G<115 115 115 162 518 518 518 571> 639 20G<115 162 162 162 489 543 543 543>
VStem: 115 47<0 227 293 659>
AnchorPoint: "Anchor-2" 346 -22 basechar 0
AnchorPoint: "Anchor-0" 327 681 basechar 0
LayerCount: 2
Fore
SplineSet
115 0 m 1
 115 659 l 1
 162 659 l 1
 162 293 l 1
 164 293 l 1
 489 659 l 1
 543 659 l 1
 330 415 l 1
 571 0 l 1
 518 0 l 1
 298 380 l 1
 162 227 l 1
 162 0 l 1
 115 0 l 1
EndSplineSet
EndChar

StartChar: L
Encoding: 76 76 13
Width: 600
GlyphClass: 2
Flags: MW
HStem: 0 40<194 539 194 539> 639 20G<150 194 194 194>
VStem: 150 44<40 659 40 659 40 659>
AnchorPoint: "Anchor-2" 355 -22 basechar 0
AnchorPoint: "Anchor-0" 187 681 basechar 0
LayerCount: 2
Fore
SplineSet
150 0 m 1
 150 659 l 1
 194 659 l 1
 194 40 l 1
 539 40 l 1
 539 0 l 1
 150 0 l 1
EndSplineSet
EndChar

StartChar: M
Encoding: 77 77 14
Width: 600
GlyphClass: 2
Flags: MW
HStem: 0 21G<91 91 91 133 466 466 466 509> 180 55<299 303 299 316 284 303> 609 50<127 129 127 127 468 471 468 468>
VStem: 91 42<0 461 0 659> 466 43<0 461 461 483>
AnchorPoint: "Anchor-2" 300 -22 basechar 0
AnchorPoint: "Anchor-0" 300 681 basechar 0
LayerCount: 2
Fore
SplineSet
91 0 m 1
 91 659 l 1
 150 659 l 1
 260 352 l 1
 299 235 l 1
 303 235 l 1
 341 352 l 1
 450 659 l 1
 509 659 l 1
 509 0 l 1
 466 0 l 1
 466 461 l 2
 466 505 469 564 471 609 c 1
 468 609 l 1
 430 491 l 1
 316 180 l 1
 284 180 l 1
 169 491 l 1
 129 609 l 1
 127 609 l 1
 129 564 133 505 133 461 c 2
 133 0 l 1
 91 0 l 1
EndSplineSet
EndChar

StartChar: N
Encoding: 78 78 15
Width: 600
GlyphClass: 2
Flags: MW
HStem: 0 21G<92 92 92 136 460 460 460 508> 0 63<460 470 468 470 468 508> 596 63<130 132 130 130> 639 20G<92 140 140 140 464 508 508 508>
VStem: 92 44<0 408 0 659> 464 44<254 659 0 659>
AnchorPoint: "Anchor-2" 300 -22 basechar 0
AnchorPoint: "Anchor-0" 306 681 basechar 0
LayerCount: 2
Fore
SplineSet
92 0 m 1x9c
 92 659 l 1
 140 659 l 1
 397 193 l 1
 468 63 l 1
 470 63 l 1x5c
 468 127 464 190 464 254 c 2
 464 659 l 1
 508 659 l 1
 508 0 l 1
 460 0 l 1
 203 466 l 1
 132 596 l 1
 130 596 l 1xac
 132 532 136 472 136 408 c 2
 136 0 l 1
 92 0 l 1x9c
EndSplineSet
EndChar

StartChar: O
Encoding: 79 79 16
Width: 600
GlyphClass: 2
Flags: MW
HStem: -12 42<241 359 241 372> 629 42<241 359>
VStem: 54 48<240.5 423 240.5 436> 498 48<240.5 423>
AnchorPoint: "Anchor-4" 300 0 basechar 0
AnchorPoint: "Anchor-3" 417 649 basechar 0
AnchorPoint: "Anchor-2" 300 -22 basechar 0
AnchorPoint: "Anchor-0" 300 681 basechar 0
LayerCount: 2
Fore
SplineSet
300 -12 m 0
 156 -12 54 123 54 332 c 0
 54 540 156 671 300 671 c 0
 444 671 546 540 546 332 c 0
 546 123 444 -12 300 -12 c 0
300 30 m 0
 418 30 498 149 498 332 c 0
 498 514 418 629 300 629 c 0
 182 629 102 514 102 332 c 0
 102 149 182 30 300 30 c 0
EndSplineSet
EndChar

StartChar: P
Encoding: 80 80 17
Width: 600
GlyphClass: 2
Flags: MW
HStem: 0 21G<118 118 118 164> 283 39<164 286 286 298 164 286> 620 39<164 286 164 164>
VStem: 118 46<0 283 322 620> 485 48<421 530.5>
AnchorPoint: "Anchor-2" 144 -22 basechar 0
AnchorPoint: "Anchor-0" 316 681 basechar 0
LayerCount: 2
Fore
SplineSet
118 0 m 1
 118 659 l 1
 298 659 l 2
 445 659 533 611 533 475 c 0
 533 346 445 283 298 283 c 2
 164 283 l 1
 164 0 l 1
 118 0 l 1
164 322 m 1
 286 322 l 2
 421 322 485 367 485 475 c 0
 485 586 420 620 286 620 c 2
 164 620 l 1
 164 322 l 1
EndSplineSet
EndChar

StartChar: Q
Encoding: 81 81 18
Width: 600
GlyphClass: 2
Flags: MW
HStem: -153 43<441 487> -11 39 632 40<240 359.5>
VStem: 57 47<241 423 241 436> 496 46<241 423>
AnchorPoint: "Anchor-0" 299 692 basechar 0
LayerCount: 2
Fore
SplineSet
104 332 m 0
 104 150 180 28 300 28 c 0
 419 28 496 150 496 332 c 0
 496 514 419 632 300 632 c 0
 180 632 104 514 104 332 c 0
529 -102 m 1
 538 -144 l 1
 517 -150 498 -153 476 -153 c 0
 367 -153 303 -91 274 -11 c 1
 144 5 57 137 57 332 c 0
 57 540 155 672 300 672 c 0
 444 672 542 540 542 332 c 0
 542 136 455 4 325 -11 c 1
 347 -74 400 -110 482 -110 c 0
 502 -110 517 -107 529 -102 c 1
EndSplineSet
EndChar

StartChar: R
Encoding: 82 82 19
Width: 600
GlyphClass: 2
Flags: MW
HStem: 0 21G<117 163 117 117 481 535 481 481> 303 38<163 293 293 303 163 293> 620 39<163 293 163 163>
VStem: 117 46<0 303 0 341 341 620> 475 47<436.5 534.5>
AnchorPoint: "Anchor-2" 320 -22 basechar 0
AnchorPoint: "Anchor-0" 306 681 basechar 0
LayerCount: 2
Fore
SplineSet
163 341 m 1
 293 341 l 2
 410 341 475 388 475 485 c 0
 475 584 410 620 293 620 c 2
 163 620 l 1
 163 341 l 1
535 0 m 1
 481 0 l 1
 303 303 l 1
 163 303 l 1
 163 0 l 1
 117 0 l 1
 117 659 l 1
 305 659 l 2
 436 659 522 611 522 485 c 0
 522 380 456 320 353 306 c 1
 535 0 l 1
EndSplineSet
EndChar

StartChar: S
Encoding: 83 83 20
Width: 600
GlyphClass: 2
Flags: MW
HStem: -12 42<268.5 362.5 268.5 375.5> 629 42<265.5 347>
VStem: 111 46<473 547 473 556.5> 483 46<123 203>
AnchorPoint: "Anchor-2" 310 -22 basechar 0
AnchorPoint: "Anchor-1" 318 0 basechar 0
AnchorPoint: "Anchor-0" 313 681 basechar 0
LayerCount: 2
Fore
SplineSet
76 87 m 1
 106 119 l 1
 156 65 228 30 309 30 c 0
 416 30 483 84 483 162 c 0
 483 244 424 271 354 300 c 1
 254 345 l 1
 193 370 111 411 111 509 c 0
 111 604 197 671 312 671 c 0
 396 671 463 635 506 592 c 1
 479 561 l 1
 438 602 382 629 312 629 c 0
 219 629 157 583 157 511 c 0
 157 435 229 406 281 384 c 1
 380 340 l 1
 459 307 529 266 529 165 c 0
 529 64 442 -12 309 -12 c 0
 208 -12 130 29 76 87 c 1
EndSplineSet
EndChar

StartChar: T
Encoding: 84 84 21
Width: 600
GlyphClass: 2
Flags: MW
HStem: 0 21G<277 277 277 323> 619 40<48 277 48 552 323 323 323 552>
VStem: 277 46<0 619 0 619>
AnchorPoint: "Anchor-2" 300 -22 basechar 0
AnchorPoint: "Anchor-1" 300 0 basechar 0
AnchorPoint: "Anchor-0" 298 681 basechar 0
LayerCount: 2
Fore
SplineSet
277 0 m 1
 277 619 l 1
 48 619 l 1
 48 659 l 1
 552 659 l 1
 552 619 l 1
 323 619 l 1
 323 0 l 1
 277 0 l 1
EndSplineSet
EndChar

StartChar: U
Encoding: 85 85 22
Width: 600
GlyphClass: 2
Flags: MW
HStem: -12 42<256 345 256 355.5> 639 20G<89 135 135 135 468 511 511 511>
VStem: 89 46<247 252 252 659> 468 43<252 659>
AnchorPoint: "Anchor-4" 299 0 basechar 0
AnchorPoint: "Anchor-3" 497 669 basechar 0
AnchorPoint: "Anchor-2" 299 -22 basechar 0
AnchorPoint: "Anchor-0" 299 681 basechar 0
LayerCount: 2
Fore
SplineSet
89 247 m 2
 89 659 l 1
 135 659 l 1
 135 252 l 2
 135 82 212 30 300 30 c 0
 390 30 468 82 468 252 c 2
 468 659 l 1
 511 659 l 1
 511 247 l 2
 511 47 411 -12 300 -12 c 0
 190 -12 89 47 89 247 c 2
EndSplineSet
EndChar

StartChar: V
Encoding: 86 86 23
Width: 600
GlyphClass: 2
Flags: MW
HStem: 0 53<276 303 299 303 299 326> 639 20G<59 108 108 108 495 541 541 541>
VStem: 59 482<659 659>
AnchorPoint: "Anchor-2" 302 -22 basechar 0
AnchorPoint: "Anchor-0" 299 681 basechar 0
LayerCount: 2
Fore
SplineSet
276 0 m 1
 59 659 l 1
 108 659 l 1
 230 274 l 2
 255 194 272 133 299 53 c 1
 303 53 l 1
 330 133 348 194 373 274 c 2
 495 659 l 1
 541 659 l 1
 326 0 l 1
 276 0 l 1
EndSplineSet
EndChar

StartChar: W
Encoding: 87 87 24
Width: 600
GlyphClass: 2
Flags: MW
HStem: 0 50<123 151 149 151 149 178 451 455> 431 57<299 302 299 299> 640 20G<14 57 57 57 544 586 586 586>
VStem: 14 572<660 660>
AnchorPoint: "Anchor-2" 304 -22 basechar 0
AnchorPoint: "Anchor-0" 300 681 basechar 0
LayerCount: 2
Fore
SplineSet
123 0 m 1
 14 660 l 1
 57 660 l 1
 128 209 l 1
 134 156 143 104 149 50 c 1
 151 50 l 1
 167 104 183 156 198 209 c 2
 280 488 l 1
 322 488 l 1
 406 209 l 1
 420 156 436 103 451 50 c 1
 455 50 l 1
 461 103 469 156 476 209 c 2
 544 660 l 1
 586 660 l 1
 480 0 l 1
 424 0 l 1
 330 316 l 1
 320 354 312 392 302 431 c 1
 299 431 l 1
 289 392 280 354 269 316 c 2
 178 0 l 1
 123 0 l 1
EndSplineSet
EndChar

StartChar: X
Encoding: 88 88 25
Width: 600
GlyphClass: 2
Flags: MW
HStem: 0 21G<75 75 75 122 475 475 475 525> 639 20G<89 139 139 139 464 511 511 511>
VStem: 75 450<0 0>
AnchorPoint: "Anchor-2" 298 -22 basechar 0
AnchorPoint: "Anchor-0" 301 681 basechar 0
LayerCount: 2
Fore
SplineSet
75 0 m 1
 274 341 l 1
 89 659 l 1
 139 659 l 1
 248 465 l 2
 266 435 280 411 302 375 c 1
 306 375 l 1
 325 411 338 435 355 465 c 2
 464 659 l 1
 511 659 l 1
 326 339 l 1
 525 0 l 1
 475 0 l 1
 359 202 l 2
 341 235 322 267 298 307 c 1
 294 307 l 1
 273 267 256 235 238 202 c 2
 122 0 l 1
 75 0 l 1
EndSplineSet
EndChar

StartChar: Y
Encoding: 89 89 26
Width: 600
GlyphClass: 2
Flags: MW
HStem: 0 21G<277 277 277 323> 639 20G<51 98 98 98 504 549 549 549>
VStem: 277 46<0 242 0 242>
AnchorPoint: "Anchor-2" 300 -22 basechar 0
AnchorPoint: "Anchor-0" 300 681 basechar 0
LayerCount: 2
Fore
SplineSet
277 0 m 1
 277 242 l 1
 51 659 l 1
 98 659 l 1
 215 441 l 1
 245 391 270 339 300 286 c 1
 304 286 l 1
 334 339 362 391 390 442 c 1
 504 659 l 1
 549 659 l 1
 323 242 l 1
 323 0 l 1
 277 0 l 1
EndSplineSet
EndChar

StartChar: Z
Encoding: 90 90 27
Width: 600
GlyphClass: 2
Flags: MW
HStem: 0 40<125 535 125 535> 621 39<104 473 104 528>
VStem: 70 465<0 28 28 28>
AnchorPoint: "Anchor-2" 312 -22 basechar 0
AnchorPoint: "Anchor-0" 316 681 basechar 0
LayerCount: 2
Fore
SplineSet
70 0 m 1
 70 28 l 1
 473 621 l 1
 104 621 l 1
 104 660 l 1
 528 660 l 1
 528 632 l 1
 125 40 l 1
 535 40 l 1
 535 0 l 1
 70 0 l 1
EndSplineSet
EndChar

StartChar: bracketleft
Encoding: 91 91 513
Width: 600
Flags: MW
HStem: -152 30<279 505 279 505> 678 30<279 505 279 279>
VStem: 240 39<-122 678 -122 708 -122 708>
LayerCount: 2
Fore
SplineSet
240 -152 m 1
 240 708 l 1
 505 708 l 1
 505 678 l 1
 279 678 l 1
 279 -122 l 1
 505 -122 l 1
 505 -152 l 1
 240 -152 l 1
EndSplineSet
EndChar

StartChar: backslash
Encoding: 92 92 519
Width: 600
Flags: MW
HStem: -160 870<114 441 114 486>
VStem: 114 372
LayerCount: 2
Fore
SplineSet
441 -160 m 1
 114 710 l 1
 159 710 l 1
 486 -160 l 1
 441 -160 l 1
EndSplineSet
EndChar

StartChar: bracketright
Encoding: 93 93 514
Width: 600
Flags: MW
HStem: -152 30<95 321 95 360 95 321> 678 30<95 321 95 360>
VStem: 321 39<-122 678 678 678>
LayerCount: 2
Fore
SplineSet
95 -122 m 1
 321 -122 l 1
 321 678 l 1
 95 678 l 1
 95 708 l 1
 360 708 l 1
 360 -152 l 1
 95 -152 l 1
 95 -122 l 1
EndSplineSet
EndChar

StartChar: asciicircum
Encoding: 94 94 671
Width: 600
Flags: MW
HStem: 626 44<298 302 298 298>
VStem: 126 348<290 290>
LayerCount: 2
Fore
SplineSet
126 290 m 1
 277 670 l 1
 323 670 l 1
 474 290 l 1
 431 290 l 1
 353 493 l 1
 302 626 l 1
 298 626 l 1
 247 493 l 1
 169 290 l 1
 126 290 l 1
EndSplineSet
EndChar

StartChar: underscore
Encoding: 95 95 510
Width: 600
Flags: MW
HStem: -125 46<60 540 60 540>
VStem: 60 480<-125 -79 -125 -79>
LayerCount: 2
Fore
SplineSet
60 -79 m 1
 540 -79 l 1
 540 -125 l 1
 60 -125 l 1
 60 -79 l 1
EndSplineSet
EndChar

StartChar: grave
Encoding: 96 96 715
Width: 600
Flags: MW
HStem: 572 138<211 318 211 356>
VStem: 211 145<572 710>
LayerCount: 2
Fore
SplineSet
318 572 m 1
 211 710 l 1
 264 710 l 1
 356 572 l 1
 318 572 l 1
EndSplineSet
EndChar

StartChar: b
Encoding: 98 98 29
Width: 600
GlyphClass: 2
Flags: MW
HStem: -12 39<288 359.5 288 369> 0 21G<105 105 105 142> 453 39<298 381> 699 20G<105 150 150 150>
VStem: 105 45<98 98 98 365 511 719> 486 47<182 306>
AnchorPoint: "Anchor-2" 297 -22 basechar 0
AnchorPoint: "Anchor-0" 131 730 basechar 0
LayerCount: 2
Fore
SplineSet
105 0 m 1x7c
 105 719 l 1
 150 719 l 1
 150 511 l 1
 147 408 l 1
 199 458 267 492 329 492 c 0
 465 492 533 396 533 247 c 0
 533 84 428 -12 310 -12 c 0
 261 -12 197 14 149 54 c 1
 147 54 l 1xbc
 142 0 l 1
 105 0 l 1x7c
150 98 m 1
 206 47 268 27 308 27 c 0
 411 27 486 117 486 247 c 0
 486 365 440 453 322 453 c 0
 272 453 210 425 150 365 c 1
 150 98 l 1
EndSplineSet
Substitution2: "'sups' Superscript in Latin lookup 12 subtable" b.sups
Substitution2: "'aalt' Access All Alternates in Latin lookup 0 subtable" b.sups
EndChar

StartChar: c
Encoding: 99 99 30
Width: 600
GlyphClass: 2
Flags: MW
HStem: -12 39<284.5 381.5 284.5 384.5> 453 39<286 379.5>
VStem: 87 47<176 302.5 176 319.5>
AnchorPoint: "Anchor-2" 343 -22 basechar 0
AnchorPoint: "Anchor-1" 343 0 basechar 0
AnchorPoint: "Anchor-0" 344 502 basechar 0
LayerCount: 2
Fore
SplineSet
87 239 m 0
 87 400 205 492 349 492 c 0
 429 492 482 457 522 419 c 1
 496 389 l 1
 455 427 409 453 350 453 c 0
 222 453 134 366 134 239 c 0
 134 113 220 27 349 27 c 0
 414 27 468 56 511 96 c 1
 534 65 l 1
 485 19 422 -12 347 -12 c 0
 198 -12 87 80 87 239 c 0
EndSplineSet
Substitution2: "'sups' Superscript in Latin lookup 12 subtable" c.sups
Substitution2: "'aalt' Access All Alternates in Latin lookup 0 subtable" c.sups
EndChar

StartChar: d
Encoding: 100 100 31
Width: 600
GlyphClass: 2
Flags: MW
HStem: -12 39<231.5 312.5> 0 21G<457 495 457 457> 453 39<245.5 321> 699 20G<450 495 495 495>
VStem: 67 47<175.5 299.5 175.5 316.5> 450 45<71 71 115 382 382 382 521 719 0 719>
AnchorPoint: "Anchor-2" 305 -22 basechar 0
AnchorPoint: "Anchor-0" 454 730 basechar 0
LayerCount: 2
Fore
SplineSet
67 239 m 0xbc
 67 394 174 492 293 492 c 0
 355 492 402 467 453 424 c 1
 450 521 l 1
 450 719 l 1
 495 719 l 1
 495 0 l 1
 457 0 l 1x7c
 452 71 l 1
 450 71 l 1
 408 27 346 -12 279 -12 c 0
 153 -12 67 77 67 239 c 0xbc
114 239 m 0
 114 112 178 27 285 27 c 0
 341 27 397 59 450 115 c 1
 450 382 l 1
 396 433 346 453 296 453 c 0
 195 453 114 360 114 239 c 0
EndSplineSet
Substitution2: "'sups' Superscript in Latin lookup 12 subtable" d.sups
Substitution2: "'aalt' Access All Alternates in Latin lookup 0 subtable" d.sups
EndChar

StartChar: f
Encoding: 102 102 33
Width: 600
GlyphClass: 2
Flags: MW
HStem: 0 21G<260 302 260 260> 442 38<115 260 302 525> 693 38<391.5 460.5 379 464.5>
VStem: 260 42<0 442 0 442 480 538 538 542>
AnchorPoint: "Anchor-2" 290 -22 basechar 0
AnchorPoint: "Anchor-0" 424 740 basechar 0
LayerCount: 2
Fore
SplineSet
574 702 m 1
 560 668 l 1
 515 688 487 693 442 693 c 0
 341 693 302 631 302 542 c 2
 302 480 l 1
 525 480 l 1
 525 442 l 1
 302 442 l 1
 302 0 l 1
 260 0 l 1
 260 442 l 1
 115 442 l 1
 115 476 l 1
 260 480 l 1
 260 538 l 2
 260 659 319 731 439 731 c 0
 482 731 525 725 574 702 c 1
EndSplineSet
Substitution2: "'sups' Superscript in Latin lookup 12 subtable" f.sups
Substitution2: "'aalt' Access All Alternates in Latin lookup 0 subtable" f.sups
EndChar

StartChar: h
Encoding: 104 104 35
Width: 600
GlyphClass: 2
Flags: MW
HStem: 0 21G<105 105 105 150 469 469 469 514> 452 40<302.5 381.5> 699 20G<105 150 150 150>
VStem: 105 45<0 344 511 719> 469 45<0 293 293 299 0 346.5>
AnchorPoint: "Anchor-2" 318 -22 basechar 0
AnchorPoint: "Anchor-0" 151 730 basechar 0
LayerCount: 2
Fore
SplineSet
105 0 m 1
 105 719 l 1
 150 719 l 1
 150 511 l 1
 147 385 l 1
 207 447 264 492 341 492 c 0
 458 492 514 429 514 299 c 2
 514 0 l 1
 469 0 l 1
 469 293 l 2
 469 400 429 452 334 452 c 0
 266 452 219 417 150 344 c 1
 150 0 l 1
 105 0 l 1
EndSplineSet
Substitution2: "'sups' Superscript in Latin lookup 12 subtable" h.sups
Substitution2: "'aalt' Access All Alternates in Latin lookup 0 subtable" h.sups
EndChar

StartChar: i
Encoding: 105 105 36
Width: 600
GlyphClass: 2
Flags: MW
HStem: 0 21G<338 382 338 338> 442 38<97 382 97 338> 596 96<336 362.5>
VStem: 302 94<629.5 658.5> 338 44<0 442 442 442>
AnchorPoint: "Anchor-4" 381 0 basechar 0
AnchorPoint: "Anchor-2" 349 -22 basechar 0
AnchorPoint: "Anchor-0" 349 678 basechar 0
LayerCount: 2
Fore
SplineSet
97 442 m 1xe8
 97 480 l 1
 382 480 l 1
 382 0 l 1
 338 0 l 1
 338 442 l 1
 97 442 l 1xe8
349 596 m 0xf0
 323 596 302 615 302 644 c 0
 302 673 323 692 349 692 c 0
 376 692 396 673 396 644 c 0
 396 615 376 596 349 596 c 0xf0
EndSplineSet
Substitution2: "'sups' Superscript in Latin lookup 12 subtable" i.sups
Substitution2: "'aalt' Access All Alternates in Latin lookup 0 subtable" i.sups
EndChar

StartChar: j
Encoding: 106 106 37
Width: 600
GlyphClass: 2
Flags: MW
HStem: -229 38<176.5 253 176.5 265.5> 442 38<97 382 97 338> 596 96<336 362.5>
VStem: 302 94<629.5 658.5> 338 44<-43 -37 -37 442 442 442>
AnchorPoint: "Anchor-2" 234 -229 basechar 0
AnchorPoint: "Anchor-0" 349 678 basechar 0
LayerCount: 2
Fore
SplineSet
97 442 m 1xc8
 97 480 l 1
 382 480 l 1
 382 -37 l 2
 382 -155 337 -229 194 -229 c 0
 149 -229 99 -215 63 -197 c 1
 81 -162 l 1
 113 -178 156 -191 197 -191 c 0
 309 -191 338 -131 338 -43 c 2
 338 442 l 1
 97 442 l 1xc8
349 596 m 0xf0
 323 596 302 615 302 644 c 0
 302 673 323 692 349 692 c 0
 376 692 396 673 396 644 c 0
 396 615 376 596 349 596 c 0xf0
EndSplineSet
Substitution2: "'sups' Superscript in Latin lookup 12 subtable" j.sups
Substitution2: "'aalt' Access All Alternates in Latin lookup 0 subtable" j.sups
EndChar

StartChar: k
Encoding: 107 107 38
Width: 600
GlyphClass: 2
Flags: MW
HStem: 0 21G<123 123 123 168 516 516 516 567> 460 20G<480 535 535 535> 699 20G<123 168 168 168>
VStem: 123 45<0 136 191 719>
AnchorPoint: "Anchor-2" 342 -22 basechar 0
AnchorPoint: "Anchor-0" 185 730 basechar 0
LayerCount: 2
Fore
SplineSet
123 0 m 1
 123 719 l 1
 168 719 l 1
 168 191 l 1
 172 191 l 1
 480 480 l 1
 535 480 l 1
 338 294 l 1
 567 0 l 1
 516 0 l 1
 307 267 l 1
 168 136 l 1
 168 0 l 1
 123 0 l 1
EndSplineSet
Substitution2: "'sups' Superscript in Latin lookup 12 subtable" k.sups
Substitution2: "'aalt' Access All Alternates in Latin lookup 0 subtable" k.sups
EndChar

StartChar: l
Encoding: 108 108 39
Width: 600
GlyphClass: 2
Flags: MW
HStem: -12 39<385 434.5 385 436.5> 681 38<93 315 93 271>
VStem: 271 44<145 681 681 681>
AnchorPoint: "Anchor-2" 376 -22 basechar 0
AnchorPoint: "Anchor-0" 291 730 basechar 0
LayerCount: 2
Fore
SplineSet
93 681 m 1
 93 719 l 1
 315 719 l 1
 315 139 l 2
 315 63 351 27 419 27 c 0
 450 27 480 35 519 53 c 1
 533 18 l 1
 494 2 460 -12 413 -12 c 0
 322 -12 271 36 271 145 c 2
 271 681 l 1
 93 681 l 1
EndSplineSet
Substitution2: "'sups' Superscript in Latin lookup 12 subtable" l.sups
Substitution2: "'aalt' Access All Alternates in Latin lookup 0 subtable" l.sups
EndChar

StartChar: m
Encoding: 109 109 40
Width: 600
GlyphClass: 2
Flags: MW
HStem: 0 21G<75 75 75 118 290 290 290 330 503 503 503 546> 452 40<201.5 244 415.5 456.5> 460 20G<75 111 111 111>
VStem: 75 43<0 362> 290 40<0 343 343 362 0 379> 503 43<0 343 343 348 0 379>
AnchorPoint: "Anchor-2" 312 -22 basechar 0
AnchorPoint: "Anchor-0" 313 501 basechar 0
LayerCount: 2
Fore
SplineSet
75 0 m 1xdc
 75 480 l 1
 111 480 l 1xbc
 116 415 l 1
 118 415 l 1
 146 462 175 492 228 492 c 0
 281 492 311 464 324 407 c 1
 359 461 389 492 442 492 c 0
 508 492 546 444 546 348 c 2
 546 0 l 1
 503 0 l 1
 503 343 l 2
 503 415 480 452 433 452 c 0
 390 452 362 422 330 362 c 1
 330 0 l 1
 290 0 l 1
 290 343 l 2
 290 415 267 452 221 452 c 0
 177 452 149 422 118 362 c 1
 118 0 l 1
 75 0 l 1xdc
EndSplineSet
Substitution2: "'sups' Superscript in Latin lookup 12 subtable" m.sups
Substitution2: "'aalt' Access All Alternates in Latin lookup 0 subtable" m.sups
EndChar

StartChar: n
Encoding: 110 110 41
Width: 600
GlyphClass: 2
Flags: MW
HStem: 0 21G<105 105 105 150 469 469 469 514> 452 40<302.5 381.5> 460 20G<105 143 143 143>
VStem: 105 45<0 344 0 480> 469 45<0 293 293 299 0 346.5>
AnchorPoint: "Anchor-2" 317 -22 basechar 0
AnchorPoint: "Anchor-0" 319 502 basechar 0
LayerCount: 2
Fore
SplineSet
105 0 m 1xd8
 105 480 l 1
 143 480 l 1xb8
 148 388 l 1
 152 388 l 1
 207 447 264 492 341 492 c 0
 458 492 514 429 514 299 c 2
 514 0 l 1
 469 0 l 1
 469 293 l 2
 469 400 429 452 334 452 c 0
 266 452 219 417 150 344 c 1
 150 0 l 1
 105 0 l 1xd8
EndSplineSet
Substitution2: "'sups' Superscript in Latin lookup 12 subtable" n.sups
Substitution2: "'aalt' Access All Alternates in Latin lookup 0 subtable" n.sups
EndChar

StartChar: o
Encoding: 111 111 42
Width: 600
GlyphClass: 2
Flags: MW
HStem: -12 39<246 354 246 363> 453 39<246 354>
VStem: 67 47<176 302.5 176 319.5> 486 47<176 302.5>
AnchorPoint: "Anchor-4" 347 0 basechar 0
AnchorPoint: "Anchor-3" 412 480 basechar 0
AnchorPoint: "Anchor-2" 300 -22 basechar 0
AnchorPoint: "Anchor-0" 300 502 basechar 0
LayerCount: 2
Fore
SplineSet
67 239 m 0
 67 400 174 492 300 492 c 0
 426 492 533 400 533 239 c 0
 533 80 426 -12 300 -12 c 0
 174 -12 67 80 67 239 c 0
114 239 m 0
 114 113 192 27 300 27 c 0
 408 27 486 113 486 239 c 0
 486 366 408 453 300 453 c 0
 192 453 114 366 114 239 c 0
EndSplineSet
Substitution2: "'sups' Superscript in Latin lookup 12 subtable" o.sups
Substitution2: "'aalt' Access All Alternates in Latin lookup 0 subtable" o.sups
EndChar

StartChar: p
Encoding: 112 112 43
Width: 600
GlyphClass: 2
Flags: MW
HStem: -217 21G<105 150 105 105> -12 39<287 358.5 287 368> 453 39<298 381> 460 20G<105 143 143 143>
VStem: 105 45<-217 -42 98 365> 486 47<182 306>
AnchorPoint: "Anchor-2" 131 -218 basechar 0
AnchorPoint: "Anchor-0" 310 502 basechar 0
LayerCount: 2
Fore
SplineSet
149 56 m 1xec
 150 -42 l 1
 150 -217 l 1
 105 -217 l 1
 105 480 l 1
 143 480 l 1xdc
 148 411 l 1
 150 411 l 1
 198 457 267 492 329 492 c 0
 465 492 533 396 533 247 c 0
 533 84 428 -12 308 -12 c 0
 262 -12 198 13 149 56 c 1xec
150 98 m 1
 206 47 268 27 306 27 c 0
 411 27 486 117 486 247 c 0
 486 365 440 453 322 453 c 0
 272 453 210 425 150 365 c 1xec
 150 98 l 1
EndSplineSet
Substitution2: "'sups' Superscript in Latin lookup 12 subtable" p.sups
Substitution2: "'aalt' Access All Alternates in Latin lookup 0 subtable" p.sups
EndChar

StartChar: q
Encoding: 113 113 44
Width: 600
GlyphClass: 2
Flags: MW
HStem: -217 21G<450 495 450 450> -12 39<231.5 312.5> 453 39<245.5 321> 460 20G<458 495 495 495>
VStem: 67 47<175.5 299.5 175.5 316.5> 450 45<-217 -23 -23 -23 115 382 382 382>
AnchorPoint: "Anchor-2" 451 -218 basechar 0
AnchorPoint: "Anchor-0" 297 502 basechar 0
LayerCount: 2
Fore
SplineSet
67 239 m 0xec
 67 394 174 492 293 492 c 0
 354 492 403 467 451 425 c 1
 453 425 l 1xec
 458 480 l 1
 495 480 l 1xdc
 495 -217 l 1
 450 -217 l 1
 450 -23 l 1
 453 72 l 1
 406 26 346 -12 279 -12 c 0
 153 -12 67 77 67 239 c 0xec
114 239 m 0
 114 112 178 27 285 27 c 0
 341 27 397 59 450 115 c 1
 450 382 l 1
 396 433 346 453 296 453 c 0
 195 453 114 360 114 239 c 0
EndSplineSet
Substitution2: "'sups' Superscript in Latin lookup 12 subtable" q.sups
Substitution2: "'aalt' Access All Alternates in Latin lookup 0 subtable" q.sups
EndChar

StartChar: r
Encoding: 114 114 45
Width: 600
GlyphClass: 2
Flags: MW
HStem: 0 21G<163 163 163 208> 450 42<387 446> 460 20G<163 201 201 201> 472 20
VStem: 163 45<0 300>
AnchorPoint: "Anchor-2" 199 -22 basechar 0
AnchorPoint: "Anchor-0" 343 502 basechar 0
LayerCount: 2
Fore
SplineSet
163 0 m 1xc8
 163 480 l 1
 201 480 l 1xa8
 206 362 l 1
 208 362 l 1
 260 438 338 492 434 492 c 0xc8
 466 492 500 488 530 472 c 1x98
 518 433 l 1
 483 445 465 450 427 450 c 0
 347 450 274 409 208 300 c 1
 208 0 l 1
 163 0 l 1xc8
EndSplineSet
Substitution2: "'sups' Superscript in Latin lookup 12 subtable" r.sups
Substitution2: "'aalt' Access All Alternates in Latin lookup 0 subtable" r.sups
EndChar

StartChar: t
Encoding: 116 116 47
Width: 600
GlyphClass: 2
Flags: MW
HStem: -12 39<349 419> 442 38<80 226 269 525>
VStem: 225 44<180 442>
AnchorPoint: "Anchor-2" 386 -22 basechar 0
AnchorPoint: "Anchor-1" 377 0 basechar 0
AnchorPoint: "Anchor-0" 262 633 basechar 0
LayerCount: 2
Fore
SplineSet
225 180 m 2
 225 442 l 1
 80 442 l 1
 80 476 l 1
 226 480 l 1
 232 619 l 1
 269 619 l 1
 269 480 l 1
 525 480 l 1
 525 442 l 1
 269 442 l 1
 269 176 l 2
 269 83 296 27 402 27 c 0
 453 27 493 36 531 52 c 1
 543 18 l 1
 500 0 442 -12 396 -12 c 0
 265 -12 225 65 225 180 c 2
EndSplineSet
Substitution2: "'sups' Superscript in Latin lookup 12 subtable" t.sups
Substitution2: "'aalt' Access All Alternates in Latin lookup 0 subtable" t.sups
EndChar

StartChar: u
Encoding: 117 117 48
Width: 600
GlyphClass: 2
Flags: MW
HStem: -12 40<218.5 297.5> 0 21G<457 494 457 457> 460 20G<87 131 131 131 450 494 494 494>
VStem: 87 44<181 187 187 480> 450 44<137 480 0 480>
AnchorPoint: "Anchor-2" 322 -22 basechar 0
AnchorPoint: "Anchor-0" 294 502 basechar 0
LayerCount: 2
Fore
SplineSet
494 480 m 1xb8
 494 0 l 1
 457 0 l 1x78
 452 93 l 1
 448 93 l 1
 396 32 336 -12 259 -12 c 0
 142 -12 87 51 87 181 c 2
 87 480 l 1
 131 480 l 1
 131 187 l 2
 131 80 171 28 266 28 c 0
 334 28 384 62 450 137 c 1
 450 480 l 1
 494 480 l 1xb8
EndSplineSet
Substitution2: "'sups' Superscript in Latin lookup 12 subtable" u.sups
Substitution2: "'aalt' Access All Alternates in Latin lookup 0 subtable" u.sups
EndChar

StartChar: v
Encoding: 118 118 49
Width: 600
GlyphClass: 2
Flags: MW
HStem: 0 41<278 304 300 304 300 325> 460 20G<62 108 108 108 495 538 538 538>
VStem: 62 476<480 480>
AnchorPoint: "Anchor-2" 301 -22 basechar 0
AnchorPoint: "Anchor-0" 301 502 basechar 0
LayerCount: 2
Fore
SplineSet
278 0 m 1
 62 480 l 1
 108 480 l 1
 240 179 l 2
 262 131 282 85 300 41 c 1
 304 41 l 1
 323 85 341 131 362 179 c 2
 495 480 l 1
 538 480 l 1
 325 0 l 1
 278 0 l 1
EndSplineSet
Substitution2: "'sups' Superscript in Latin lookup 12 subtable" v.sups
Substitution2: "'aalt' Access All Alternates in Latin lookup 0 subtable" v.sups
EndChar

StartChar: w
Encoding: 119 119 50
Width: 600
GlyphClass: 2
Flags: MW
HStem: 0 41<135 168 164 168 164 192 435 439> 431 41<298 302 298 298> 460 20G<11 58 58 58 545 589 589 589>
VStem: 11 578<480 480>
AnchorPoint: "Anchor-2" 300 -22 basechar 0
AnchorPoint: "Anchor-0" 300 502 basechar 0
LayerCount: 2
Fore
SplineSet
135 0 m 1xb0
 11 480 l 1
 58 480 l 1xb0
 135 169 l 2
 146 125 156 84 164 41 c 1
 168 41 l 1
 179 84 189 125 200 169 c 2
 277 472 l 1
 326 472 l 1xd0
 403 169 l 2
 414 125 424 84 435 41 c 1
 439 41 l 1
 449 84 459 125 469 169 c 2
 545 480 l 1
 589 480 l 1xb0
 467 0 l 1
 410 0 l 1
 334 294 l 2
 323 340 314 384 302 431 c 1
 298 431 l 1xd0
 288 387 279 341 266 292 c 2
 192 0 l 1
 135 0 l 1xb0
EndSplineSet
Substitution2: "'sups' Superscript in Latin lookup 12 subtable" w.sups
Substitution2: "'aalt' Access All Alternates in Latin lookup 0 subtable" w.sups
EndChar

StartChar: x
Encoding: 120 120 51
Width: 600
GlyphClass: 2
Flags: MW
HStem: 0 21G<80 80 80 129 469 469 469 520> 460 20G<95 146 146 146 456 505 505 505>
VStem: 80 440<0 0>
AnchorPoint: "Anchor-2" 300 -22 basechar 0
AnchorPoint: "Anchor-0" 300 502 basechar 0
LayerCount: 2
Fore
SplineSet
80 0 m 1
 272 249 l 1
 95 480 l 1
 146 480 l 1
 239 358 l 2
 258 332 278 304 299 277 c 1
 303 277 l 1
 324 304 347 334 366 360 c 2
 456 480 l 1
 505 480 l 1
 326 247 l 1
 520 0 l 1
 469 0 l 1
 367 130 l 2
 346 157 322 191 299 219 c 1
 295 219 l 1
 272 189 251 161 228 129 c 1
 129 0 l 1
 80 0 l 1
EndSplineSet
Substitution2: "'sups' Superscript in Latin lookup 12 subtable" x.sups
Substitution2: "'aalt' Access All Alternates in Latin lookup 0 subtable" x.sups
EndChar

StartChar: y
Encoding: 121 121 52
Width: 600
GlyphClass: 2
Flags: MW
HStem: -219 41<117.5 163 117.5 175.5> 460 20G<60 106 106 106 497 540 540 540>
VStem: 60 480<480 480>
AnchorPoint: "Anchor-2" 266 -242 basechar 0
AnchorPoint: "Anchor-0" 303 502 basechar 0
LayerCount: 2
Fore
SplineSet
79 -170 m 1
 91 -174 109 -178 126 -178 c 0
 200 -178 247 -124 276 -51 c 2
 293 -9 l 1
 60 480 l 1
 106 480 l 1
 246 178 l 2
 265 138 289 86 312 43 c 1
 316 43 l 1
 335 86 355 137 372 178 c 2
 497 480 l 1
 540 480 l 1
 314 -60 l 1
 286 -140 226 -219 125 -219 c 0
 105 -219 81 -215 67 -209 c 1
 79 -170 l 1
EndSplineSet
Substitution2: "'sups' Superscript in Latin lookup 12 subtable" y.sups
Substitution2: "'aalt' Access All Alternates in Latin lookup 0 subtable" y.sups
EndChar

StartChar: z
Encoding: 122 122 53
Width: 600
GlyphClass: 2
Flags: MW
HStem: 0 39<139 526 139 526> 442 38<112 448 112 515>
VStem: 72 454<0 24 24 24>
AnchorPoint: "Anchor-2" 316 -22 basechar 0
AnchorPoint: "Anchor-0" 319 502 basechar 0
LayerCount: 2
Fore
SplineSet
72 0 m 1
 72 24 l 1
 448 442 l 1
 112 442 l 1
 112 480 l 1
 515 480 l 1
 515 457 l 1
 139 39 l 1
 526 39 l 1
 526 0 l 1
 72 0 l 1
EndSplineSet
Substitution2: "'sups' Superscript in Latin lookup 12 subtable" z.sups
Substitution2: "'aalt' Access All Alternates in Latin lookup 0 subtable" z.sups
EndChar

StartChar: braceleft
Encoding: 123 123 515
Width: 600
Flags: MW
HStem: -152 30<447 453 453 505> 262 32<129 191> 678 30<390.5 505 453 505 453 505>
VStem: 129 103<276 280 276 294 276 294> 269 48
LayerCount: 2
Fore
SplineSet
269 -24 m 0
 269 50 278 112 278 182 c 0
 278 222 253 262 129 262 c 1
 129 294 l 1
 253 294 278 334 278 374 c 0
 278 438 269 512 269 580 c 0
 269 680 330 708 453 708 c 2
 505 708 l 1
 505 678 l 1
 447 678 l 2
 334 678 310 647 310 576 c 0
 310 516 317 448 317 384 c 0
 317 326 298 292 232 280 c 1
 232 276 l 1
 298 264 317 230 317 172 c 0
 317 100 310 46 310 -20 c 0
 310 -91 334 -122 447 -122 c 2
 505 -122 l 1
 505 -152 l 1
 453 -152 l 2
 330 -152 269 -124 269 -24 c 0
EndSplineSet
EndChar

StartChar: bar
Encoding: 124 124 518
Width: 600
Flags: MW
HStem: -250 1000<280 320 280 320>
VStem: 280 40<-250 750 -250 750>
LayerCount: 2
Fore
SplineSet
280 -250 m 1
 280 750 l 1
 320 750 l 1
 320 -250 l 1
 280 -250 l 1
EndSplineSet
EndChar

StartChar: braceright
Encoding: 125 125 516
Width: 600
Flags: MW
HStem: -152 30<95 147 95 153> 262 32<408.5 470> 678 30<95 147 147 153 95 147>
VStem: 284 46 368 102<276 280 280 280>
LayerCount: 2
Fore
SplineSet
95 -122 m 1
 153 -122 l 2
 266 -122 292 -91 292 -20 c 0
 292 46 284 100 284 172 c 0
 284 230 301 264 368 276 c 1
 368 280 l 1
 301 292 284 326 284 384 c 0
 284 448 292 516 292 576 c 0
 292 647 266 678 153 678 c 2
 95 678 l 1
 95 708 l 1
 147 708 l 2
 271 708 330 680 330 580 c 0
 330 512 322 438 322 374 c 0
 322 334 347 294 470 294 c 1
 470 262 l 1
 347 262 322 222 322 182 c 0
 322 112 330 50 330 -24 c 0
 330 -124 271 -152 147 -152 c 2
 95 -152 l 1
 95 -122 l 1
EndSplineSet
EndChar

StartChar: asciitilde
Encoding: 126 126 673
Width: 600
Flags: MW
HStem: 266 38<362.5 408 362.5 411.5> 356 38<192 237.5>
VStem: 91 418<279 379>
LayerCount: 2
Fore
SplineSet
122 267 m 1
 91 279 l 1
 120 368 166 394 211 394 c 0
 287 394 334 304 391 304 c 0
 425 304 452 314 478 393 c 1
 509 379 l 1
 480 292 434 266 389 266 c 0
 313 266 266 356 209 356 c 0
 175 356 148 344 122 267 c 1
EndSplineSet
EndChar

StartChar: exclamdown
Encoding: 161 161 487
Width: 600
Flags: MW
HStem: 366 126<285 315> 472 20G<285 315>
VStem: 242 116<408.5 449> 279 42<-190 -119 -190 -119>
LayerCount: 2
Fore
SplineSet
316 261 m 1x50
 321 -119 l 1
 321 -190 l 1
 279 -190 l 1
 279 -119 l 1
 284 261 l 1
 316 261 l 1x50
358 429 m 0x60
 358 388 330 366 300 366 c 0xa0
 270 366 242 388 242 429 c 0
 242 469 270 492 300 492 c 0
 330 492 358 469 358 429 c 0x60
EndSplineSet
EndChar

StartChar: cent
Encoding: 162 162 634
Width: 600
Flags: MW
HStem: 80 39<350 350> 504 39<350 350>
VStem: 122 46<259 363 259 380> 315 35<-28 80 -28 81 -28 81 121 502 502 502 543 652>
LayerCount: 2
Fore
SplineSet
315 121 m 1
 315 502 l 1
 229 488 168 415 168 311 c 0
 168 207 225 134 315 121 c 1
473 173 m 1
 496 144 l 1
 457 109 408 82 350 80 c 1
 350 -28 l 1
 315 -28 l 1
 315 81 l 1
 203 92 122 174 122 311 c 0
 122 449 209 529 315 541 c 1
 315 652 l 1
 350 652 l 1
 350 543 l 1
 412 541 453 513 484 483 c 1
 460 455 l 1
 430 482 395 502 350 504 c 1
 350 119 l 1
 399 121 441 144 473 173 c 1
EndSplineSet
EndChar

StartChar: sterling
Encoding: 163 163 631
Width: 600
Flags: MW
HStem: 0 40<166 520 166 520> 293 36<189 189 189 201 243 243 243 433> 612 39<296 380>
VStem: 85 81<0 40 27 40> 150 42<455 517.5 454.5 533.5> 212 40<182.5 233.5>
LayerCount: 2
Fore
SplineSet
166 40 m 1xf4
 520 40 l 1
 520 0 l 1
 85 0 l 1
 85 27 l 1
 175 69 212 144 212 221 c 0
 212 246 207 270 201 293 c 1xf4
 81 293 l 1
 81 326 l 1
 189 329 l 1
 172 379 150 429 150 481 c 0
 150 586 226 651 349 651 c 0
 431 651 484 618 518 580 c 1
 489 553 l 1
 456 586 413 612 347 612 c 0
 245 612 192 554 192 481 c 0
 192 428 214 381 232 329 c 1xe8
 433 329 l 1
 433 293 l 1
 243 293 l 1
 248 270 252 247 252 221 c 0
 252 138 222 88 166 44 c 1
 166 40 l 1xf4
EndSplineSet
EndChar

StartChar: currency
Encoding: 164 164 629
Width: 600
Flags: MW
HStem: 137 37<278 321.5> 484 37<278 321.5 278 337>
VStem: 119 44<305 352> 437 44<305 352 305 374>
LayerCount: 2
Fore
SplineSet
98 94 m 1
 71 122 l 1
 156 209 l 1
 133 241 119 282 119 328 c 0
 119 376 133 418 156 450 c 1
 71 538 l 1
 98 566 l 1
 184 477 l 1
 215 505 256 521 300 521 c 0
 343 521 384 505 416 477 c 1
 502 566 l 1
 529 538 l 1
 443 450 l 1
 466 418 481 376 481 328 c 0
 481 282 466 241 443 209 c 1
 529 122 l 1
 502 94 l 1
 416 182 l 1
 385 153 343 137 300 137 c 0
 256 137 215 153 183 182 c 1
 98 94 l 1
163 328 m 0
 163 237 226 174 300 174 c 0
 374 174 437 237 437 328 c 0
 437 420 374 484 300 484 c 0
 226 484 163 420 163 328 c 0
EndSplineSet
EndChar

StartChar: yen
Encoding: 165 165 632
Width: 600
Flags: MW
HStem: 0 199<88 321 88 277> 165 34<88 277 88 277 321 512> 270 33<88 263 88 277 88 263 335 512> 619 20G<65 112 112 112 490 535 535 535>
VStem: 277 44<0 165 0 165 199 270>
LayerCount: 2
Fore
SplineSet
65 639 m 1x78
 112 639 l 1
 222 446 l 2
 247 402 271 358 298 309 c 1
 302 309 l 1
 329 358 353 402 380 446 c 1
 490 639 l 1
 535 639 l 1
 335 303 l 1
 512 303 l 1
 512 270 l 1
 321 270 l 1
 321 199 l 1
 512 199 l 1
 512 165 l 1
 321 165 l 1x78
 321 0 l 1
 277 0 l 1xb8
 277 165 l 1
 88 165 l 1
 88 199 l 1
 277 199 l 1
 277 270 l 1
 88 270 l 1
 88 303 l 1
 263 303 l 1
 65 639 l 1x78
EndSplineSet
EndChar

StartChar: brokenbar
Encoding: 166 166 520
Width: 600
Flags: MW
HStem: -250 1000<280 320 280 320>
VStem: 280 40<-250 220 -250 220 279 750>
LayerCount: 2
Fore
SplineSet
280 279 m 1
 280 750 l 1
 320 750 l 1
 320 279 l 1
 280 279 l 1
280 220 m 1
 320 220 l 1
 320 -250 l 1
 280 -250 l 1
 280 220 l 1
EndSplineSet
EndChar

StartChar: section
Encoding: 167 167 524
Width: 600
Flags: MW
HStem: -52 37<261 324.5 261 332> 643 38<269 329.5>
VStem: 102 41<302.5 381 302.5 384.5> 166 43<546.5 586 501.5 592.5> 394 42<47 89.5 36 138> 457 41<253.5 335>
LayerCount: 2
Fore
SplineSet
372 180 m 1
 426 202 457 226 457 281 c 0
 457 389 315 405 230 460 c 1
 178 434 143 407 143 355 c 0
 143 250 285 236 372 180 c 1
451 628 m 1
 427 597 l 1
 392 623 356 643 303 643 c 0
 235 643 209 605 209 567 c 0
 209 436 498 469 498 284 c 0xf4
 498 217 458 183 403 155 c 1
 423 134 436 107 436 72 c 0
 436 0 370 -52 294 -52 c 0
 221 -52 165 -26 124 11 c 1
 154 39 l 1
 190 7 228 -15 294 -15 c 0
 355 -15 394 24 394 70 c 0
 394 206 102 170 102 352 c 0xec
 102 417 145 456 200 483 c 1
 179 504 166 529 166 564 c 0xf4
 166 621 209 681 302 681 c 0
 361 681 411 658 451 628 c 1
EndSplineSet
EndChar

StartChar: dieresis
Encoding: 168 168 725
Width: 600
Flags: MW
HStem: 598 83<199.5 222.5 377.5 400.5>
VStem: 172 79<627.5 650.5> 349 79<627.5 650.5>
LayerCount: 2
Fore
SplineSet
211 598 m 0
 188 598 172 616 172 639 c 0
 172 662 188 681 211 681 c 0
 234 681 251 662 251 639 c 0
 251 616 234 598 211 598 c 0
389 598 m 0
 366 598 349 616 349 639 c 0
 349 662 366 681 389 681 c 0
 412 681 428 662 428 639 c 0
 428 616 412 598 389 598 c 0
EndSplineSet
EndChar

StartChar: copyright
Encoding: 169 169 526
Width: 600
Flags: MW
HStem: -12 31<231.5 368.5 231.5 377> 124 37<273 327 273 332> 472 37<276 326> 622 30<231.5 368.5>
VStem: 37 35<231.5 412.5 231.5 423> 150 43<272.5 367 272.5 380> 528 35<231.5 412.5>
LayerCount: 2
Fore
SplineSet
37 322 m 0
 37 524 146 652 300 652 c 0
 454 652 563 524 563 322 c 0
 563 120 454 -12 300 -12 c 0
 146 -12 37 120 37 322 c 0
72 322 m 0
 72 141 163 19 300 19 c 0
 437 19 528 141 528 322 c 0
 528 503 437 622 300 622 c 0
 163 622 72 503 72 322 c 0
150 322 m 0
 150 438 225 509 310 509 c 0
 355 509 384 491 410 464 c 1
 387 438 l 1
 363 460 342 472 310 472 c 0
 242 472 193 412 193 322 c 0
 193 223 239 161 307 161 c 0
 347 161 375 179 401 201 c 1
 420 173 l 1
 390 146 359 124 305 124 c 0
 221 124 150 197 150 322 c 0
EndSplineSet
EndChar

StartChar: guillemotleft
Encoding: 171 171 500
Width: 600
Flags: MW
HStem: 68 368<248 248 248 456>
VStem: 106 41<252 252 252 273 252 273> 314 41<252 252 252 273 252 273>
LayerCount: 2
Fore
SplineSet
248 68 m 1
 106 231 l 1
 106 273 l 1
 248 436 l 1
 273 413 l 1
 147 252 l 1
 273 89 l 1
 248 68 l 1
456 68 m 1
 314 231 l 1
 314 273 l 1
 456 436 l 1
 481 413 l 1
 355 252 l 1
 481 89 l 1
 456 68 l 1
EndSplineSet
EndChar

StartChar: logicalnot
Encoding: 172 172 675
Width: 600
Flags: MW
HStem: 311 38<95 505 95 464>
VStem: 464 41<110 311 311 311>
LayerCount: 2
Fore
SplineSet
95 311 m 1
 95 349 l 1
 505 349 l 1
 505 110 l 1
 464 110 l 1
 464 311 l 1
 95 311 l 1
EndSplineSet
EndChar

StartChar: uni00AD
Encoding: 173 173 503
Width: 600
Flags: MW
HStem: 311 38<95 505 95 505>
VStem: 95 410<311 349 311 349>
LayerCount: 2
Fore
SplineSet
95 311 m 1
 95 349 l 1
 505 349 l 1
 505 311 l 1
 95 311 l 1
EndSplineSet
Substitution2: "'ss01' Style Set 1 in Latin lookup 17 subtable" uni00AD.a
Substitution2: "'aalt' Access All Alternates in Latin lookup 0 subtable" uni00AD.a
EndChar

StartChar: registered
Encoding: 174 174 528
Width: 600
Flags: MW
HStem: 324 29<258 342 258 349.5> 494 27<264 293 293 308 264 311 264 293> 596 28<264 296 264 264> 684 28<258 342>
VStem: 118 31<469.5 565 469.5 575.5> 232 32<418 494 521 596> 344 34<547.5 569.5> 451 31<469.5 565>
LayerCount: 2
Fore
SplineSet
300 324 m 0
 200 324 118 401 118 517 c 0
 118 634 200 712 300 712 c 0
 399 712 482 634 482 517 c 0
 482 401 399 324 300 324 c 0
300 353 m 0
 384 353 451 422 451 517 c 0
 451 613 384 684 300 684 c 0
 216 684 149 613 149 517 c 0
 149 422 216 353 300 353 c 0
232 418 m 1
 232 624 l 1
 301 624 l 2
 340 624 378 610 378 560 c 0
 378 535 360 511 338 504 c 1
 387 418 l 1
 350 418 l 1
 311 494 l 1
 264 494 l 1
 264 418 l 1
 232 418 l 1
264 521 m 1
 293 521 l 2
 323 521 344 532 344 558 c 0
 344 581 332 596 296 596 c 2
 264 596 l 1
 264 521 l 1
EndSplineSet
EndChar

StartChar: macron
Encoding: 175 175 726
Width: 600
Flags: MW
HStem: 606 36<187 413 187 413>
VStem: 187 226<606 642 606 642>
LayerCount: 2
Fore
SplineSet
187 606 m 1
 187 642 l 1
 413 642 l 1
 413 606 l 1
 187 606 l 1
EndSplineSet
EndChar

StartChar: degree
Encoding: 176 176 628
Width: 600
Flags: MW
HStem: 447 32<276.5 323.5 276.5 329.5> 653 31<276.5 323.5>
VStem: 186 34<540.5 590.5 540.5 602.5> 380 34<540.5 590.5>
LayerCount: 2
Fore
SplineSet
300 447 m 0
 241 447 186 491 186 565 c 0
 186 640 241 684 300 684 c 0
 359 684 414 640 414 565 c 0
 414 491 359 447 300 447 c 0
300 479 m 0
 347 479 380 516 380 565 c 0
 380 616 347 653 300 653 c 0
 253 653 220 616 220 565 c 0
 220 516 253 479 300 479 c 0
EndSplineSet
EndChar

StartChar: plusminus
Encoding: 177 177 670
Width: 600
Flags: MW
HStem: 0 37<95 505 95 505> 310 37<95 279 95 279 321 505>
VStem: 279 42<109 310 109 310 347 550>
LayerCount: 2
Fore
SplineSet
279 109 m 1
 279 310 l 1
 95 310 l 1
 95 347 l 1
 279 347 l 1
 279 550 l 1
 321 550 l 1
 321 347 l 1
 505 347 l 1
 505 310 l 1
 321 310 l 1
 321 109 l 1
 279 109 l 1
95 0 m 1
 95 37 l 1
 505 37 l 1
 505 0 l 1
 95 0 l 1
EndSplineSet
EndChar

StartChar: two.sups
Encoding: 178 178 540
Width: 600
Flags: MW
HStem: 440 33<255 416 255 416> 720 33<274 312.5>
VStem: 360 39<626.5 673>
LayerCount: 2
Fore
SplineSet
190 440 m 1
 190 464 l 1
 307 559 360 601 360 652 c 0
 360 694 335 720 290 720 c 0
 258 720 229 701 209 674 c 1
 183 695 l 1
 208 727 248 753 292 753 c 0
 360 753 399 718 399 653 c 0
 399 594 336 545 255 473 c 1
 416 473 l 1
 416 440 l 1
 190 440 l 1
EndSplineSet
EndChar

StartChar: three.sups
Encoding: 179 179 541
Width: 600
Flags: MW
HStem: 428 32<278.5 320.5 278.5 330.5> 579 28<263 295.5 263 299.5> 721 32<279.5 314.5>
VStem: 357 39<652.5 684.5> 372 39<497.5 538.5>
LayerCount: 2
Fore
SplineSet
176 489 m 1xe8
 203 513 l 1
 223 483 258 460 299 460 c 0
 342 460 372 477 372 518 c 0xe8
 372 559 336 579 263 579 c 1
 263 607 l 1
 328 607 357 634 357 669 c 0
 357 700 337 721 292 721 c 0
 267 721 234 707 214 683 c 1
 191 706 l 1
 214 735 255 753 297 753 c 0
 356 753 396 725 396 672 c 0xf0
 396 633 376 609 338 595 c 1
 379 587 411 561 411 517 c 0
 411 458 363 428 298 428 c 0
 249 428 201 456 176 489 c 1xe8
EndSplineSet
EndChar

StartChar: acute
Encoding: 180 180 716
Width: 600
Flags: MW
HStem: 572 138<244 389 244 389>
VStem: 244 145<572 710>
LayerCount: 2
Fore
SplineSet
389 710 m 1
 282 572 l 1
 244 572 l 1
 336 710 l 1
 389 710 l 1
EndSplineSet
EndChar

StartChar: uni00B5
Encoding: 181 181 678
Width: 600
Flags: MW
HStem: -11 39<237 293 217 301.5>
VStem: 87 44<137 187 187 480> 450 41<108 108 47.5 480>
LayerCount: 2
Fore
SplineSet
87 -182 m 1
 87 480 l 1
 131 480 l 1
 131 187 l 2
 131 87 170 28 264 28 c 0
 322 28 382 43 450 158 c 1
 450 480 l 1
 494 480 l 1
 493 340 491 195 491 58 c 0
 491 37 502 27 515 27 c 0
 519 27 523 27 533 29 c 1
 540 -7 l 1
 531 -10 522 -12 509 -12 c 0
 466 -12 454 23 452 108 c 1
 450 108 l 1
 400 26 336 -11 267 -11 c 0
 207 -11 158 1 126 58 c 1
 126 -56 127 -97 131 -182 c 1
 87 -182 l 1
EndSplineSet
EndChar

StartChar: paragraph
Encoding: 182 182 525
Width: 600
Flags: MW
HStem: 639 20G<319 363 363 363 419 461 461 461>
VStem: 87 276<376.5 526> 419 42<-80 659 -80 659>
LayerCount: 2
Fore
SplineSet
419 -80 m 1
 419 659 l 1
 461 659 l 1
 461 -80 l 1
 419 -80 l 1
363 659 m 1
 363 244 l 1
 335 244 l 2
 188 244 87 302 87 451 c 0
 87 601 182 659 319 659 c 2
 363 659 l 1
EndSplineSet
EndChar

StartChar: periodcentered
Encoding: 183 183 508
Width: 600
Flags: MW
HStem: 278 131<284.5 315.5>
VStem: 240 120<322.5 364>
LayerCount: 2
Fore
SplineSet
240 343 m 0
 240 385 269 409 300 409 c 0
 331 409 360 385 360 343 c 0
 360 302 331 278 300 278 c 0
 269 278 240 302 240 343 c 0
EndSplineSet
EndChar

StartChar: cedilla
Encoding: 184 184 731
Width: 600
Flags: MW
HStem: -208 210<242 336>
VStem: 328 39<-141 -112>
LayerCount: 2
Fore
SplineSet
261 -74 m 1
 301 2 l 1
 336 2 l 1
 307 -54 l 1
 339 -65 367 -83 367 -123 c 0
 367 -175 306 -200 242 -208 c 1
 235 -178 l 1
 290 -170 328 -155 328 -127 c 0
 328 -97 300 -84 261 -74 c 1
EndSplineSet
EndChar

StartChar: one.sups
Encoding: 185 185 539
Width: 600
Flags: MW
HStem: 681 60<215 335>
VStem: 297 38<440 681 681 681>
LayerCount: 2
Fore
SplineSet
297 440 m 1
 297 681 l 1
 215 681 l 1
 215 710 l 1
 255 717 279 727 304 741 c 1
 335 741 l 1
 335 440 l 1
 297 440 l 1
EndSplineSet
EndChar

StartChar: guillemotright
Encoding: 187 187 501
Width: 600
Flags: MW
HStem: 68 368<144 144 144 352>
VStem: 245 41<252 252> 453 41<252 252>
LayerCount: 2
Fore
SplineSet
119 89 m 1
 245 252 l 1
 119 413 l 1
 144 436 l 1
 286 273 l 1
 286 231 l 1
 144 68 l 1
 119 89 l 1
327 89 m 1
 453 252 l 1
 327 413 l 1
 352 436 l 1
 494 273 l 1
 494 231 l 1
 352 68 l 1
 327 89 l 1
EndSplineSet
EndChar

StartChar: onequarter
Encoding: 188 188 651
Width: 600
Flags: MW
HStem: 0 109<363 516 363 480> 80 29<363 480 363 480 516 565> 257 44<482 484 480 516> 579 29<77 159 77 77> 579 60<77 196>
VStem: 159 37<338 579 579 579> 480 36<0 80 0 80 109 185 185 185 257 257>
LayerCount: 2
Fore
SplineSet
565 596 m 1x6e
 384 399 l 1
 362 419 l 1
 533 624 l 1
 565 596 l 1x6e
159 338 m 1
 159 579 l 1
 77 579 l 1x6e
 77 608 l 1x76
 117 615 140 625 165 639 c 1
 196 639 l 1
 196 338 l 1
 159 338 l 1
35 63 m 1
 216 260 l 1
 238 240 l 1
 67 35 l 1
 35 63 l 1
363 109 m 1
 480 109 l 1
 480 185 l 1
 484 257 l 1
 480 257 l 1
 429 191 l 1
 363 109 l 1
516 301 m 1
 516 109 l 1
 565 109 l 1
 565 80 l 1
 516 80 l 1x6e
 516 0 l 1
 480 0 l 1xae
 480 80 l 1
 316 80 l 1
 316 100 l 1
 482 301 l 1
 516 301 l 1
EndSplineSet
EndChar

StartChar: onehalf
Encoding: 189 189 652
Width: 600
Flags: MW
HStem: 0 33<393 555 393 555> 280 33<412 450.5> 579 29<77 159 77 77> 579 60<77 196>
VStem: 159 37<338 579 579 579> 499 39<186.5 233>
LayerCount: 2
Fore
SplineSet
159 338 m 1xdc
 159 579 l 1
 77 579 l 1xdc
 77 608 l 1xec
 117 615 140 625 165 639 c 1
 196 639 l 1
 196 338 l 1
 159 338 l 1xdc
67 35 m 1
 35 63 l 1
 216 260 l 1
 238 240 l 1
 67 35 l 1
533 624 m 1
 565 596 l 1
 384 399 l 1
 362 419 l 1
 533 624 l 1
329 0 m 1
 329 24 l 1
 445 119 499 161 499 212 c 0
 499 254 473 280 428 280 c 0
 396 280 367 261 348 234 c 1
 321 255 l 1
 347 287 386 313 430 313 c 0
 498 313 538 278 538 213 c 0
 538 154 475 105 393 33 c 1
 555 33 l 1
 555 0 l 1
 329 0 l 1
EndSplineSet
EndChar

StartChar: threequarters
Encoding: 190 190 653
Width: 600
Flags: MW
HStem: 0 109<363 516 363 480> 80 29<363 480 363 480 516 565> 257 44<482 484 480 516> 326 32<140 181.5 140 192.5> 477 28<125 157.5 125 161.5> 619 32<141.5 176.5>
VStem: 218 39<550.5 582.5> 234 39<395.5 436.5> 480 36<0 80 0 80 109 185 185 185 257 257>
LayerCount: 2
Fore
SplineSet
601 596 m 1x5d80
 420 399 l 1
 398 419 l 1
 569 624 l 1
 601 596 l 1x5d80
75 581 m 1
 53 604 l 1
 76 633 117 651 158 651 c 0
 217 651 257 622 257 570 c 0x7e80
 257 531 238 507 200 493 c 1
 241 485 273 459 273 415 c 0
 273 356 225 326 160 326 c 0
 111 326 63 354 38 387 c 1
 64 411 l 1
 84 381 120 358 160 358 c 0
 203 358 234 375 234 416 c 0x5d80
 234 457 198 477 125 477 c 1
 125 505 l 1
 190 505 218 532 218 567 c 0
 218 598 199 619 154 619 c 0x5e80
 129 619 95 605 75 581 c 1
71 63 m 1
 252 260 l 1
 274 240 l 1
 103 35 l 1
 71 63 l 1
363 109 m 1
 480 109 l 1
 480 185 l 1
 484 257 l 1
 480 257 l 1
 429 191 l 1
 363 109 l 1
516 301 m 1
 516 109 l 1
 565 109 l 1
 565 80 l 1
 516 80 l 1x5d80
 516 0 l 1
 480 0 l 1x9d80
 480 80 l 1
 316 80 l 1
 316 100 l 1
 482 301 l 1
 516 301 l 1
EndSplineSet
EndChar

StartChar: questiondown
Encoding: 191 191 489
Width: 600
Flags: MW
HStem: -202 39<265.5 339 265.5 346> 366 126<301 331> 472 20G<301 331>
VStem: 134 45<-77.5 13 -77.5 16> 258 116<408.5 449>
LayerCount: 2
Fore
SplineSet
345 261 m 1xb8
 371 113 179 72 179 -46 c 0
 179 -109 220 -163 311 -163 c 0
 367 -163 418 -139 457 -99 c 1
 486 -126 l 1
 444 -169 384 -202 308 -202 c 0
 199 -202 134 -136 134 -50 c 0
 134 82 326 123 305 261 c 1
 345 261 l 1xb8
374 429 m 0
 374 388 346 366 316 366 c 0xd8
 286 366 258 388 258 429 c 0
 258 469 286 492 316 492 c 0
 346 492 374 469 374 429 c 0
EndSplineSet
EndChar

StartChar: Agrave
Encoding: 192 192 54
Width: 600
Flags: MW
HStem: 0 21G<45 91 45 45 506 555 506 506> 226 39<183 417 183 430 169 417> 616 43<298 302 298 298> 709 106<187 337 187 297>
VStem: 45 510<0 0>
LayerCount: 2
Fore
SplineSet
337 709 m 1
 297 709 l 1
 187 815 l 1
 245 815 l 1
 337 709 l 1
183 265 m 1
 417 265 l 1
 375 388 l 2
 348 466 325 535 302 616 c 1
 298 616 l 1
 275 535 251 466 225 388 c 2
 183 265 l 1
506 0 m 1
 430 226 l 1
 169 226 l 1
 91 0 l 1
 45 0 l 1
 277 659 l 1
 323 659 l 1
 555 0 l 1
 506 0 l 1
EndSplineSet
EndChar

StartChar: Aacute
Encoding: 193 193 55
Width: 600
Flags: MW
HStem: 0 21G<45 91 45 45 506 555 506 506> 226 39<183 417 183 430 169 417> 616 43<298 302 298 298> 709 106<263 413 263 413>
VStem: 45 510<0 0>
LayerCount: 2
Fore
SplineSet
413 815 m 1
 303 709 l 1
 263 709 l 1
 355 815 l 1
 413 815 l 1
183 265 m 1
 417 265 l 1
 375 388 l 2
 348 466 325 535 302 616 c 1
 298 616 l 1
 275 535 251 466 225 388 c 2
 183 265 l 1
506 0 m 1
 430 226 l 1
 169 226 l 1
 91 0 l 1
 45 0 l 1
 277 659 l 1
 323 659 l 1
 555 0 l 1
 506 0 l 1
EndSplineSet
EndChar

StartChar: Acircumflex
Encoding: 194 194 56
Width: 600
Flags: MW
HStem: 0 21G<45 91 45 45 506 555 506 506> 226 39<183 417 183 430 169 417> 616 43<298 302 298 298> 781 34<298 298 298 302>
VStem: 45 510<0 0>
LayerCount: 2
Fore
SplineSet
298 781 m 1
 223 709 l 1
 183 709 l 1
 279 815 l 1
 321 815 l 1
 417 709 l 1
 377 709 l 1
 302 781 l 1
 298 781 l 1
183 265 m 1
 417 265 l 1
 375 388 l 2
 348 466 325 535 302 616 c 1
 298 616 l 1
 275 535 251 466 225 388 c 2
 183 265 l 1
506 0 m 1
 430 226 l 1
 169 226 l 1
 91 0 l 1
 45 0 l 1
 277 659 l 1
 323 659 l 1
 555 0 l 1
 506 0 l 1
EndSplineSet
EndChar

StartChar: Atilde
Encoding: 195 195 57
Width: 600
Flags: MW
HStem: 0 21G<45 91 45 45 506 555 506 506> 226 39<183 417 183 430 169 417> 616 43<298 302 298 298> 716 36<339.5 370.5 339.5 381.5> 773 35<229.5 260.5>
VStem: 170 29<716 716> 401 29<808 808>
LayerCount: 2
Fore
SplineSet
401 808 m 1
 430 808 l 1
 427 764 404 716 359 716 c 0xfe
 306 716 281 773 240 773 c 0
 219 773 203 750 199 716 c 1
 170 716 l 1
 173 761 196 808 241 808 c 0xee
 294 808 319 752 360 752 c 0
 381 752 397 774 401 808 c 1
183 265 m 1
 417 265 l 1
 375 388 l 2
 348 466 325 535 302 616 c 1
 298 616 l 1
 275 535 251 466 225 388 c 2
 183 265 l 1
506 0 m 1
 430 226 l 1
 169 226 l 1
 91 0 l 1
 45 0 l 1
 277 659 l 1
 323 659 l 1
 555 0 l 1
 506 0 l 1
EndSplineSet
EndChar

StartChar: Adieresis
Encoding: 196 196 58
Width: 600
Flags: MW
HStem: 0 21G<45 91 45 45 506 555 506 506> 226 39<183 417 183 430 169 417> 616 43<298 302 298 298> 725 73<210.5 231.5 368.5 389.5>
VStem: 185 73<750 772.5> 342 73<750 772.5>
LayerCount: 2
Fore
SplineSet
379 725 m 0
 358 725 342 739 342 761 c 0
 342 784 358 798 379 798 c 0
 400 798 415 784 415 761 c 0
 415 739 400 725 379 725 c 0
221 725 m 0
 200 725 185 739 185 761 c 0
 185 784 200 798 221 798 c 0
 242 798 258 784 258 761 c 0
 258 739 242 725 221 725 c 0
183 265 m 1
 417 265 l 1
 375 388 l 2
 348 466 325 535 302 616 c 1
 298 616 l 1
 275 535 251 466 225 388 c 2
 183 265 l 1
506 0 m 1
 430 226 l 1
 169 226 l 1
 91 0 l 1
 45 0 l 1
 277 659 l 1
 323 659 l 1
 555 0 l 1
 506 0 l 1
EndSplineSet
EndChar

StartChar: Aring
Encoding: 197 197 61
Width: 600
Flags: MW
HStem: 0 21G<45 91 45 45 506 555 506 506> 226 39<183 417 183 430 169 417> 616 43<298 302 298 298> 700 26<285.5 313.5 285.5 322.5> 838 26<285.5 313.5>
VStem: 218 30<763.5 799.5 763.5 806.5> 351 31<763.5 799.5>
LayerCount: 2
Fore
SplineSet
300 838 m 0
 271 838 248 817 248 782 c 0
 248 745 271 726 300 726 c 0
 327 726 351 745 351 782 c 0
 351 817 327 838 300 838 c 0
300 700 m 0
 253 700 218 732 218 782 c 0
 218 831 253 864 300 864 c 0
 345 864 382 831 382 782 c 0
 382 732 345 700 300 700 c 0
183 265 m 1
 417 265 l 1
 375 388 l 2
 348 466 325 535 302 616 c 1
 298 616 l 1
 275 535 251 466 225 388 c 2
 183 265 l 1
506 0 m 1
 430 226 l 1
 169 226 l 1
 91 0 l 1
 45 0 l 1
 277 659 l 1
 323 659 l 1
 555 0 l 1
 506 0 l 1
EndSplineSet
EndChar

StartChar: AE
Encoding: 198 198 76
Width: 600
GlyphClass: 2
Flags: MW
HStem: 0 40<365 589 365 589> 217 38<159 321 159 321 143 321> 330 40<365 528 365 528> 619 40<317 321 317 317 365 365 365 579>
VStem: 321 44<40 40 40 217 217 217 255 330 370 619>
AnchorPoint: "Anchor-0" 475 694 basechar 0
LayerCount: 2
Fore
SplineSet
159 255 m 1
 321 255 l 1
 321 619 l 1
 317 619 l 1
 285 543 251 468 217 389 c 2
 159 255 l 1
365 40 m 1
 589 40 l 1
 589 0 l 1
 321 0 l 1
 321 217 l 1
 143 217 l 1
 50 0 l 1
 0 0 l 1
 290 659 l 1
 579 659 l 1
 579 619 l 1
 365 619 l 1
 365 370 l 1
 528 370 l 1
 528 330 l 1
 365 330 l 1
 365 40 l 1
EndSplineSet
EndChar

StartChar: Ccedilla
Encoding: 199 199 78
Width: 600
Flags: MW
HStem: -11 41<324 324> 629 42<282.5 385>
VStem: 72 48<239.5 422.5 239.5 435.5> 358 39<-141 -112>
LayerCount: 2
Fore
SplineSet
517 111 m 1
 544 82 l 1
 496 26 439 -9 359 -12 c 1
 337 -54 l 1
 369 -65 397 -83 397 -123 c 0
 397 -175 336 -200 272 -208 c 1
 265 -178 l 1
 320 -170 358 -155 358 -127 c 0
 358 -97 330 -84 291 -74 c 1
 324 -11 l 1
 175 2 72 132 72 331 c 0
 72 540 186 671 355 671 c 0
 431 671 490 633 526 592 c 1
 498 562 l 1
 463 602 415 629 355 629 c 0
 210 629 120 514 120 331 c 0
 120 148 210 30 352 30 c 0
 419 30 469 57 517 111 c 1
EndSplineSet
EndChar

StartChar: Egrave
Encoding: 200 200 87
Width: 600
Flags: MW
HStem: 0 40<173 527 173 527> 330 40<173 463 173 463> 619 40<173 517 173 173> 709 106<223 333 223 373>
VStem: 127 46<40 330 370 619>
LayerCount: 2
Fore
SplineSet
127 0 m 1
 127 659 l 1
 517 659 l 1
 517 619 l 1
 173 619 l 1
 173 370 l 1
 463 370 l 1
 463 330 l 1
 173 330 l 1
 173 40 l 1
 527 40 l 1
 527 0 l 1
 127 0 l 1
333 709 m 1
 223 815 l 1
 281 815 l 1
 373 709 l 1
 333 709 l 1
EndSplineSet
EndChar

StartChar: Eacute
Encoding: 201 201 88
Width: 600
Flags: MW
HStem: 0 40<173 527 173 527> 330 40<173 463 173 463> 619 40<173 517 173 173> 619 196<391 449 391 517>
VStem: 127 46<40 330 370 619>
LayerCount: 2
Fore
SplineSet
127 0 m 1xe8
 127 659 l 1
 517 659 l 1
 517 619 l 1
 173 619 l 1
 173 370 l 1
 463 370 l 1
 463 330 l 1
 173 330 l 1
 173 40 l 1
 527 40 l 1
 527 0 l 1
 127 0 l 1xe8
449 815 m 1xd8
 339 709 l 1
 299 709 l 1
 391 815 l 1
 449 815 l 1xd8
EndSplineSet
EndChar

StartChar: Ecircumflex
Encoding: 202 202 89
Width: 600
Flags: MW
HStem: 0 40<173 527 173 527> 330 40<173 463 173 463> 619 40<173 517 173 173> 781 34<334 338 334 334>
VStem: 127 46<40 330 370 619>
LayerCount: 2
Fore
SplineSet
127 0 m 1
 127 659 l 1
 517 659 l 1
 517 619 l 1
 173 619 l 1
 173 370 l 1
 463 370 l 1
 463 330 l 1
 173 330 l 1
 173 40 l 1
 527 40 l 1
 527 0 l 1
 127 0 l 1
259 709 m 1
 219 709 l 1
 315 815 l 1
 357 815 l 1
 453 709 l 1
 413 709 l 1
 338 781 l 1
 334 781 l 1
 259 709 l 1
EndSplineSet
MultipleSubs2: "Multiple Substitution lookup 2 subtable" E uni0302
EndChar

StartChar: Edieresis
Encoding: 203 203 91
Width: 600
Flags: MW
HStem: 0 40<173 527 173 527> 330 40<173 463 173 463> 619 40<173 517 173 173> 725 73<246.5 267.5 404.5 425.5>
VStem: 127 46<40 330 370 619> 221 73<750 772.5> 378 73<750 772.5>
LayerCount: 2
Fore
SplineSet
127 0 m 1
 127 659 l 1
 517 659 l 1
 517 619 l 1
 173 619 l 1
 173 370 l 1
 463 370 l 1
 463 330 l 1
 173 330 l 1
 173 40 l 1
 527 40 l 1
 527 0 l 1
 127 0 l 1
257 725 m 0
 236 725 221 739 221 761 c 0
 221 784 236 798 257 798 c 0
 278 798 294 784 294 761 c 0
 294 739 278 725 257 725 c 0
415 725 m 0
 394 725 378 739 378 761 c 0
 378 784 394 798 415 798 c 0
 436 798 451 784 451 761 c 0
 451 739 436 725 415 725 c 0
EndSplineSet
EndChar

StartChar: Igrave
Encoding: 204 204 115
Width: 600
Flags: MW
HStem: 0 40<107 277 107 277 323 493> 619 40<107 277 107 493 323 323 323 493> 709 106<187 297 187 337>
VStem: 277 46<40 619 40 619>
LayerCount: 2
Fore
SplineSet
107 0 m 1
 107 40 l 1
 277 40 l 1
 277 619 l 1
 107 619 l 1
 107 659 l 1
 493 659 l 1
 493 619 l 1
 323 619 l 1
 323 40 l 1
 493 40 l 1
 493 0 l 1
 107 0 l 1
297 709 m 1
 187 815 l 1
 245 815 l 1
 337 709 l 1
 297 709 l 1
EndSplineSet
EndChar

StartChar: Iacute
Encoding: 205 205 116
Width: 600
Flags: MW
HStem: 0 40<107 277 107 277 323 493> 619 40<107 277 107 493 323 323 323 493> 709 106<263 413 263 413>
VStem: 277 46<40 619 40 619>
LayerCount: 2
Fore
SplineSet
107 0 m 1
 107 40 l 1
 277 40 l 1
 277 619 l 1
 107 619 l 1
 107 659 l 1
 493 659 l 1
 493 619 l 1
 323 619 l 1
 323 40 l 1
 493 40 l 1
 493 0 l 1
 107 0 l 1
413 815 m 1
 303 709 l 1
 263 709 l 1
 355 815 l 1
 413 815 l 1
EndSplineSet
EndChar

StartChar: Icircumflex
Encoding: 206 206 117
Width: 600
Flags: MW
HStem: 0 40<107 277 107 277 323 493> 619 40<107 277 107 493 323 323 323 493> 781 34<298 302 298 298>
VStem: 277 46<40 619 40 619>
LayerCount: 2
Fore
SplineSet
107 0 m 1
 107 40 l 1
 277 40 l 1
 277 619 l 1
 107 619 l 1
 107 659 l 1
 493 659 l 1
 493 619 l 1
 323 619 l 1
 323 40 l 1
 493 40 l 1
 493 0 l 1
 107 0 l 1
223 709 m 1
 183 709 l 1
 279 815 l 1
 321 815 l 1
 417 709 l 1
 377 709 l 1
 302 781 l 1
 298 781 l 1
 223 709 l 1
EndSplineSet
EndChar

StartChar: Idieresis
Encoding: 207 207 119
Width: 600
Flags: MW
HStem: 0 40<107 277 107 277 323 493> 619 40<107 277 107 493 323 323 323 493> 725 73<210.5 231.5 368.5 389.5>
VStem: 185 73<750 772.5> 277 46<40 619 40 619> 342 73<750 772.5>
LayerCount: 2
Fore
SplineSet
107 0 m 1
 107 40 l 1
 277 40 l 1
 277 619 l 1
 107 619 l 1
 107 659 l 1
 493 659 l 1
 493 619 l 1
 323 619 l 1
 323 40 l 1
 493 40 l 1
 493 0 l 1
 107 0 l 1
221 725 m 0xfc
 200 725 185 739 185 761 c 0
 185 784 200 798 221 798 c 0
 242 798 258 784 258 761 c 0
 258 739 242 725 221 725 c 0xfc
379 725 m 0
 358 725 342 739 342 761 c 0
 342 784 358 798 379 798 c 0
 400 798 415 784 415 761 c 0
 415 739 400 725 379 725 c 0
EndSplineSet
EndChar

StartChar: Ntilde
Encoding: 209 209 140
Width: 600
Flags: MW
HStem: 0 21G<92 92 92 136 460 460 460 508> 0 63<460 470 468 470 468 508> 596 63<130 132 130 130> 639 20G<92 140 140 140 464 508 508 508> 716 36<345.5 376.5 345.5 387.5> 773 35<235.5 266.5>
VStem: 92 44<0 408 0 659> 176 29<716 716> 407 29<808 808> 464 44<254 659 0 659>
LayerCount: 2
Fore
SplineSet
92 0 m 1x9740
 92 659 l 1
 140 659 l 1
 397 193 l 1
 468 63 l 1
 470 63 l 1x5740
 468 127 464 190 464 254 c 2
 464 659 l 1
 508 659 l 1
 508 0 l 1
 460 0 l 1
 203 466 l 1
 132 596 l 1
 130 596 l 1xa740
 132 532 136 472 136 408 c 2
 136 0 l 1
 92 0 l 1x9740
365 716 m 0x9fc0
 312 716 287 773 246 773 c 0
 225 773 209 750 205 716 c 1
 176 716 l 1
 179 761 202 808 247 808 c 0x9740
 300 808 325 752 366 752 c 0
 387 752 403 774 407 808 c 1
 436 808 l 1
 433 764 410 716 365 716 c 0x9fc0
EndSplineSet
EndChar

StartChar: Ograve
Encoding: 210 210 145
Width: 600
Flags: MW
HStem: -12 42<241 359 241 372> 629 42<241 359> 709 106<187 297 187 337>
VStem: 54 48<240.5 423 240.5 436> 498 48<240.5 423>
LayerCount: 2
Fore
SplineSet
300 -12 m 0
 156 -12 54 123 54 332 c 0
 54 540 156 671 300 671 c 0
 444 671 546 540 546 332 c 0
 546 123 444 -12 300 -12 c 0
300 30 m 0
 418 30 498 149 498 332 c 0
 498 514 418 629 300 629 c 0
 182 629 102 514 102 332 c 0
 102 149 182 30 300 30 c 0
297 709 m 1
 187 815 l 1
 245 815 l 1
 337 709 l 1
 297 709 l 1
EndSplineSet
EndChar

StartChar: Oacute
Encoding: 211 211 146
Width: 600
Flags: MW
HStem: -12 42<241 359 241 372> 629 42<241 359> 709 106<263 413 263 413>
VStem: 54 48<240.5 423 240.5 436> 498 48<240.5 423>
LayerCount: 2
Fore
SplineSet
300 -12 m 0
 156 -12 54 123 54 332 c 0
 54 540 156 671 300 671 c 0
 444 671 546 540 546 332 c 0
 546 123 444 -12 300 -12 c 0
300 30 m 0
 418 30 498 149 498 332 c 0
 498 514 418 629 300 629 c 0
 182 629 102 514 102 332 c 0
 102 149 182 30 300 30 c 0
413 815 m 1
 303 709 l 1
 263 709 l 1
 355 815 l 1
 413 815 l 1
EndSplineSet
EndChar

StartChar: Ocircumflex
Encoding: 212 212 147
Width: 600
Flags: MW
HStem: -12 42<241 359 241 372> 629 42<241 359> 781 34<298 302 298 298>
VStem: 54 48<240.5 423 240.5 436> 498 48<240.5 423>
LayerCount: 2
Fore
SplineSet
300 -12 m 0
 156 -12 54 123 54 332 c 0
 54 540 156 671 300 671 c 0
 444 671 546 540 546 332 c 0
 546 123 444 -12 300 -12 c 0
300 30 m 0
 418 30 498 149 498 332 c 0
 498 514 418 629 300 629 c 0
 182 629 102 514 102 332 c 0
 102 149 182 30 300 30 c 0
223 709 m 1
 183 709 l 1
 279 815 l 1
 321 815 l 1
 417 709 l 1
 377 709 l 1
 302 781 l 1
 298 781 l 1
 223 709 l 1
EndSplineSet
MultipleSubs2: "Multiple Substitution lookup 2 subtable" O uni0302
EndChar

StartChar: Otilde
Encoding: 213 213 148
Width: 600
Flags: MW
HStem: -12 42<241 359 241 372> 629 42<241 359> 716 36<339.5 370.5 339.5 381.5> 773 35<229.5 260.5>
VStem: 54 48<240.5 423 240.5 436> 170 29<716 716> 401 29<808 808> 498 48<240.5 423>
LayerCount: 2
Fore
SplineSet
300 -12 m 0
 156 -12 54 123 54 332 c 0
 54 540 156 671 300 671 c 0
 444 671 546 540 546 332 c 0
 546 123 444 -12 300 -12 c 0
300 30 m 0
 418 30 498 149 498 332 c 0
 498 514 418 629 300 629 c 0
 182 629 102 514 102 332 c 0
 102 149 182 30 300 30 c 0
359 716 m 0xff
 306 716 281 773 240 773 c 0
 219 773 203 750 199 716 c 1
 170 716 l 1
 173 761 196 808 241 808 c 0xdf
 294 808 319 752 360 752 c 0
 381 752 397 774 401 808 c 1
 430 808 l 1
 427 764 404 716 359 716 c 0xff
EndSplineSet
EndChar

StartChar: Odieresis
Encoding: 214 214 149
Width: 600
Flags: MW
HStem: -12 42<241 359 241 372> 629 42<241 359> 725 73<210.5 231.5 368.5 389.5>
VStem: 54 48<240.5 423 240.5 436> 185 73<750 772.5> 342 73<750 772.5> 498 48<240.5 423>
LayerCount: 2
Fore
SplineSet
300 -12 m 0
 156 -12 54 123 54 332 c 0
 54 540 156 671 300 671 c 0
 444 671 546 540 546 332 c 0
 546 123 444 -12 300 -12 c 0
300 30 m 0
 418 30 498 149 498 332 c 0
 498 514 418 629 300 629 c 0
 182 629 102 514 102 332 c 0
 102 149 182 30 300 30 c 0
221 725 m 0
 200 725 185 739 185 761 c 0
 185 784 200 798 221 798 c 0
 242 798 258 784 258 761 c 0
 258 739 242 725 221 725 c 0
379 725 m 0
 358 725 342 739 342 761 c 0
 342 784 358 798 379 798 c 0
 400 798 415 784 415 761 c 0
 415 739 400 725 379 725 c 0
EndSplineSet
EndChar

StartChar: multiply
Encoding: 215 215 662
Width: 600
Flags: MW
HStem: 135 390<139 139 139 461>
VStem: 112 376<163 163 163 497>
LayerCount: 2
Fore
SplineSet
139 135 m 1
 112 163 l 1
 273 330 l 1
 112 497 l 1
 139 525 l 1
 300 356 l 1
 461 525 l 1
 488 497 l 1
 327 330 l 1
 488 163 l 1
 461 135 l 1
 300 303 l 1
 139 135 l 1
EndSplineSet
EndChar

StartChar: Oslash
Encoding: 216 216 161
Width: 600
GlyphClass: 2
Flags: MW
HStem: -12 42<273 359 273 372> -2 21G<55 55> 629 42<241 327> 641 20G<543 543>
VStem: 54 48<291.5 423 291.5 436> 498 48<240.5 372>
AnchorPoint: "Anchor-0" 299 681 basechar 0
LayerCount: 2
Fore
SplineSet
455 530 m 1xac
 166 100 l 1
 200 55 246 30 300 30 c 0
 418 30 498 149 498 332 c 0
 498 412 482 480 455 530 c 1xac
145 132 m 1
 434 562 l 1
 400 605 354 629 300 629 c 0
 182 629 102 514 102 332 c 0
 102 251 118 183 145 132 c 1
543 661 m 1x9c
 483 571 l 1
 523 513 546 431 546 332 c 0
 546 123 444 -12 300 -12 c 0
 237 -12 182 14 140 61 c 1
 83 -23 l 1x9c
 55 -2 l 1
 117 90 l 1
 77 150 54 232 54 332 c 0
 54 540 156 671 300 671 c 0
 363 671 418 646 459 601 c 1
 514 682 l 1x6c
 543 661 l 1x9c
EndSplineSet
EndChar

StartChar: Uacute
Encoding: 218 218 190
Width: 600
Flags: MW
HStem: -12 42<256 345 256 355.5> 639 20G<89 135 135 135 468 511 511 511> 709 106<263 413 263 413>
VStem: 89 46<247 252 252 659> 468 43<252 659>
LayerCount: 2
Fore
SplineSet
89 247 m 2
 89 659 l 1
 135 659 l 1
 135 252 l 2
 135 82 212 30 300 30 c 0
 390 30 468 82 468 252 c 2
 468 659 l 1
 511 659 l 1
 511 247 l 2
 511 47 411 -12 300 -12 c 0
 190 -12 89 47 89 247 c 2
413 815 m 1
 303 709 l 1
 263 709 l 1
 355 815 l 1
 413 815 l 1
EndSplineSet
EndChar

StartChar: Udieresis
Encoding: 220 220 193
Width: 600
Flags: MW
HStem: -12 42<256 345 256 355.5> 639 20G<89 135 135 135 468 511 511 511> 725 73<210.5 231.5 368.5 389.5>
VStem: 89 46<247 252 252 659> 185 73<750 772.5> 342 73<750 772.5> 468 43<252 659>
LayerCount: 2
Fore
SplineSet
89 247 m 2
 89 659 l 1
 135 659 l 1
 135 252 l 2
 135 82 212 30 300 30 c 0
 390 30 468 82 468 252 c 2
 468 659 l 1
 511 659 l 1
 511 247 l 2
 511 47 411 -12 300 -12 c 0
 190 -12 89 47 89 247 c 2
221 725 m 0
 200 725 185 739 185 761 c 0
 185 784 200 798 221 798 c 0
 242 798 258 784 258 761 c 0
 258 739 242 725 221 725 c 0
379 725 m 0
 358 725 342 739 342 761 c 0
 342 784 358 798 379 798 c 0
 400 798 415 784 415 761 c 0
 415 739 400 725 379 725 c 0
EndSplineSet
EndChar

StartChar: Yacute
Encoding: 221 221 217
Width: 600
Flags: MW
HStem: 0 21G<277 277 277 323> 639 20G<51 98 98 98 504 549 549 549> 709 106<263 413 263 413>
VStem: 277 46<0 242 0 242>
LayerCount: 2
Fore
SplineSet
277 0 m 1
 277 242 l 1
 51 659 l 1
 98 659 l 1
 215 441 l 1
 245 391 270 339 300 286 c 1
 304 286 l 1
 334 339 362 391 390 442 c 1
 504 659 l 1
 549 659 l 1
 323 242 l 1
 323 0 l 1
 277 0 l 1
413 815 m 1
 303 709 l 1
 263 709 l 1
 355 815 l 1
 413 815 l 1
EndSplineSet
EndChar

StartChar: Thorn
Encoding: 222 222 229
Width: 600
Flags: MW
HStem: 0 21G<118 118 118 164> 166 39<164 286 286 298 164 286> 503 39<164 286 164 298> 503 156<118 286 118 164>
VStem: 118 46<0 166 205 503 542 659> 485 48<304 413>
LayerCount: 2
Fore
SplineSet
118 0 m 1xec
 118 659 l 1
 164 659 l 1xdc
 164 542 l 1
 298 542 l 2
 445 542 533 493 533 358 c 0
 533 229 445 166 298 166 c 2
 164 166 l 1
 164 0 l 1
 118 0 l 1xec
164 205 m 1
 286 205 l 2
 421 205 485 250 485 358 c 0
 485 468 420 503 286 503 c 2
 164 503 l 1xec
 164 205 l 1
EndSplineSet
EndChar

StartChar: germandbls
Encoding: 223 223 363
Width: 600
Flags: MW
HStem: -12 38<380 440.5 380 448> 0 21G<104 104 104 148> 693 38<246.5 322.5>
VStem: 104 44<0 519 0 533 0 594> 287 45<319.5 417 319.5 421.5> 394 45<547 620.5> 515 45<99 193.5>
LayerCount: 2
Fore
SplineSet
104 0 m 1x7e
 104 533 l 2
 104 655 181 731 290 731 c 0
 382 731 439 670 439 595 c 0
 439 492 332 457 332 377 c 0
 332 262 560 294 560 127 c 0
 560 48 493 -12 403 -12 c 0
 346 -12 297 7 257 38 c 1
 280 71 l 1
 320 41 357 26 403 26 c 0
 478 26 515 74 515 124 c 0xbe
 515 263 287 229 287 373 c 0
 287 470 394 502 394 592 c 0
 394 649 357 693 288 693 c 0
 205 693 148 637 148 519 c 2
 148 0 l 1
 104 0 l 1x7e
EndSplineSet
EndChar

StartChar: atilde
Encoding: 227 227 234
Width: 600
Flags: MW
HStem: -12 38<234.5 294.5> 0 21G<467 504 467 467> 453 39<281 372> 581 34<355 383 355 395.5> 637 34<250 279>
VStem: 92 45<87.5 160.5 87.5 173.5> 192 31<581 581> 411 30<671 671> 460 44<72 72 113 267 267 267>
LayerCount: 2
Fore
SplineSet
92 120 m 0xac80
 92 227 200 278 460 301 c 1
 459 380 427 453 317 453 c 0
 245 453 175 416 135 388 c 1
 115 421 l 1
 153 448 237 492 322 492 c 0
 451 492 504 410 504 307 c 2
 504 0 l 1
 467 0 l 1x6c80
 462 72 l 1
 460 72 l 1
 404 28 330 -12 259 -12 c 0
 173 -12 92 29 92 120 c 0xac80
137 122 m 0
 137 53 202 26 267 26 c 0
 328 26 392 56 460 113 c 1
 460 267 l 1
 216 245 137 199 137 122 c 0
192 581 m 1xae80
 196 625 214 671 263 671 c 0xae80
 311 671 338 615 372 615 c 0
 394 615 406 636 411 671 c 1
 441 671 l 1
 438 628 420 581 371 581 c 0xbd80
 323 581 297 637 261 637 c 0
 239 637 227 617 223 581 c 1
 192 581 l 1xae80
EndSplineSet
Substitution2: "'ss02' Style Set 2 in Latin lookup 18 subtable" atilde.a
Substitution2: "'aalt' Access All Alternates in Latin lookup 0 subtable" atilde.a
EndChar

StartChar: adieresis
Encoding: 228 228 235
Width: 600
Flags: MW
HStem: -12 38<234.5 294.5> 0 21G<467 504 467 467> 453 39<281 372> 598 83<216.5 239.5 394 417.5>
VStem: 92 45<87.5 160.5 87.5 173.5> 189 78<627.5 650.5> 366 79<627.5 650.5> 460 44<72 72 113 267 267 267>
LayerCount: 2
Fore
SplineSet
92 120 m 0xa9
 92 227 200 278 460 301 c 1
 459 380 427 453 317 453 c 0
 245 453 175 416 135 388 c 1
 115 421 l 1
 153 448 237 492 322 492 c 0
 451 492 504 410 504 307 c 2
 504 0 l 1
 467 0 l 1x69
 462 72 l 1
 460 72 l 1
 404 28 330 -12 259 -12 c 0
 173 -12 92 29 92 120 c 0xa9
137 122 m 0
 137 53 202 26 267 26 c 0
 328 26 392 56 460 113 c 1
 460 267 l 1
 216 245 137 199 137 122 c 0
228 598 m 0xbf
 205 598 189 616 189 639 c 0
 189 662 205 681 228 681 c 0
 251 681 267 662 267 639 c 0
 267 616 251 598 228 598 c 0xbf
406 598 m 0
 382 598 366 616 366 639 c 0
 366 662 382 681 406 681 c 0
 429 681 445 662 445 639 c 0
 445 616 429 598 406 598 c 0
EndSplineSet
Substitution2: "'ss02' Style Set 2 in Latin lookup 18 subtable" adieresis.a
Substitution2: "'aalt' Access All Alternates in Latin lookup 0 subtable" adieresis.a
EndChar

StartChar: aring
Encoding: 229 229 238
Width: 600
Flags: MW
HStem: -12 38<234.5 294.5> 0 21G<467 504 467 467> 453 39<281 372> 539 26<302.5 331.5 302.5 340.5> 686 26<302.5 331.5>
VStem: 92 45<87.5 160.5 87.5 173.5> 235 29<607 643.5 607 651> 369 30<607 643.5> 460 44<72 72 113 267 267 267>
LayerCount: 2
Fore
SplineSet
92 120 m 0xbf80
 92 227 200 278 460 301 c 1
 459 380 427 453 317 453 c 0
 245 453 175 416 135 388 c 1
 115 421 l 1
 153 448 237 492 322 492 c 0
 451 492 504 410 504 307 c 2
 504 0 l 1
 467 0 l 1x7f80
 462 72 l 1
 460 72 l 1
 404 28 330 -12 259 -12 c 0
 173 -12 92 29 92 120 c 0xbf80
137 122 m 0
 137 53 202 26 267 26 c 0
 328 26 392 56 460 113 c 1
 460 267 l 1
 216 245 137 199 137 122 c 0
317 539 m 0
 270 539 235 574 235 625 c 0
 235 677 270 712 317 712 c 0
 364 712 399 677 399 625 c 0
 399 574 364 539 317 539 c 0
317 565 m 0
 346 565 369 589 369 625 c 0
 369 662 346 686 317 686 c 0
 288 686 264 662 264 625 c 0
 264 589 288 565 317 565 c 0
EndSplineSet
Substitution2: "'ss02' Style Set 2 in Latin lookup 18 subtable" aring.a
Substitution2: "'aalt' Access All Alternates in Latin lookup 0 subtable" aring.a
EndChar

StartChar: ae
Encoding: 230 230 253
Width: 600
Flags: MW
HStem: -12 38<124 170 424.5 482.5> 234 34<321 559 321 597 320 559> 454 38<155 214 423.5 494>
VStem: 17 44<91.5 161.5 91.5 170.5> 279 42<240 268 267 268 268 345> 559 40<273.5 318>
LayerCount: 2
Fore
SplineSet
17 124 m 0
 17 217 107 278 279 301 c 1
 279 389 253 454 175 454 c 0
 135 454 83 431 54 410 c 1
 35 442 l 1
 67 463 122 492 184 492 c 0
 251 492 293 443 308 380 c 1
 339 449 390 492 457 492 c 0
 554 492 599 393 599 280 c 0
 599 267 599 253 597 234 c 1
 320 234 l 1
 321 114 365 26 461 26 c 0
 504 26 540 43 567 60 c 1
 585 29 l 1
 555 9 514 -12 459 -12 c 0
 390 -12 342 25 312 87 c 1
 256 25 197 -12 143 -12 c 0
 70 -12 17 34 17 124 c 0
321 268 m 1
 559 268 l 1
 559 368 534 454 454 454 c 0
 375 454 325 382 321 268 c 1
61 124 m 0
 61 59 97 26 151 26 c 0
 194 26 252 59 296 118 c 1
 286 153 279 195 279 240 c 2
 279 267 l 1
 123 243 61 199 61 124 c 0
EndSplineSet
EndChar

StartChar: ccedilla
Encoding: 231 231 255
Width: 600
Flags: MW
HStem: -208 30<269 275> -11 38<327 327> 453 39<286 379.5>
VStem: 87 47<176 302.5 176 319.5> 361 40<-141 -112>
LayerCount: 2
Fore
SplineSet
363 -12 m 1
 341 -54 l 1
 373 -65 401 -83 401 -123 c 0
 401 -175 340 -200 275 -208 c 1
 269 -178 l 1
 324 -170 361 -155 361 -127 c 0
 361 -97 333 -84 294 -74 c 1
 327 -11 l 1
 188 -4 87 87 87 239 c 0
 87 400 205 492 349 492 c 0
 429 492 482 457 522 419 c 1
 496 389 l 1
 455 427 409 453 350 453 c 0
 222 453 134 366 134 239 c 0
 134 113 220 27 349 27 c 0
 414 27 468 56 511 96 c 1
 534 65 l 1
 489 22 431 -7 363 -12 c 1
EndSplineSet
EndChar

StartChar: eacute
Encoding: 233 233 265
Width: 600
Flags: MW
HStem: -12 38<271.5 366 271.5 372> 234 36<123 489 123 530 123 489> 454 38<270.5 369.5>
VStem: 77 46<234 234 234 270 234 317.5> 489 43<270 330.5>
LayerCount: 2
Fore
SplineSet
77 239 m 0
 77 396 195 492 317 492 c 0
 448 492 532 408 532 270 c 0
 532 258 532 246 530 234 c 1
 123 234 l 1
 125 113 209 26 334 26 c 0
 398 26 449 47 494 78 c 1
 512 44 l 1
 468 16 414 -12 330 -12 c 0
 192 -12 77 82 77 239 c 0
123 270 m 1
 489 270 l 1
 489 391 421 454 318 454 c 0
 223 454 137 384 123 270 c 1
405 710 m 1
 298 572 l 1
 260 572 l 1
 352 710 l 1
 405 710 l 1
EndSplineSet
Substitution2: "'sups' Superscript in Latin lookup 12 subtable" eacute.sups
Substitution2: "'aalt' Access All Alternates in Latin lookup 0 subtable" eacute.sups
EndChar

StartChar: edieresis
Encoding: 235 235 268
Width: 600
Flags: MW
HStem: -12 38<271.5 366 271.5 372> 234 36<123 489 123 530 123 489> 454 38<270.5 369.5> 598 83<216 239.5 393.5 416.5>
VStem: 77 46<234 234 234 270 234 317.5> 188 79<627.5 650.5> 366 79<627.5 650.5> 489 43<270 330.5>
LayerCount: 2
Fore
SplineSet
77 239 m 0
 77 396 195 492 317 492 c 0
 448 492 532 408 532 270 c 0
 532 258 532 246 530 234 c 1
 123 234 l 1
 125 113 209 26 334 26 c 0
 398 26 449 47 494 78 c 1
 512 44 l 1
 468 16 414 -12 330 -12 c 0
 192 -12 77 82 77 239 c 0
123 270 m 1
 489 270 l 1
 489 391 421 454 318 454 c 0
 223 454 137 384 123 270 c 1
228 598 m 0
 204 598 188 616 188 639 c 0
 188 662 204 681 228 681 c 0
 251 681 267 662 267 639 c 0
 267 616 251 598 228 598 c 0
405 598 m 0
 382 598 366 616 366 639 c 0
 366 662 382 681 405 681 c 0
 428 681 445 662 445 639 c 0
 445 616 428 598 405 598 c 0
EndSplineSet
EndChar

StartChar: igrave
Encoding: 236 236 292
Width: 600
Flags: MW
HStem: 0 21G<338 382 338 338> 442 38<97 382 97 338>
VStem: 338 44<0 442 442 442>
LayerCount: 2
Fore
SplineSet
97 442 m 1
 97 480 l 1
 382 480 l 1
 382 0 l 1
 338 0 l 1
 338 442 l 1
 97 442 l 1
367 572 m 1
 260 710 l 1
 313 710 l 1
 405 572 l 1
 367 572 l 1
EndSplineSet
EndChar

StartChar: iacute
Encoding: 237 237 293
Width: 600
Flags: MW
HStem: 0 21G<338 382 338 338> 442 38<97 382 97 338>
VStem: 338 44<0 442 442 442>
LayerCount: 2
Fore
SplineSet
97 442 m 1
 97 480 l 1
 382 480 l 1
 382 0 l 1
 338 0 l 1
 338 442 l 1
 97 442 l 1
439 710 m 1
 331 572 l 1
 294 572 l 1
 385 710 l 1
 439 710 l 1
EndSplineSet
EndChar

StartChar: icircumflex
Encoding: 238 238 294
Width: 600
Flags: MW
HStem: 0 21G<338 382 338 338> 442 38<97 382 97 338> 673 37<347 351 347 347>
VStem: 338 44<0 442 442 442>
LayerCount: 2
Fore
SplineSet
97 442 m 1
 97 480 l 1
 382 480 l 1
 382 0 l 1
 338 0 l 1
 338 442 l 1
 97 442 l 1
235 572 m 1
 330 710 l 1
 369 710 l 1
 464 572 l 1
 426 572 l 1
 351 673 l 1
 347 673 l 1
 272 572 l 1
 235 572 l 1
EndSplineSet
EndChar

StartChar: idieresis
Encoding: 239 239 296
Width: 600
Flags: MW
HStem: 0 21G<338 382 338 338> 442 38<97 382 97 338> 598 83<249 272.5 426.5 449.5>
VStem: 221 79<627.5 650.5> 338 44<0 442 442 442> 399 79<627.5 650.5>
LayerCount: 2
Fore
SplineSet
97 442 m 1
 97 480 l 1
 382 480 l 1
 382 0 l 1
 338 0 l 1
 338 442 l 1
 97 442 l 1
261 598 m 0
 237 598 221 616 221 639 c 0
 221 662 237 681 261 681 c 0
 284 681 300 662 300 639 c 0
 300 616 284 598 261 598 c 0
438 598 m 0xfc
 415 598 399 616 399 639 c 0
 399 662 415 681 438 681 c 0
 461 681 478 662 478 639 c 0
 478 616 461 598 438 598 c 0xfc
EndSplineSet
EndChar

StartChar: eth
Encoding: 240 240 409
Width: 600
Flags: MW
HStem: -12 39<248 364.5 248 368> 404 38<237 330> 704 20G<205 205>
VStem: 67 45<162.5 268.5 162.5 285> 482 45<188.5 260>
LayerCount: 2
Fore
SplineSet
300 27 m 0
 429 27 482 126 482 251 c 0
 482 269 481 286 480 303 c 1
 427 378 359 404 301 404 c 0
 173 404 112 318 112 219 c 0
 112 106 196 27 300 27 c 0
504 676 m 1
 381 612 l 1
 469 530 527 418 527 252 c 0
 527 92 437 -12 299 -12 c 0
 178 -12 67 75 67 219 c 0
 67 351 159 442 300 442 c 0
 368 442 432 405 474 353 c 1
 457 461 410 535 344 592 c 1
 194 514 l 1
 178 542 l 1
 317 614 l 1
 278 644 233 670 183 694 c 1
 205 724 l 1
 260 699 310 669 355 634 c 1
 489 703 l 1
 504 676 l 1
EndSplineSet
EndChar

StartChar: ntilde
Encoding: 241 241 319
Width: 600
Flags: MW
HStem: 0 21G<105 105 105 150 469 469 469 514> 452 40<302.5 381.5> 460 20G<105 143 143 143> 581 34<358 386 358 397.5> 637 34<253 282>
VStem: 105 45<0 344 0 480> 195 30<581 581> 414 30<671 671> 469 45<0 293 293 299 0 346.5>
LayerCount: 2
Fore
SplineSet
105 0 m 1xce80
 105 480 l 1
 143 480 l 1xae80
 148 388 l 1
 152 388 l 1
 207 447 264 492 341 492 c 0
 458 492 514 429 514 299 c 2
 514 0 l 1
 469 0 l 1
 469 293 l 2
 469 400 429 452 334 452 c 0
 266 452 219 417 150 344 c 1
 150 0 l 1
 105 0 l 1xce80
195 581 m 1
 198 625 217 671 265 671 c 0xce80
 313 671 341 615 375 615 c 0
 397 615 409 636 414 671 c 1
 444 671 l 1
 441 628 422 581 373 581 c 0xdf80
 325 581 300 637 264 637 c 0
 242 637 230 617 225 581 c 1
 195 581 l 1
EndSplineSet
EndChar

StartChar: oacute
Encoding: 243 243 326
Width: 600
Flags: MW
HStem: -12 39<246 354 246 363> 453 39<246 354>
VStem: 67 47<176 302.5 176 319.5> 486 47<176 302.5>
LayerCount: 2
Fore
SplineSet
67 239 m 0
 67 400 174 492 300 492 c 0
 426 492 533 400 533 239 c 0
 533 80 426 -12 300 -12 c 0
 174 -12 67 80 67 239 c 0
114 239 m 0
 114 113 192 27 300 27 c 0
 408 27 486 113 486 239 c 0
 486 366 408 453 300 453 c 0
 192 453 114 366 114 239 c 0
389 710 m 1
 282 572 l 1
 244 572 l 1
 336 710 l 1
 389 710 l 1
EndSplineSet
EndChar

StartChar: ocircumflex
Encoding: 244 244 327
Width: 600
Flags: MW
HStem: -12 39<246 354 246 363> 453 39<246 354> 673 37<298 302 298 298>
VStem: 67 47<176 302.5 176 319.5> 486 47<176 302.5>
LayerCount: 2
Fore
SplineSet
67 239 m 0
 67 400 174 492 300 492 c 0
 426 492 533 400 533 239 c 0
 533 80 426 -12 300 -12 c 0
 174 -12 67 80 67 239 c 0
114 239 m 0
 114 113 192 27 300 27 c 0
 408 27 486 113 486 239 c 0
 486 366 408 453 300 453 c 0
 192 453 114 366 114 239 c 0
185 572 m 1
 280 710 l 1
 320 710 l 1
 415 572 l 1
 377 572 l 1
 302 673 l 1
 298 673 l 1
 223 572 l 1
 185 572 l 1
EndSplineSet
MultipleSubs2: "Multiple Substitution lookup 2 subtable" o uni0302
EndChar

StartChar: otilde
Encoding: 245 245 328
Width: 600
Flags: MW
HStem: -12 39<246 354 246 363> 453 39<246 354> 581 34<339 366.5 339 378.5> 637 34<233.5 262>
VStem: 67 47<176 302.5 176 319.5> 176 30<581 581> 394 30<671 671> 486 47<176 302.5>
LayerCount: 2
Fore
SplineSet
67 239 m 0
 67 400 174 492 300 492 c 0
 426 492 533 400 533 239 c 0
 533 80 426 -12 300 -12 c 0
 174 -12 67 80 67 239 c 0
114 239 m 0
 114 113 192 27 300 27 c 0
 408 27 486 113 486 239 c 0
 486 366 408 453 300 453 c 0
 192 453 114 366 114 239 c 0
176 581 m 1
 179 625 197 671 246 671 c 0xdf
 294 671 322 615 356 615 c 0
 377 615 390 636 394 671 c 1
 424 671 l 1
 421 628 403 581 354 581 c 0xff
 306 581 280 637 244 637 c 0
 223 637 210 617 206 581 c 1
 176 581 l 1
EndSplineSet
EndChar

StartChar: odieresis
Encoding: 246 246 329
Width: 600
Flags: MW
HStem: -12 39<246 354 246 363> 453 39<246 354> 598 83<199.5 222.5 377.5 400.5>
VStem: 67 47<176 302.5 176 319.5> 172 79<627.5 650.5> 349 79<627.5 650.5> 486 47<176 302.5>
LayerCount: 2
Fore
SplineSet
67 239 m 0
 67 400 174 492 300 492 c 0
 426 492 533 400 533 239 c 0
 533 80 426 -12 300 -12 c 0
 174 -12 67 80 67 239 c 0
114 239 m 0
 114 113 192 27 300 27 c 0
 408 27 486 113 486 239 c 0
 486 366 408 453 300 453 c 0
 192 453 114 366 114 239 c 0
211 598 m 0
 188 598 172 616 172 639 c 0
 172 662 188 681 211 681 c 0
 234 681 251 662 251 639 c 0
 251 616 234 598 211 598 c 0
389 598 m 0
 366 598 349 616 349 639 c 0
 349 662 366 681 389 681 c 0
 412 681 428 662 428 639 c 0
 428 616 412 598 389 598 c 0
EndSplineSet
EndChar

StartChar: divide
Encoding: 247 247 663
Width: 600
Flags: MW
HStem: 109 80<289.5 310.5> 311 38<95 505 95 505> 469 80<289.5 310.5>
VStem: 262 76<137.5 161.5 497.5 521.5>
LayerCount: 2
Fore
SplineSet
300 469 m 0
 279 469 262 485 262 510 c 0
 262 533 279 549 300 549 c 0
 321 549 338 533 338 510 c 0
 338 485 321 469 300 469 c 0
262 150 m 0
 262 173 279 189 300 189 c 0
 321 189 338 173 338 150 c 0
 338 125 321 109 300 109 c 0
 279 109 262 125 262 150 c 0
95 311 m 1
 95 349 l 1
 505 349 l 1
 505 311 l 1
 95 311 l 1
EndSplineSet
EndChar

StartChar: oslash
Encoding: 248 248 341
Width: 600
GlyphClass: 2
Flags: MW
HStem: -12 38<276 354 276 363> -1 21G<69 69> 454 38<246 324> 460 20G<531 531>
VStem: 67 47<211 302.5 211 319.5> 486 47<176 267>
AnchorPoint: "Anchor-0" 300 502 basechar 0
LayerCount: 2
Fore
SplineSet
444 380 m 1xac
 178 73 l 1
 210 43 252 26 300 26 c 0
 408 26 486 113 486 239 c 0
 486 295 471 344 444 380 c 1xac
156 99 m 1
 422 406 l 1
 390 436 348 454 300 454 c 0
 192 454 114 366 114 239 c 0
 114 183 129 135 156 99 c 1
531 480 m 1x9c
 474 415 l 1
 511 372 533 313 533 239 c 0
 533 80 426 -12 300 -12 c 0
 244 -12 191 6 150 41 c 1
 95 -22 l 1x9c
 69 -1 l 1
 126 65 l 1
 90 107 67 166 67 239 c 0
 67 400 174 492 300 492 c 0
 357 492 410 473 450 438 c 1
 505 501 l 1x6c
 531 480 l 1x9c
EndSplineSet
EndChar

StartChar: ugrave
Encoding: 249 249 370
Width: 600
Flags: MW
HStem: -12 40<218.5 297.5> 0 21G<457 494 457 457> 460 20G<87 131 131 131 450 494 494 494>
VStem: 87 44<181 187 187 480> 450 44<137 480 0 480>
LayerCount: 2
Fore
SplineSet
494 480 m 1xb8
 494 0 l 1
 457 0 l 1x78
 452 93 l 1
 448 93 l 1
 396 32 336 -12 259 -12 c 0
 142 -12 87 51 87 181 c 2
 87 480 l 1
 131 480 l 1
 131 187 l 2
 131 80 171 28 266 28 c 0
 334 28 384 62 450 137 c 1
 450 480 l 1
 494 480 l 1xb8
312 572 m 1
 205 710 l 1
 258 710 l 1
 350 572 l 1
 312 572 l 1
EndSplineSet
EndChar

StartChar: uacute
Encoding: 250 250 371
Width: 600
Flags: MW
HStem: -12 40<218.5 297.5> 0 21G<457 494 457 457> 460 20G<87 131 131 131 450 494 494 494>
VStem: 87 44<181 187 187 480> 450 44<137 480 0 480>
LayerCount: 2
Fore
SplineSet
494 480 m 1xb8
 494 0 l 1
 457 0 l 1x78
 452 93 l 1
 448 93 l 1
 396 32 336 -12 259 -12 c 0
 142 -12 87 51 87 181 c 2
 87 480 l 1
 131 480 l 1
 131 187 l 2
 131 80 171 28 266 28 c 0
 334 28 384 62 450 137 c 1
 450 480 l 1
 494 480 l 1xb8
384 710 m 1
 276 572 l 1
 239 572 l 1
 330 710 l 1
 384 710 l 1
EndSplineSet
EndChar

StartChar: ucircumflex
Encoding: 251 251 372
Width: 600
Flags: MW
HStem: -12 40<218.5 297.5> 0 21G<457 494 457 457> 460 20G<87 131 131 131 450 494 494 494> 673 37<292 296 292 292>
VStem: 87 44<181 187 187 480> 450 44<137 480 0 480>
LayerCount: 2
Fore
SplineSet
494 480 m 1xbc
 494 0 l 1
 457 0 l 1x7c
 452 93 l 1
 448 93 l 1
 396 32 336 -12 259 -12 c 0
 142 -12 87 51 87 181 c 2
 87 480 l 1
 131 480 l 1
 131 187 l 2
 131 80 171 28 266 28 c 0
 334 28 384 62 450 137 c 1
 450 480 l 1
 494 480 l 1xbc
180 572 m 1
 274 710 l 1
 314 710 l 1
 409 572 l 1
 371 572 l 1
 296 673 l 1
 292 673 l 1
 217 572 l 1
 180 572 l 1
EndSplineSet
EndChar

StartChar: udieresis
Encoding: 252 252 374
Width: 600
Flags: MW
HStem: -12 40<218.5 297.5> 0 21G<457 494 457 457> 460 20G<87 131 131 131 450 494 494 494> 598 83<193.5 217 371.5 394.5>
VStem: 87 44<181 187 187 480> 166 79<627.5 650.5> 344 78<627.5 650.5> 450 44<137 480 0 480>
LayerCount: 2
Fore
SplineSet
494 480 m 1xb9
 494 0 l 1
 457 0 l 1x7d
 452 93 l 1
 448 93 l 1
 396 32 336 -12 259 -12 c 0
 142 -12 87 51 87 181 c 2
 87 480 l 1
 131 480 l 1
 131 187 l 2
 131 80 171 28 266 28 c 0
 334 28 384 62 450 137 c 1
 450 480 l 1
 494 480 l 1xb9
205 598 m 0
 182 598 166 616 166 639 c 0
 166 662 182 681 205 681 c 0
 229 681 245 662 245 639 c 0
 245 616 229 598 205 598 c 0
383 598 m 0xbb
 360 598 344 616 344 639 c 0
 344 662 360 681 383 681 c 0
 406 681 422 662 422 639 c 0
 422 616 406 598 383 598 c 0xbb
EndSplineSet
EndChar

StartChar: thorn
Encoding: 254 254 410
Width: 600
GlyphClass: 2
Flags: MW
HStem: -217 21G<105 150 105 105> -12 39<286.5 357.5 286.5 367> 453 39<296.5 379.5> 699 20G<105 150 150 150>
VStem: 105 45<-217 -42 98 365 502 719> 486 47<182 306>
AnchorPoint: "Anchor-2" 306 -22 basechar 0
AnchorPoint: "Anchor-0" 131 730 basechar 0
LayerCount: 2
Fore
SplineSet
150 -42 m 1
 150 -217 l 1
 105 -217 l 1
 105 719 l 1
 150 719 l 1
 150 502 l 1
 147 408 l 1
 200 458 265 492 328 492 c 0
 463 492 533 396 533 247 c 0
 533 84 426 -12 308 -12 c 0
 259 -12 199 14 149 56 c 1
 150 -42 l 1
150 98 m 1
 206 47 267 27 306 27 c 0
 409 27 486 117 486 247 c 0
 486 365 438 453 321 453 c 0
 270 453 210 425 150 365 c 1
 150 98 l 1
EndSplineSet
EndChar

StartChar: ydieresis
Encoding: 255 255 400
Width: 600
Flags: MW
HStem: -219 41<117.5 163 117.5 175.5> 460 20G<60 106 106 106 497 540 540 540> 598 83<202.5 225.5 379.5 403>
VStem: 174 79<627.5 650.5> 352 79<627.5 650.5>
LayerCount: 2
Fore
SplineSet
79 -170 m 1
 91 -174 109 -178 126 -178 c 0
 200 -178 247 -124 276 -51 c 2
 293 -9 l 1
 60 480 l 1
 106 480 l 1
 246 178 l 2
 265 138 289 86 312 43 c 1
 316 43 l 1
 335 86 355 137 372 178 c 2
 497 480 l 1
 540 480 l 1
 314 -60 l 1
 286 -140 226 -219 125 -219 c 0
 105 -219 81 -215 67 -209 c 1
 79 -170 l 1
214 598 m 0
 191 598 174 616 174 639 c 0
 174 662 191 681 214 681 c 0
 237 681 253 662 253 639 c 0
 253 616 237 598 214 598 c 0
391 598 m 0
 368 598 352 616 352 639 c 0
 352 662 368 681 391 681 c 0
 415 681 431 662 431 639 c 0
 431 616 415 598 391 598 c 0
EndSplineSet
EndChar

StartChar: amacron
Encoding: 257 257 236
Width: 600
Flags: MW
HStem: -12 38<234.5 294.5> 0 21G<467 504 467 467> 453 39<281 372> 606 36<203 430 203 430>
VStem: 92 45<87.5 160.5 87.5 173.5> 203 227<606 642 606 642> 460 44<72 72 113 267 267 267>
LayerCount: 2
Fore
SplineSet
92 120 m 0xba
 92 227 200 278 460 301 c 1
 459 380 427 453 317 453 c 0
 245 453 175 416 135 388 c 1
 115 421 l 1
 153 448 237 492 322 492 c 0
 451 492 504 410 504 307 c 2
 504 0 l 1
 467 0 l 1x7a
 462 72 l 1
 460 72 l 1
 404 28 330 -12 259 -12 c 0
 173 -12 92 29 92 120 c 0xba
137 122 m 0
 137 53 202 26 267 26 c 0
 328 26 392 56 460 113 c 1
 460 267 l 1
 216 245 137 199 137 122 c 0
203 606 m 1xbe
 203 642 l 1
 430 642 l 1
 430 606 l 1
 203 606 l 1xbe
EndSplineSet
Substitution2: "'ss02' Style Set 2 in Latin lookup 18 subtable" amacron.a
Substitution2: "'aalt' Access All Alternates in Latin lookup 0 subtable" amacron.a
EndChar

StartChar: abreve
Encoding: 259 259 237
Width: 600
Flags: MW
HStem: -12 38<234.5 294.5> 0 21G<467 504 467 467> 453 39<281 372> 576 32<290 344 290 358>
VStem: 92 45<87.5 160.5 87.5 173.5> 197 33<697 697> 404 33<697 697> 460 44<72 72 113 267 267 267>
LayerCount: 2
Fore
SplineSet
92 120 m 0xb9
 92 227 200 278 460 301 c 1
 459 380 427 453 317 453 c 0
 245 453 175 416 135 388 c 1
 115 421 l 1
 153 448 237 492 322 492 c 0
 451 492 504 410 504 307 c 2
 504 0 l 1
 467 0 l 1x79
 462 72 l 1
 460 72 l 1
 404 28 330 -12 259 -12 c 0
 173 -12 92 29 92 120 c 0xb9
137 122 m 0
 137 53 202 26 267 26 c 0
 328 26 392 56 460 113 c 1
 460 267 l 1
 216 245 137 199 137 122 c 0
317 576 m 0xbf
 234 576 203 645 197 697 c 1
 230 697 l 1
 236 653 263 608 317 608 c 0
 371 608 398 653 404 697 c 1
 437 697 l 1
 431 645 399 576 317 576 c 0xbf
EndSplineSet
Substitution2: "'ss02' Style Set 2 in Latin lookup 18 subtable" abreve.a
Substitution2: "'aalt' Access All Alternates in Latin lookup 0 subtable" abreve.a
EndChar

StartChar: Aogonek
Encoding: 260 260 75
Width: 600
GlyphClass: 2
Flags: MW
HStem: -205 37<518.5 536.5> 0 21G<45 91 45 45 506 513 506 506 555 555> 226 39<183 417 183 430 169 417> 616 43<298 302 298 298>
VStem: 441 40<-133.5 -98>
AnchorPoint: "Anchor-0" 300 681 basechar 0
LayerCount: 2
Fore
SplineSet
183 265 m 1
 417 265 l 1
 375 388 l 2
 348 466 325 535 302 616 c 1
 298 616 l 1
 275 535 251 466 225 388 c 2
 183 265 l 1
575 -154 m 1
 591 -181 l 1
 576 -194 547 -205 526 -205 c 0
 479 -205 441 -178 441 -123 c 0
 441 -73 477 -25 513 0 c 1
 506 0 l 1
 430 226 l 1
 169 226 l 1
 91 0 l 1
 45 0 l 1
 277 659 l 1
 323 659 l 1
 555 0 l 1
 513 -27 481 -75 481 -116 c 0
 481 -151 506 -168 531 -168 c 0
 549 -168 561 -164 575 -154 c 1
EndSplineSet
Ligature2: "'ccmp' Glyph Composition/Decomposition in Latin lookup 6 subtable" A uni0328
EndChar

StartChar: aogonek
Encoding: 261 261 252
Width: 600
GlyphClass: 2
Flags: MW
HStem: -203 35<454.5 471.5> -12 21G<216 294.5> -12 38<234.5 294.5> 0 21G<504 504> 453 39<281 372>
VStem: 92 45<87.5 160.5 87.5 173.5> 380 38<-133.5 -96.5> 460 44<72 72 113 267 267 267>
AnchorPoint: "Anchor-0" 317 502 basechar 0
LayerCount: 2
Fore
SplineSet
92 120 m 0xaf
 92 227 200 278 460 301 c 1
 459 380 427 453 317 453 c 0
 245 453 175 416 135 388 c 1
 115 421 l 1
 153 448 237 492 322 492 c 0
 451 492 504 410 504 307 c 2
 504 0 l 1x9f
 454 -25 418 -73 418 -116 c 0
 418 -151 442 -168 467 -168 c 0
 484 -168 497 -164 510 -154 c 1
 526 -180 l 1
 511 -193 482 -203 461 -203 c 0
 415 -203 380 -176 380 -122 c 0
 380 -71 420 -22 467 7 c 1xcf
 462 72 l 1
 460 72 l 1
 404 28 330 -12 259 -12 c 0
 173 -12 92 29 92 120 c 0xaf
137 122 m 0
 137 53 202 26 267 26 c 0
 328 26 392 56 460 113 c 1
 460 267 l 1
 216 245 137 199 137 122 c 0
EndSplineSet
Substitution2: "'ss02' Style Set 2 in Latin lookup 18 subtable" aogonek.a
Ligature2: "'ccmp' Glyph Composition/Decomposition in Latin lookup 6 subtable" a uni0328
Substitution2: "'aalt' Access All Alternates in Latin lookup 0 subtable" aogonek.a
EndChar

StartChar: Cacute
Encoding: 262 262 79
Width: 600
Flags: MW
HStem: -12 42<281 385.5 281 391.5> 629 42<282.5 385> 709 106<306 456 306 456>
VStem: 72 48<239.5 422.5 239.5 435.5>
LayerCount: 2
Fore
SplineSet
72 331 m 0
 72 540 186 671 355 671 c 0
 431 671 490 633 526 592 c 1
 498 562 l 1
 463 602 415 629 355 629 c 0
 210 629 120 514 120 331 c 0
 120 148 210 30 352 30 c 0
 419 30 469 57 517 111 c 1
 544 82 l 1
 494 24 434 -12 349 -12 c 0
 186 -12 72 121 72 331 c 0
456 815 m 1
 347 709 l 1
 306 709 l 1
 399 815 l 1
 456 815 l 1
EndSplineSet
EndChar

StartChar: cacute
Encoding: 263 263 256
Width: 600
Flags: MW
HStem: -12 39<284.5 381.5 284.5 384.5> 453 39<286 379.5>
VStem: 87 47<176 302.5 176 319.5>
LayerCount: 2
Fore
SplineSet
87 239 m 0
 87 400 205 492 349 492 c 0
 429 492 482 457 522 419 c 1
 496 389 l 1
 455 427 409 453 350 453 c 0
 222 453 134 366 134 239 c 0
 134 113 220 27 349 27 c 0
 414 27 468 56 511 96 c 1
 534 65 l 1
 485 19 422 -12 347 -12 c 0
 198 -12 87 80 87 239 c 0
434 710 m 1
 327 572 l 1
 289 572 l 1
 380 710 l 1
 434 710 l 1
EndSplineSet
EndChar

StartChar: Ccircumflex
Encoding: 264 264 80
Width: 600
Flags: MW
HStem: -12 42<281 385.5 281 391.5> 629 42<282.5 385> 781 34<341 345 341 341>
VStem: 72 48<239.5 422.5 239.5 435.5>
LayerCount: 2
Fore
SplineSet
72 331 m 0
 72 540 186 671 355 671 c 0
 431 671 490 633 526 592 c 1
 498 562 l 1
 463 602 415 629 355 629 c 0
 210 629 120 514 120 331 c 0
 120 148 210 30 352 30 c 0
 419 30 469 57 517 111 c 1
 544 82 l 1
 494 24 434 -12 349 -12 c 0
 186 -12 72 121 72 331 c 0
266 709 m 1
 226 709 l 1
 322 815 l 1
 364 815 l 1
 460 709 l 1
 420 709 l 1
 345 781 l 1
 341 781 l 1
 266 709 l 1
EndSplineSet
EndChar

StartChar: cdotaccent
Encoding: 267 267 259
Width: 600
Flags: MW
HStem: -12 39<284.5 381.5 284.5 384.5> 453 39<286 379.5> 596 96<331 357.5>
VStem: 87 47<176 302.5 176 319.5> 297 95<629.5 658.5>
LayerCount: 2
Fore
SplineSet
87 239 m 0
 87 400 205 492 349 492 c 0
 429 492 482 457 522 419 c 1
 496 389 l 1
 455 427 409 453 350 453 c 0
 222 453 134 366 134 239 c 0
 134 113 220 27 349 27 c 0
 414 27 468 56 511 96 c 1
 534 65 l 1
 485 19 422 -12 347 -12 c 0
 198 -12 87 80 87 239 c 0
344 596 m 0
 318 596 297 615 297 644 c 0
 297 673 318 692 344 692 c 0
 371 692 392 673 392 644 c 0
 392 615 371 596 344 596 c 0
EndSplineSet
EndChar

StartChar: Ccaron
Encoding: 268 268 81
Width: 600
Flags: MW
HStem: -12 42<281 385.5 281 391.5> 629 42<282.5 385> 709 34<341 345 341 364 322 345>
VStem: 72 48<239.5 422.5 239.5 435.5>
LayerCount: 2
Fore
SplineSet
72 331 m 0
 72 540 186 671 355 671 c 0
 431 671 490 633 526 592 c 1
 498 562 l 1
 463 602 415 629 355 629 c 0
 210 629 120 514 120 331 c 0
 120 148 210 30 352 30 c 0
 419 30 469 57 517 111 c 1
 544 82 l 1
 494 24 434 -12 349 -12 c 0
 186 -12 72 121 72 331 c 0
420 815 m 1
 460 815 l 1
 364 709 l 1
 322 709 l 1
 226 815 l 1
 266 815 l 1
 341 743 l 1
 345 743 l 1
 420 815 l 1
EndSplineSet
EndChar

StartChar: ccaron
Encoding: 269 269 258
Width: 600
Flags: MW
HStem: -12 39<284.5 381.5 284.5 384.5> 453 39<286 379.5> 572 37<325 346 342 346 342 364>
VStem: 87 47<176 302.5 176 319.5>
LayerCount: 2
Fore
SplineSet
87 239 m 0
 87 400 205 492 349 492 c 0
 429 492 482 457 522 419 c 1
 496 389 l 1
 455 427 409 453 350 453 c 0
 222 453 134 366 134 239 c 0
 134 113 220 27 349 27 c 0
 414 27 468 56 511 96 c 1
 534 65 l 1
 485 19 422 -12 347 -12 c 0
 198 -12 87 80 87 239 c 0
325 572 m 1
 230 710 l 1
 268 710 l 1
 342 609 l 1
 346 609 l 1
 421 710 l 1
 459 710 l 1
 364 572 l 1
 325 572 l 1
EndSplineSet
EndChar

StartChar: Dcaron
Encoding: 270 270 83
Width: 600
Flags: MW
HStem: 0 39<142 243 243 248> 620 39<142 243 142 142> 709 34<298 302 298 321 279 302>
VStem: 96 46<39 39 39 620> 497 48<246 417.5>
LayerCount: 2
Fore
SplineSet
96 0 m 1
 96 659 l 1
 247 659 l 2
 449 659 545 531 545 332 c 0
 545 132 449 0 248 0 c 2
 96 0 l 1
142 39 m 1
 243 39 l 2
 420 39 497 160 497 332 c 0
 497 503 420 620 243 620 c 2
 142 620 l 1
 142 39 l 1
377 815 m 1
 417 815 l 1
 321 709 l 1
 279 709 l 1
 183 815 l 1
 223 815 l 1
 298 743 l 1
 302 743 l 1
 377 815 l 1
EndSplineSet
EndChar

StartChar: dcaron
Encoding: 271 271 260
Width: 600
GlyphClass: 3
Flags: MW
HStem: -12 39<228.5 310 228.5 310> 0 21G<454 492 454 454> 453 39<242.5 318.5> 548 171<448 567 448 540> 699 20G<448 492 492 492>
VStem: 64 47<175.5 299.5 175.5 316.5> 448 44<115 382 382 382 521 719 0 719> 538.5 36.5
LayerCount: 2
Fore
SplineSet
64 239 m 0xaf
 64 394 171 492 291 492 c 0
 352 492 399 467 450 424 c 1
 448 521 l 1
 448 719 l 1
 492 719 l 1
 492 0 l 1
 454 0 l 1x6f
 450 71 l 1
 447 71 l 1
 405 27 344 -12 276 -12 c 0
 150 -12 64 77 64 239 c 0xaf
111 239 m 0
 111 112 175 27 282 27 c 0
 338 27 394 59 448 115 c 1
 448 382 l 1
 393 433 344 453 293 453 c 0
 192 453 111 360 111 239 c 0
567 548 m 1xb7
 540 548 l 1
 537 754 l 1
 575 754 l 1
 575 704 l 1
 567 548 l 1xb7
EndSplineSet
Ligature2: "'ccmp' Glyph Composition/Decomposition in Latin lookup 6 subtable" d uni030C
EndChar

StartChar: Dcroat
Encoding: 272 272 86
Width: 600
Flags: MW
HStem: 0 39<148 249 249 254> 332 33<25 102 148 312> 620 39<148 249 148 148>
VStem: 102 46<39 39 39 332 365 620> 503 48<246 417.5>
LayerCount: 2
Fore
SplineSet
102 0 m 1
 102 332 l 1
 25 332 l 1
 25 361 l 1
 102 365 l 1
 102 659 l 1
 253 659 l 2
 455 659 551 531 551 332 c 0
 551 132 455 0 254 0 c 2
 102 0 l 1
148 39 m 1
 249 39 l 2
 426 39 503 160 503 332 c 0
 503 503 426 620 249 620 c 2
 148 620 l 1
 148 365 l 1
 312 365 l 1
 312 332 l 1
 148 332 l 1
 148 39 l 1
EndSplineSet
EndChar

StartChar: dcroat
Encoding: 273 273 263
Width: 600
Flags: MW
HStem: -12 39<231.5 312.5> 0 21G<457 495 457 457> 433 39<246 321.5> 581 33<266 450 266 450> 581 138<266 495 450 495>
VStem: 67 47<168.5 286 168.5 303.5> 450 45<71 71 115 362 362 362 501 581 0 581 614 719>
LayerCount: 2
Fore
SplineSet
450 115 m 1xb6
 450 362 l 1
 396 413 346 433 297 433 c 0
 195 433 114 343 114 229 c 0
 114 108 178 27 285 27 c 0
 341 27 397 59 450 115 c 1xb6
569 614 m 1
 569 585 l 1
 495 581 l 1
 495 0 l 1
 457 0 l 1x76
 452 71 l 1
 450 71 l 1
 408 27 346 -12 279 -12 c 0
 153 -12 67 73 67 229 c 0
 67 378 174 472 293 472 c 0
 355 472 402 447 453 404 c 1
 450 501 l 1
 450 581 l 1
 266 581 l 1
 266 614 l 1
 450 614 l 1xb6
 450 719 l 1
 495 719 l 1xae
 495 614 l 1
 569 614 l 1
EndSplineSet
EndChar

StartChar: Emacron
Encoding: 274 274 92
Width: 600
Flags: MW
HStem: 0 40<173 527 173 527> 330 40<173 463 173 463> 619 40<173 517 173 173> 734 36<222 450 222 450>
VStem: 127 46<40 330 370 619> 222 228<734 770 734 770>
LayerCount: 2
Fore
SplineSet
127 0 m 1
 127 659 l 1
 517 659 l 1
 517 619 l 1
 173 619 l 1
 173 370 l 1
 463 370 l 1
 463 330 l 1
 173 330 l 1
 173 40 l 1
 527 40 l 1
 527 0 l 1
 127 0 l 1
222 734 m 1
 222 770 l 1
 450 770 l 1
 450 734 l 1
 222 734 l 1
EndSplineSet
EndChar

StartChar: Ebreve
Encoding: 276 276 93
Width: 600
Flags: MW
HStem: 0 40<173 527 173 527> 330 40<173 463 173 463> 619 40<173 517 173 173> 711 32<310 362 310 374>
VStem: 127 46<40 330 370 619> 221 33<815 815>
LayerCount: 2
Fore
SplineSet
127 0 m 1
 127 659 l 1
 517 659 l 1
 517 619 l 1
 173 619 l 1
 173 370 l 1
 463 370 l 1
 463 330 l 1
 173 330 l 1
 173 40 l 1
 527 40 l 1
 527 0 l 1
 127 0 l 1
336 711 m 0
 260 711 227 769 221 815 c 1
 254 815 l 1
 260 780 284 743 336 743 c 0
 388 743 412 780 418 815 c 1
 451 815 l 1
 445 769 412 711 336 711 c 0
EndSplineSet
EndChar

StartChar: Edotaccent
Encoding: 278 278 94
Width: 600
Flags: MW
HStem: 0 40<173 527 173 527> 330 40<173 463 173 463> 619 40<173 517 173 173> 721 80<325 347>
VStem: 127 46<40 330 370 619> 296 80<749.5 773.5>
LayerCount: 2
Fore
SplineSet
127 0 m 1
 127 659 l 1
 517 659 l 1
 517 619 l 1
 173 619 l 1
 173 370 l 1
 463 370 l 1
 463 330 l 1
 173 330 l 1
 173 40 l 1
 527 40 l 1
 527 0 l 1
 127 0 l 1
336 721 m 0
 314 721 296 737 296 762 c 0
 296 785 314 801 336 801 c 0
 358 801 376 785 376 762 c 0
 376 737 358 721 336 721 c 0
EndSplineSet
EndChar

StartChar: Eogonek
Encoding: 280 280 103
Width: 600
GlyphClass: 2
Flags: MW
HStem: -205 37<468 485.5> 0 40<173 463 525 525 525 527> 330 40<173 463 173 463> 619 40<173 517 173 173>
VStem: 127 46<40 330 370 619> 390 40<-133.5 -97>
AnchorPoint: "Anchor-0" 336 681 basechar 0
LayerCount: 2
Fore
SplineSet
127 0 m 1
 127 659 l 1
 517 659 l 1
 517 619 l 1
 173 619 l 1
 173 370 l 1
 463 370 l 1
 463 330 l 1
 173 330 l 1
 173 40 l 1
 527 40 l 1
 527 0 l 1
 525 0 l 1
 480 -9 430 -58 430 -116 c 0
 430 -151 455 -168 481 -168 c 0
 498 -168 510 -164 524 -154 c 1
 540 -181 l 1
 525 -194 496 -205 475 -205 c 0
 428 -205 390 -178 390 -123 c 0
 390 -71 424 -25 463 0 c 1
 127 0 l 1
EndSplineSet
Ligature2: "'ccmp' Glyph Composition/Decomposition in Latin lookup 6 subtable" E uni0328
EndChar

StartChar: eogonek
Encoding: 281 281 280
Width: 600
GlyphClass: 2
Flags: MW
HStem: -203 35<426 443.5> -12 38<271.5 346> 234 36<123 489 123 530 123 489> 454 38<270.5 369.5>
VStem: 77 46<234 234 234 270 234 317.5> 352 38<-133 -95> 489 43<270 330.5>
AnchorPoint: "Anchor-0" 316 502 basechar 0
LayerCount: 2
Fore
SplineSet
494 78 m 1
 512 44 l 1
 419 -23 390 -70 390 -116 c 0
 390 -150 413 -168 439 -168 c 0
 456 -168 468 -164 482 -154 c 1
 498 -180 l 1
 482 -193 454 -203 433 -203 c 0
 387 -203 352 -176 352 -122 c 0
 352 -68 392 -21 424 4 c 1
 389 -10 362 -12 330 -12 c 0
 192 -12 77 82 77 239 c 0
 77 396 195 492 317 492 c 0
 448 492 532 408 532 270 c 0
 532 258 532 246 530 234 c 1
 123 234 l 1
 125 113 209 26 334 26 c 0
 398 26 449 47 494 78 c 1
123 270 m 1
 489 270 l 1
 489 391 421 454 318 454 c 0
 223 454 137 384 123 270 c 1
EndSplineSet
Ligature2: "'ccmp' Glyph Composition/Decomposition in Latin lookup 6 subtable" e uni0328
EndChar

StartChar: Ecaron
Encoding: 282 282 90
Width: 600
Flags: MW
HStem: 0 40<173 527 173 527> 330 40<173 463 173 463> 619 40<173 517 173 173> 619 196<219 259 413 453 219 517 173 259> 709 34<334 338 334 357 315 338>
VStem: 127 46<40 330 370 619>
LayerCount: 2
Fore
SplineSet
127 0 m 1xe4
 127 659 l 1
 517 659 l 1
 517 619 l 1
 173 619 l 1
 173 370 l 1
 463 370 l 1
 463 330 l 1
 173 330 l 1
 173 40 l 1
 527 40 l 1
 527 0 l 1
 127 0 l 1xe4
413 815 m 1xd4
 453 815 l 1xd4
 357 709 l 1
 315 709 l 1xec
 219 815 l 1
 259 815 l 1xd4
 334 743 l 1
 338 743 l 1xec
 413 815 l 1xd4
EndSplineSet
EndChar

StartChar: ecaron
Encoding: 283 283 267
Width: 600
Flags: MW
HStem: -12 38<271.5 366 271.5 372> 234 36<123 489 123 530 123 489> 454 38<270.5 369.5> 572 37<296 318 314 318 314 335>
VStem: 77 46<234 234 234 270 234 317.5> 489 43<270 330.5>
LayerCount: 2
Fore
SplineSet
77 239 m 0
 77 396 195 492 317 492 c 0
 448 492 532 408 532 270 c 0
 532 258 532 246 530 234 c 1
 123 234 l 1
 125 113 209 26 334 26 c 0
 398 26 449 47 494 78 c 1
 512 44 l 1
 468 16 414 -12 330 -12 c 0
 192 -12 77 82 77 239 c 0
123 270 m 1
 489 270 l 1
 489 391 421 454 318 454 c 0
 223 454 137 384 123 270 c 1
296 572 m 1
 201 710 l 1
 239 710 l 1
 314 609 l 1
 318 609 l 1
 393 710 l 1
 430 710 l 1
 335 572 l 1
 296 572 l 1
EndSplineSet
EndChar

StartChar: Gcircumflex
Encoding: 284 284 104
Width: 600
Flags: MW
HStem: -12 42<265 366 265 376.5> 285 39<328 480 328 525> 629 42<270.5 378> 781 34<330 334 330 330>
VStem: 59 48<239.5 422.5 239.5 435.5> 480 45<80 285 285 285>
LayerCount: 2
Fore
SplineSet
59 331 m 0
 59 540 173 671 343 671 c 0
 430 671 484 629 518 592 c 1
 491 562 l 1
 458 599 413 629 343 629 c 0
 198 629 107 514 107 331 c 0
 107 148 193 30 337 30 c 0
 395 30 449 48 480 80 c 1
 480 285 l 1
 328 285 l 1
 328 324 l 1
 525 324 l 1
 525 63 l 1
 485 19 419 -12 334 -12 c 0
 170 -12 59 121 59 331 c 0
255 709 m 1
 215 709 l 1
 311 815 l 1
 353 815 l 1
 449 709 l 1
 409 709 l 1
 334 781 l 1
 330 781 l 1
 255 709 l 1
EndSplineSet
EndChar

StartChar: Gbreve
Encoding: 286 286 105
Width: 600
Flags: MW
HStem: -12 42<265 366 265 376.5> 285 39<328 480 328 525> 629 42<270.5 378> 711 32<306 357.5 306 369.5>
VStem: 59 48<239.5 422.5 239.5 435.5> 217 32<815 815> 480 45<80 285 285 285>
LayerCount: 2
Fore
SplineSet
59 331 m 0
 59 540 173 671 343 671 c 0
 430 671 484 629 518 592 c 1
 491 562 l 1
 458 599 413 629 343 629 c 0
 198 629 107 514 107 331 c 0
 107 148 193 30 337 30 c 0
 395 30 449 48 480 80 c 1
 480 285 l 1
 328 285 l 1
 328 324 l 1
 525 324 l 1
 525 63 l 1
 485 19 419 -12 334 -12 c 0
 170 -12 59 121 59 331 c 0
332 711 m 0
 256 711 223 769 217 815 c 1
 249 815 l 1
 255 780 280 743 332 743 c 0
 383 743 408 780 414 815 c 1
 447 815 l 1
 441 769 407 711 332 711 c 0
EndSplineSet
EndChar

StartChar: Gdotaccent
Encoding: 288 288 106
Width: 600
Flags: MW
HStem: -12 42<265 366 265 376.5> 285 39<328 480 328 525> 629 42<270.5 378> 721 80<321 343>
VStem: 59 48<239.5 422.5 239.5 435.5> 292 80<749.5 773.5> 480 45<80 285 285 285>
LayerCount: 2
Fore
SplineSet
59 331 m 0
 59 540 173 671 343 671 c 0
 430 671 484 629 518 592 c 1
 491 562 l 1
 458 599 413 629 343 629 c 0
 198 629 107 514 107 331 c 0
 107 148 193 30 337 30 c 0
 395 30 449 48 480 80 c 1
 480 285 l 1
 328 285 l 1
 328 324 l 1
 525 324 l 1
 525 63 l 1
 485 19 419 -12 334 -12 c 0
 170 -12 59 121 59 331 c 0
332 721 m 0
 310 721 292 737 292 762 c 0
 292 785 310 801 332 801 c 0
 354 801 372 785 372 762 c 0
 372 737 354 721 332 721 c 0
EndSplineSet
EndChar

StartChar: uni0122
Encoding: 290 290 107
Width: 600
Flags: MW
HStem: -209 30<262 268> -12 42<265 366 265 376.5> 285 39<328 480 328 525> 629 42<270.5 378>
VStem: 59 48<239.5 422.5 239.5 435.5> 354 40<-142.5 -113.5> 480 45<80 285 285 285>
LayerCount: 2
Fore
SplineSet
59 331 m 0
 59 540 173 671 343 671 c 0
 430 671 484 629 518 592 c 1
 491 562 l 1
 458 599 413 629 343 629 c 0
 198 629 107 514 107 331 c 0
 107 148 193 30 337 30 c 0
 395 30 449 48 480 80 c 1
 480 285 l 1
 328 285 l 1
 328 324 l 1
 525 324 l 1
 525 63 l 1
 485 19 419 -12 334 -12 c 0
 170 -12 59 121 59 331 c 0
310 -51 m 1
 365 -62 394 -83 394 -124 c 0
 394 -176 333 -201 268 -209 c 1
 262 -179 l 1
 317 -171 354 -156 354 -129 c 0
 354 -98 326 -86 298 -80 c 1
 310 -51 l 1
EndSplineSet
EndChar

StartChar: Hcircumflex
Encoding: 292 292 111
Width: 600
Flags: MW
HStem: 0 21G<89 89 89 135 465 465 465 511> 330 40<135 465 135 465> 639 20G<89 135 135 135 465 511 511 511> 781 34<298 302 298 298>
VStem: 89 46<0 330 370 659> 465 46<0 330 330 330 370 659 0 659>
LayerCount: 2
Fore
SplineSet
89 0 m 1
 89 659 l 1
 135 659 l 1
 135 370 l 1
 465 370 l 1
 465 659 l 1
 511 659 l 1
 511 0 l 1
 465 0 l 1
 465 330 l 1
 135 330 l 1
 135 0 l 1
 89 0 l 1
223 709 m 1
 183 709 l 1
 279 815 l 1
 321 815 l 1
 417 709 l 1
 377 709 l 1
 302 781 l 1
 298 781 l 1
 223 709 l 1
EndSplineSet
EndChar

StartChar: hcircumflex
Encoding: 293 293 288
Width: 600
Flags: MW
HStem: 0 21G<105 105 105 150 469 469 469 514> 452 40<302.5 381.5> 699 20G<105 150 150 150> 821 33<141 145 141 141>
VStem: 105 45<0 344 511 719> 469 45<0 293 293 299 0 346.5>
LayerCount: 2
Fore
SplineSet
105 0 m 1
 105 719 l 1
 150 719 l 1
 150 511 l 1
 147 385 l 1
 207 447 264 492 341 492 c 0
 458 492 514 429 514 299 c 2
 514 0 l 1
 469 0 l 1
 469 293 l 2
 469 400 429 452 334 452 c 0
 266 452 219 417 150 344 c 1
 150 0 l 1
 105 0 l 1
66 748 m 1
 26 748 l 1
 122 854 l 1
 164 854 l 1
 260 748 l 1
 220 748 l 1
 145 821 l 1
 141 821 l 1
 66 748 l 1
EndSplineSet
EndChar

StartChar: Hbar
Encoding: 294 294 114
Width: 600
Flags: MW
HStem: 0 21G<89 135 89 89 465 511 465 465> 330 40<135 465 135 465> 495 33<14 89 135 465 511 586> 495 164<14 135 14 135 89 465 89 135>
VStem: 89 46<0 330 370 495 528 659> 465 46<0 330 330 330 370 495 0 495 528 659>
LayerCount: 2
Fore
SplineSet
465 370 m 1xec
 465 495 l 1
 135 495 l 1
 135 370 l 1
 465 370 l 1xec
586 528 m 1
 586 495 l 1
 511 495 l 1
 511 0 l 1
 465 0 l 1
 465 330 l 1
 135 330 l 1
 135 0 l 1
 89 0 l 1
 89 495 l 1
 14 495 l 1
 14 524 l 1
 89 528 l 1xec
 89 659 l 1
 135 659 l 1xdc
 135 528 l 1
 465 528 l 1xec
 465 659 l 1
 511 659 l 1xdc
 511 528 l 1
 586 528 l 1
EndSplineSet
EndChar

StartChar: hbar
Encoding: 295 295 291
Width: 600
Flags: MW
HStem: 0 21G<105 150 105 105 469 514 469 469> 432 40<302.5 381.5> 581 33<29 105 150 379> 581 138<29 150 29 150 105 150 105 379>
VStem: 105 45<0 324 491 581 614 719> 469 45<0 273 273 279 0 326.5>
LayerCount: 2
Fore
SplineSet
150 491 m 1xec
 147 365 l 1
 207 427 264 472 341 472 c 0
 458 472 514 409 514 279 c 2
 514 0 l 1
 469 0 l 1
 469 273 l 2
 469 380 429 432 334 432 c 0
 266 432 219 397 150 324 c 1
 150 0 l 1
 105 0 l 1
 105 581 l 1
 29 581 l 1
 29 610 l 1
 105 614 l 1xec
 105 719 l 1
 150 719 l 1xdc
 150 614 l 1
 379 614 l 1
 379 581 l 1
 150 581 l 1
 150 491 l 1xec
EndSplineSet
EndChar

StartChar: Itilde
Encoding: 296 296 118
Width: 600
Flags: MW
HStem: 0 40<107 277 107 277 323 493> 619 40<107 277 107 493 323 323 323 493> 716 36<339.5 370.5 339.5 381.5> 773 35<229.5 260.5>
VStem: 170 29<716 716> 277 46<40 619 40 619> 401 29<808 808>
LayerCount: 2
Fore
SplineSet
107 0 m 1
 107 40 l 1
 277 40 l 1
 277 619 l 1
 107 619 l 1
 107 659 l 1
 493 659 l 1
 493 619 l 1
 323 619 l 1
 323 40 l 1
 493 40 l 1
 493 0 l 1
 107 0 l 1
359 716 m 0xfe
 306 716 281 773 240 773 c 0
 219 773 203 750 199 716 c 1
 170 716 l 1
 173 761 196 808 241 808 c 0xde
 294 808 319 752 360 752 c 0
 381 752 397 774 401 808 c 1
 430 808 l 1
 427 764 404 716 359 716 c 0xfe
EndSplineSet
EndChar

StartChar: itilde
Encoding: 297 297 295
Width: 600
Flags: MW
HStem: 0 21G<338 382 338 338> 442 38<97 382 97 338> 581 34<388 416 388 427.5> 637 34<283 312>
VStem: 225 30<581 581> 338 44<0 442 442 442> 444 30<671 671>
LayerCount: 2
Fore
SplineSet
97 442 m 1
 97 480 l 1
 382 480 l 1
 382 0 l 1
 338 0 l 1
 338 442 l 1
 97 442 l 1
225 581 m 1
 228 625 247 671 295 671 c 0xde
 343 671 371 615 405 615 c 0
 427 615 439 636 444 671 c 1
 474 671 l 1
 471 628 452 581 403 581 c 0xfe
 355 581 330 637 294 637 c 0
 272 637 260 617 255 581 c 1
 225 581 l 1
EndSplineSet
EndChar

StartChar: Imacron
Encoding: 298 298 120
Width: 600
Flags: MW
HStem: 0 40<107 277 107 277 323 493> 619 40<107 277 107 493 323 323 323 493> 734 36<186 414 186 414>
VStem: 277 46<40 619 40 619>
LayerCount: 2
Fore
SplineSet
107 0 m 1
 107 40 l 1
 277 40 l 1
 277 619 l 1
 107 619 l 1
 107 659 l 1
 493 659 l 1
 493 619 l 1
 323 619 l 1
 323 40 l 1
 493 40 l 1
 493 0 l 1
 107 0 l 1
186 734 m 1
 186 770 l 1
 414 770 l 1
 414 734 l 1
 186 734 l 1
EndSplineSet
EndChar

StartChar: imacron
Encoding: 299 299 297
Width: 600
Flags: MW
HStem: 0 21G<338 382 338 338> 442 38<97 382 97 338> 606 36<236 463 236 463>
VStem: 236 227<606 642 606 642> 338 44<0 442 442 442>
LayerCount: 2
Fore
SplineSet
97 442 m 1xe8
 97 480 l 1
 382 480 l 1
 382 0 l 1
 338 0 l 1
 338 442 l 1
 97 442 l 1xe8
236 606 m 1xf0
 236 642 l 1
 463 642 l 1
 463 606 l 1
 236 606 l 1xf0
EndSplineSet
EndChar

StartChar: uni012C
Encoding: 300 300 121
Width: 600
Flags: MW
HStem: 0 40<107 277 107 277 323 493> 619 40<107 277 107 493 323 323 323 493> 711 32<274 326 274 338>
VStem: 185 33<815 815> 277 46<40 619 40 619>
LayerCount: 2
Fore
SplineSet
107 0 m 1
 107 40 l 1
 277 40 l 1
 277 619 l 1
 107 619 l 1
 107 659 l 1
 493 659 l 1
 493 619 l 1
 323 619 l 1
 323 40 l 1
 493 40 l 1
 493 0 l 1
 107 0 l 1
300 711 m 0
 224 711 191 769 185 815 c 1
 218 815 l 1
 224 780 248 743 300 743 c 0
 352 743 376 780 382 815 c 1
 415 815 l 1
 409 769 376 711 300 711 c 0
EndSplineSet
EndChar

StartChar: uni012D
Encoding: 301 301 298
Width: 600
Flags: MW
HStem: 0 21G<338 382 338 338> 442 38<97 382 97 338> 576 32<322 376 322 390.5>
VStem: 230 32<697 697> 338 44<0 442 442 442> 436 33<697 697>
LayerCount: 2
Fore
SplineSet
97 442 m 1
 97 480 l 1
 382 480 l 1
 382 0 l 1
 338 0 l 1
 338 442 l 1
 97 442 l 1
349 576 m 0
 267 576 235 645 230 697 c 1
 262 697 l 1
 268 653 295 608 349 608 c 0
 403 608 430 653 436 697 c 1
 469 697 l 1
 464 645 432 576 349 576 c 0
EndSplineSet
EndChar

StartChar: Iogonek
Encoding: 302 302 126
Width: 600
GlyphClass: 2
Flags: MW
HStem: -205 37<301 319> 0 40<107 277 107 277 107 285 323 493> 619 40<107 277 107 493 323 323 323 493>
VStem: 224 39<-133.5 -96> 277 46<40 619>
AnchorPoint: "Anchor-0" 300 681 basechar 0
LayerCount: 2
Fore
SplineSet
107 0 m 1
 107 40 l 1
 277 40 l 1
 277 619 l 1
 107 619 l 1
 107 659 l 1
 493 659 l 1
 493 619 l 1
 323 619 l 1
 323 40 l 1xe8
 493 40 l 1
 493 0 l 1
 323 0 l 1
 288 -38 263 -72 263 -116 c 0
 263 -151 288 -168 314 -168 c 0
 331 -168 343 -164 357 -154 c 1
 373 -181 l 1
 358 -194 330 -205 308 -205 c 0
 261 -205 224 -178 224 -123 c 0
 224 -69 252 -34 285 0 c 1xf8
 107 0 l 1
EndSplineSet
Ligature2: "'ccmp' Glyph Composition/Decomposition in Latin lookup 6 subtable" I uni0328
EndChar

StartChar: iogonek
Encoding: 303 303 302
Width: 600
GlyphClass: 3
Flags: MW
HStem: -203 35<357 374.5> 0 21G<338 338 338 345 382 382> 442 38<97 338 97 382> 596 96<336 362.5>
VStem: 282 39<-133 -96.5> 302 94<629.5 658.5> 338 44<0 442 442 442>
LayerCount: 2
Fore
SplineSet
338 0 m 1xf2
 338 442 l 1
 97 442 l 1
 97 480 l 1
 382 480 l 1
 382 0 l 1xf2
 349 -34 321 -73 321 -116 c 0
 321 -150 344 -168 370 -168 c 0
 387 -168 399 -164 413 -154 c 1
 429 -180 l 1
 413 -193 385 -203 364 -203 c 0
 318 -203 282 -176 282 -122 c 0xfa
 282 -71 315 -32 345 0 c 1
 338 0 l 1xf2
349 596 m 0xf4
 323 596 302 615 302 644 c 0
 302 673 323 692 349 692 c 0
 376 692 396 673 396 644 c 0
 396 615 376 596 349 596 c 0xf4
EndSplineSet
Substitution2: "Single Substitution lookup 22 subtable" iogonek.d
Ligature2: "'ccmp' Glyph Composition/Decomposition in Latin lookup 6 subtable" i uni0328
EndChar

StartChar: Idotaccent
Encoding: 304 304 122
Width: 600
Flags: MW
HStem: 0 40<107 277 107 277 323 493> 619 40<107 277 107 493 323 323 323 493> 721 80<289 311>
VStem: 260 80<749.5 773.5> 277 46<40 619 40 619>
LayerCount: 2
Fore
SplineSet
107 0 m 1xc8
 107 40 l 1
 277 40 l 1
 277 619 l 1
 107 619 l 1
 107 659 l 1
 493 659 l 1
 493 619 l 1
 323 619 l 1
 323 40 l 1
 493 40 l 1
 493 0 l 1
 107 0 l 1xc8
300 721 m 0xf0
 278 721 260 737 260 762 c 0
 260 785 278 801 300 801 c 0
 322 801 340 785 340 762 c 0
 340 737 322 721 300 721 c 0xf0
EndSplineSet
EndChar

StartChar: dotlessi
Encoding: 305 305 304
Width: 600
GlyphClass: 2
Flags: MW
HStem: 0 21G<338 382 338 338> 442 38<97 382 97 338>
VStem: 338 44<0 442 442 442>
AnchorPoint: "Anchor-4" 381 0 basechar 0
AnchorPoint: "Anchor-2" 349 -22 basechar 0
AnchorPoint: "Anchor-0" 349 502 basechar 0
LayerCount: 2
Fore
SplineSet
97 442 m 1
 97 480 l 1
 382 480 l 1
 382 0 l 1
 338 0 l 1
 338 442 l 1
 97 442 l 1
EndSplineSet
EndChar

StartChar: Jcircumflex
Encoding: 308 308 127
Width: 600
Flags: MW
HStem: -12 41<250 332.5 250 353.5> 621 39<147 434 147 480> 781 34<318 322 318 318>
VStem: 434 46<208 621 621 621>
LayerCount: 2
Fore
SplineSet
93 98 m 1
 130 124 l 1
 168 59 222 29 278 29 c 0
 387 29 434 88 434 208 c 2
 434 621 l 1
 147 621 l 1
 147 660 l 1
 480 660 l 1
 480 204 l 2
 480 84 430 -12 277 -12 c 0
 203 -12 132 24 93 98 c 1
243 709 m 1
 203 709 l 1
 299 815 l 1
 341 815 l 1
 437 709 l 1
 397 709 l 1
 322 781 l 1
 318 781 l 1
 243 709 l 1
EndSplineSet
EndChar

StartChar: jcircumflex
Encoding: 309 309 305
Width: 600
Flags: MW
HStem: -229 38<176.5 253 176.5 265.5> 442 38<97 382 97 338> 673 37<347 351 347 347>
VStem: 338 44<-43 -37 -37 442 442 442>
LayerCount: 2
Fore
SplineSet
97 442 m 1
 97 480 l 1
 382 480 l 1
 382 -37 l 2
 382 -155 337 -229 194 -229 c 0
 149 -229 99 -215 63 -197 c 1
 81 -162 l 1
 113 -178 156 -191 197 -191 c 0
 309 -191 338 -131 338 -43 c 2
 338 442 l 1
 97 442 l 1
235 572 m 1
 330 710 l 1
 369 710 l 1
 464 572 l 1
 426 572 l 1
 351 673 l 1
 347 673 l 1
 272 572 l 1
 235 572 l 1
EndSplineSet
EndChar

StartChar: uni0136
Encoding: 310 310 128
Width: 600
Flags: MW
HStem: -209 30<272 278> 0 21G<115 115 115 162 518 518 518 571> 639 20G<115 162 162 162 489 543 543 543>
VStem: 115 47<0 227 293 659> 364 40<-142.5 -113.5>
LayerCount: 2
Fore
SplineSet
115 0 m 1
 115 659 l 1
 162 659 l 1
 162 293 l 1
 164 293 l 1
 489 659 l 1
 543 659 l 1
 330 415 l 1
 571 0 l 1
 518 0 l 1
 298 380 l 1
 162 227 l 1
 162 0 l 1
 115 0 l 1
320 -51 m 1
 375 -62 404 -83 404 -124 c 0
 404 -176 343 -201 278 -209 c 1
 272 -179 l 1
 327 -171 364 -156 364 -129 c 0
 364 -98 336 -86 308 -80 c 1
 320 -51 l 1
EndSplineSet
EndChar

StartChar: uni0137
Encoding: 311 311 306
Width: 600
Flags: MW
HStem: 0 21G<123 123 123 168 516 516 516 567> 460 20G<480 535 535 535> 699 20G<123 168 168 168>
VStem: 123 45<0 136 191 719> 360 39<-142.5 -113.5>
LayerCount: 2
Fore
SplineSet
123 0 m 1
 123 719 l 1
 168 719 l 1
 168 191 l 1
 172 191 l 1
 480 480 l 1
 535 480 l 1
 338 294 l 1
 567 0 l 1
 516 0 l 1
 307 267 l 1
 168 136 l 1
 168 0 l 1
 123 0 l 1
316 -51 m 1
 371 -62 399 -83 399 -124 c 0
 399 -176 338 -201 274 -209 c 1
 268 -179 l 1
 323 -171 360 -156 360 -129 c 0
 360 -98 332 -86 304 -80 c 1
 316 -51 l 1
EndSplineSet
EndChar

StartChar: kgreenlandic
Encoding: 312 312 307
Width: 600
Flags: MW
HStem: 0 21G<123 123 123 168 516 516 516 567> 460 20G<123 168 168 168 480 535 535 535>
VStem: 123 45<0 134 189 480>
LayerCount: 2
Fore
SplineSet
123 0 m 1
 123 480 l 1
 168 480 l 1
 168 189 l 1
 170 191 l 1
 480 480 l 1
 535 480 l 1
 338 294 l 1
 567 0 l 1
 516 0 l 1
 307 266 l 1
 168 134 l 1
 168 0 l 1
 123 0 l 1
EndSplineSet
EndChar

StartChar: Lacute
Encoding: 313 313 129
Width: 600
Flags: MW
HStem: 0 40<194 539 194 539> 639 20G<150 194 194 194> 709 106<150 300 150 300>
VStem: 150 44<40 659 40 659 40 659>
LayerCount: 2
Fore
SplineSet
150 0 m 1
 150 659 l 1
 194 659 l 1
 194 40 l 1
 539 40 l 1
 539 0 l 1
 150 0 l 1
300 815 m 1
 191 709 l 1
 150 709 l 1
 242 815 l 1
 300 815 l 1
EndSplineSet
EndChar

StartChar: lacute
Encoding: 314 314 308
Width: 600
Flags: MW
HStem: -12 39<385 434.5 385 436.5> 681 38<93 315 93 271> 760 106<246 396 246 396>
VStem: 271 44<145 681 681 681>
LayerCount: 2
Fore
SplineSet
93 681 m 1
 93 719 l 1
 315 719 l 1
 315 139 l 2
 315 63 351 27 419 27 c 0
 450 27 480 35 519 53 c 1
 533 18 l 1
 494 2 460 -12 413 -12 c 0
 322 -12 271 36 271 145 c 2
 271 681 l 1
 93 681 l 1
396 866 m 1
 287 760 l 1
 246 760 l 1
 339 866 l 1
 396 866 l 1
EndSplineSet
EndChar

StartChar: uni013B
Encoding: 315 315 131
Width: 600
Flags: MW
HStem: -209 30<281 287> 0 40<194 539 194 539> 639 20G<150 194 194 194>
VStem: 150 44<40 659 40 659 40 659> 373 40<-142.5 -113.5>
LayerCount: 2
Fore
SplineSet
150 0 m 1
 150 659 l 1
 194 659 l 1
 194 40 l 1
 539 40 l 1
 539 0 l 1
 150 0 l 1
329 -51 m 1
 384 -62 413 -83 413 -124 c 0
 413 -176 352 -201 287 -209 c 1
 281 -179 l 1
 336 -171 373 -156 373 -129 c 0
 373 -98 345 -86 317 -80 c 1
 329 -51 l 1
EndSplineSet
EndChar

StartChar: uni013C
Encoding: 316 316 311
Width: 600
Flags: MW
HStem: -12 39<385 434.5 385 436.5> 681 38<93 315 93 271>
VStem: 271 44<145 681 681 681> 395 39<-142.5 -113.5>
LayerCount: 2
Fore
SplineSet
93 681 m 1
 93 719 l 1
 315 719 l 1
 315 139 l 2
 315 63 351 27 419 27 c 0
 450 27 480 35 519 53 c 1
 533 18 l 1
 494 2 460 -12 413 -12 c 0
 322 -12 271 36 271 145 c 2
 271 681 l 1
 93 681 l 1
351 -51 m 1
 405 -62 434 -83 434 -124 c 0
 434 -176 373 -201 309 -209 c 1
 302 -179 l 1
 357 -171 395 -156 395 -129 c 0
 395 -98 367 -86 338 -80 c 1
 351 -51 l 1
EndSplineSet
EndChar

StartChar: Lcaron
Encoding: 317 317 130
Width: 600
Flags: MW
HStem: 0 40<194 539 194 539> 639 20G<150 194 194 194>
VStem: 150 44<40 659 40 659 40 659> 390 37
LayerCount: 2
Fore
SplineSet
150 0 m 1
 150 659 l 1
 194 659 l 1
 194 40 l 1
 539 40 l 1
 539 0 l 1
 150 0 l 1
418 517 m 1
 391 517 l 1
 389 723 l 1
 427 723 l 1
 427 673 l 1
 418 517 l 1
EndSplineSet
EndChar

StartChar: lcaron
Encoding: 318 318 309
Width: 600
GlyphClass: 3
Flags: MW
HStem: -12 39<385 434.5 385 436.5> 681 38<93 315 93 271>
VStem: 271 44<145 681 681 681> 393.5 36.5
LayerCount: 2
Fore
SplineSet
93 681 m 1
 93 719 l 1
 315 719 l 1
 315 139 l 2
 315 63 351 27 419 27 c 0
 450 27 480 35 519 53 c 1
 533 18 l 1
 494 2 460 -12 413 -12 c 0
 322 -12 271 36 271 145 c 2
 271 681 l 1
 93 681 l 1
422 548 m 1
 395 548 l 1
 392 754 l 1
 430 754 l 1
 430 704 l 1
 422 548 l 1
EndSplineSet
Ligature2: "'ccmp' Glyph Composition/Decomposition in Latin lookup 6 subtable" l uni030C
EndChar

StartChar: Ldot
Encoding: 319 319 132
Width: 600
Flags: MW
HStem: 0 40<194 539 194 539> 296 95<404 430> 639 20G<150 194 194 194>
VStem: 150 44<40 659 40 659 40 659> 370 94<328.5 358>
LayerCount: 2
Fore
SplineSet
150 0 m 1
 150 659 l 1
 194 659 l 1
 194 40 l 1
 539 40 l 1
 539 0 l 1
 150 0 l 1
417 296 m 0
 391 296 370 314 370 343 c 0
 370 373 391 391 417 391 c 0
 443 391 464 373 464 343 c 0
 464 314 443 296 417 296 c 0
EndSplineSet
EndChar

StartChar: ldot
Encoding: 320 320 310
Width: 600
Flags: MW
HStem: -12 39<352.5 402 352.5 404> 295 96<404 430.5> 681 38<60 283 60 239>
VStem: 239 44<145 681 681 681> 370 94<328.5 358>
LayerCount: 2
Fore
SplineSet
60 681 m 1
 60 719 l 1
 283 719 l 1
 283 139 l 2
 283 63 318 27 387 27 c 0
 417 27 448 35 486 53 c 1
 501 18 l 1
 461 2 428 -12 380 -12 c 0
 289 -12 239 36 239 145 c 2
 239 681 l 1
 60 681 l 1
417 295 m 0
 391 295 370 314 370 343 c 0
 370 373 391 391 417 391 c 0
 444 391 464 373 464 343 c 0
 464 314 444 295 417 295 c 0
EndSplineSet
EndChar

StartChar: Lslash
Encoding: 321 321 136
Width: 600
Flags: MW
HStem: 0 40<194 539 194 539> 639 20G<150 194 194 194>
VStem: 150 44<40 40 40 245 245 245 306 659>
LayerCount: 2
Fore
SplineSet
194 40 m 1
 539 40 l 1
 539 0 l 1
 150 0 l 1
 150 245 l 1
 65 200 l 1
 65 240 l 1
 150 285 l 1
 150 659 l 1
 194 659 l 1
 194 306 l 1
 431 429 l 1
 431 389 l 1
 194 266 l 1
 194 40 l 1
EndSplineSet
EndChar

StartChar: lslash
Encoding: 322 322 315
Width: 600
Flags: MW
HStem: -12 39<385 434.5 385 436.5> 681 38<93 271 93 315>
VStem: 271 44<145 365 365 365 432 681 681 681>
LayerCount: 2
Fore
SplineSet
519 53 m 1
 533 18 l 1
 494 2 460 -12 413 -12 c 0
 322 -12 271 36 271 145 c 2
 271 365 l 1
 141 289 l 1
 141 332 l 1
 271 407 l 1
 271 681 l 1
 93 681 l 1
 93 719 l 1
 315 719 l 1
 315 432 l 1
 486 529 l 1
 486 486 l 1
 315 389 l 1
 315 139 l 2
 315 63 351 27 419 27 c 0
 450 27 480 35 519 53 c 1
EndSplineSet
EndChar

StartChar: Nacute
Encoding: 323 323 138
Width: 600
Flags: MW
HStem: 0 21G<92 92 92 136 460 460 460 508> 0 63<460 470 468 470 468 508> 596 63<130 132 130 130> 639 20G<92 140 140 140 464 508 508 508> 709 106<269 419 269 419>
VStem: 92 44<0 408 0 659> 464 44<254 659 0 659>
LayerCount: 2
Fore
SplineSet
92 0 m 1x9e
 92 659 l 1
 140 659 l 1
 397 193 l 1
 468 63 l 1
 470 63 l 1x5e
 468 127 464 190 464 254 c 2
 464 659 l 1
 508 659 l 1
 508 0 l 1
 460 0 l 1
 203 466 l 1
 132 596 l 1
 130 596 l 1xae
 132 532 136 472 136 408 c 2
 136 0 l 1
 92 0 l 1x9e
419 815 m 1
 309 709 l 1
 269 709 l 1
 361 815 l 1
 419 815 l 1
EndSplineSet
EndChar

StartChar: nacute
Encoding: 324 324 317
Width: 600
Flags: MW
HStem: 0 21G<105 105 105 150 469 469 469 514> 452 40<302.5 381.5> 460 20G<105 143 143 143>
VStem: 105 45<0 344 0 480> 469 45<0 293 293 299 0 346.5>
LayerCount: 2
Fore
SplineSet
105 0 m 1xd8
 105 480 l 1
 143 480 l 1xb8
 148 388 l 1
 152 388 l 1
 207 447 264 492 341 492 c 0
 458 492 514 429 514 299 c 2
 514 0 l 1
 469 0 l 1
 469 293 l 2
 469 400 429 452 334 452 c 0
 266 452 219 417 150 344 c 1
 150 0 l 1
 105 0 l 1xd8
409 710 m 1
 301 572 l 1
 264 572 l 1
 355 710 l 1
 409 710 l 1
EndSplineSet
EndChar

StartChar: uni0145
Encoding: 325 325 141
Width: 600
Flags: MW
HStem: 0 21G<92 92 92 136 460 460 460 508> 0 63<460 470 468 470 468 508> 596 63<130 132 130 130> 639 20G<92 140 140 140 464 508 508 508>
VStem: 92 44<0 408 0 659> 319 39<-142.5 -113.5> 464 44<254 659 0 659>
LayerCount: 2
Fore
SplineSet
92 0 m 1x9e
 92 659 l 1
 140 659 l 1
 397 193 l 1
 468 63 l 1
 470 63 l 1x5e
 468 127 464 190 464 254 c 2
 464 659 l 1
 508 659 l 1
 508 0 l 1
 460 0 l 1
 203 466 l 1
 132 596 l 1
 130 596 l 1xae
 132 532 136 472 136 408 c 2
 136 0 l 1
 92 0 l 1x9e
275 -51 m 1
 329 -62 358 -83 358 -124 c 0
 358 -176 297 -201 233 -209 c 1
 226 -179 l 1
 281 -171 319 -156 319 -129 c 0
 319 -98 291 -86 262 -80 c 1
 275 -51 l 1
EndSplineSet
EndChar

StartChar: uni0146
Encoding: 326 326 320
Width: 600
Flags: MW
HStem: 0 21G<105 105 105 150 469 469 469 514> 452 40<302.5 381.5> 460 20G<105 143 143 143>
VStem: 105 45<0 344 0 480> 335 39<-142.5 -113.5> 469 45<0 293 293 299 0 346.5>
LayerCount: 2
Fore
SplineSet
105 0 m 1xdc
 105 480 l 1
 143 480 l 1xbc
 148 388 l 1
 152 388 l 1
 207 447 264 492 341 492 c 0
 458 492 514 429 514 299 c 2
 514 0 l 1
 469 0 l 1
 469 293 l 2
 469 400 429 452 334 452 c 0
 266 452 219 417 150 344 c 1
 150 0 l 1
 105 0 l 1xdc
291 -51 m 1
 346 -62 374 -83 374 -124 c 0
 374 -176 313 -201 249 -209 c 1
 243 -179 l 1
 298 -171 335 -156 335 -129 c 0
 335 -98 307 -86 279 -80 c 1
 291 -51 l 1
EndSplineSet
EndChar

StartChar: Ncaron
Encoding: 327 327 139
Width: 600
Flags: MW
HStem: 0 21G<92 92 92 136 460 460 460 508> 0 63<460 470 468 470 468 508> 596 63<130 132 130 130> 639 20G<92 140 140 140 464 508 508 508> 709 34<304 308 304 327 285 308>
VStem: 92 44<0 408 0 659> 464 44<254 659 0 659>
LayerCount: 2
Fore
SplineSet
92 0 m 1x9e
 92 659 l 1
 140 659 l 1
 397 193 l 1
 468 63 l 1
 470 63 l 1x5e
 468 127 464 190 464 254 c 2
 464 659 l 1
 508 659 l 1
 508 0 l 1
 460 0 l 1
 203 466 l 1
 132 596 l 1
 130 596 l 1xae
 132 532 136 472 136 408 c 2
 136 0 l 1
 92 0 l 1x9e
383 815 m 1
 423 815 l 1
 327 709 l 1
 285 709 l 1
 189 815 l 1
 229 815 l 1
 304 743 l 1
 308 743 l 1
 383 815 l 1
EndSplineSet
EndChar

StartChar: ncaron
Encoding: 328 328 318
Width: 600
Flags: MW
HStem: 0 21G<105 105 105 150 469 469 469 514> 452 40<302.5 381.5> 460 20G<105 143 143 143> 572 37<300 321 317 321 317 339>
VStem: 105 45<0 344 0 480> 469 45<0 293 293 299 0 346.5>
LayerCount: 2
Fore
SplineSet
105 0 m 1xdc
 105 480 l 1
 143 480 l 1xbc
 148 388 l 1
 152 388 l 1
 207 447 264 492 341 492 c 0
 458 492 514 429 514 299 c 2
 514 0 l 1
 469 0 l 1
 469 293 l 2
 469 400 429 452 334 452 c 0
 266 452 219 417 150 344 c 1
 150 0 l 1
 105 0 l 1xdc
300 572 m 1
 205 710 l 1
 242 710 l 1
 317 609 l 1
 321 609 l 1
 396 710 l 1
 434 710 l 1
 339 572 l 1
 300 572 l 1
EndSplineSet
EndChar

StartChar: napostrophe
Encoding: 329 329 324
Width: 600
Flags: MW
HStem: 0 21G<184 229 184 184 526 570 526 526> 452 40<372.5 445.5> 460 20G<184 222 222 222> 576 124<46 67>
VStem: 92 46 184 45<0 353 0 480> 526 44<0 302 302 308 0 352.5>
LayerCount: 2
Fore
SplineSet
13 385 m 1xde
 -7 415 l 1
 50 453 87 512 92 586 c 1
 82 580 72 576 62 576 c 0
 27 576 3 602 3 636 c 0
 3 673 28 700 64 700 c 0
 104 700 138 663 138 602 c 0
 138 507 87 426 13 385 c 1xde
227 397 m 1
 231 397 l 1
 283 451 336 492 409 492 c 0
 517 492 570 432 570 308 c 2
 570 0 l 1
 526 0 l 1
 526 302 l 2
 526 403 489 452 402 452 c 0
 338 452 294 419 229 353 c 1xde
 229 0 l 1
 184 0 l 1
 184 480 l 1
 222 480 l 1xbe
 227 397 l 1
EndSplineSet
EndChar

StartChar: Omacron
Encoding: 332 332 150
Width: 600
Flags: MW
HStem: -12 42<241 359 241 372> 629 42<241 359> 734 36<186 414 186 414>
VStem: 54 48<240.5 423 240.5 436> 186 228<734 770 734 770> 498 48<240.5 423>
LayerCount: 2
Fore
SplineSet
300 -12 m 0
 156 -12 54 123 54 332 c 0
 54 540 156 671 300 671 c 0
 444 671 546 540 546 332 c 0
 546 123 444 -12 300 -12 c 0
300 30 m 0
 418 30 498 149 498 332 c 0
 498 514 418 629 300 629 c 0
 182 629 102 514 102 332 c 0
 102 149 182 30 300 30 c 0
186 734 m 1
 186 770 l 1
 414 770 l 1
 414 734 l 1
 186 734 l 1
EndSplineSet
EndChar

StartChar: uni014E
Encoding: 334 334 151
Width: 600
Flags: MW
HStem: -12 42<241 359 241 372> 629 42<241 359> 711 32<274 326 274 338>
VStem: 54 48<240.5 423 240.5 436> 185 33<815 815> 498 48<240.5 423>
LayerCount: 2
Fore
SplineSet
300 -12 m 0
 156 -12 54 123 54 332 c 0
 54 540 156 671 300 671 c 0
 444 671 546 540 546 332 c 0
 546 123 444 -12 300 -12 c 0
300 30 m 0
 418 30 498 149 498 332 c 0
 498 514 418 629 300 629 c 0
 182 629 102 514 102 332 c 0
 102 149 182 30 300 30 c 0
300 711 m 0
 224 711 191 769 185 815 c 1
 218 815 l 1
 224 780 248 743 300 743 c 0
 352 743 376 780 382 815 c 1
 415 815 l 1
 409 769 376 711 300 711 c 0
EndSplineSet
EndChar

StartChar: uni014F
Encoding: 335 335 331
Width: 600
Flags: MW
HStem: -12 39<246 354 246 363> 453 39<246 354> 576 32<273 327 273 341>
VStem: 67 47<176 302.5 176 319.5> 180 33<697 697> 387 33<697 697> 486 47<176 302.5>
LayerCount: 2
Fore
SplineSet
67 239 m 0
 67 400 174 492 300 492 c 0
 426 492 533 400 533 239 c 0
 533 80 426 -12 300 -12 c 0
 174 -12 67 80 67 239 c 0
114 239 m 0
 114 113 192 27 300 27 c 0
 408 27 486 113 486 239 c 0
 486 366 408 453 300 453 c 0
 192 453 114 366 114 239 c 0
300 576 m 0
 218 576 186 645 180 697 c 1
 213 697 l 1
 219 653 246 608 300 608 c 0
 354 608 381 653 387 697 c 1
 420 697 l 1
 414 645 382 576 300 576 c 0
EndSplineSet
EndChar

StartChar: Ohungarumlaut
Encoding: 336 336 152
Width: 600
Flags: MW
HStem: -12 42<241 359 241 372> 629 42<241 359> 709 106<208 324 208 324 275 389 275 353>
VStem: 54 48<240.5 423 240.5 436> 498 48<240.5 423>
LayerCount: 2
Fore
SplineSet
300 -12 m 0
 156 -12 54 123 54 332 c 0
 54 540 156 671 300 671 c 0
 444 671 546 540 546 332 c 0
 546 123 444 -12 300 -12 c 0
300 30 m 0
 418 30 498 149 498 332 c 0
 498 514 418 629 300 629 c 0
 182 629 102 514 102 332 c 0
 102 149 182 30 300 30 c 0
244 709 m 1
 208 709 l 1
 275 815 l 1
 324 815 l 1
 244 709 l 1
353 709 m 1
 420 815 l 1
 469 815 l 1
 389 709 l 1
 353 709 l 1
EndSplineSet
EndChar

StartChar: ohungarumlaut
Encoding: 337 337 332
Width: 600
Flags: MW
HStem: -12 39<246 354 246 363> 453 39<246 354> 570 138<218 335 218 335 290 385 290 351>
VStem: 67 47<176 302.5 176 319.5> 486 47<176 302.5>
LayerCount: 2
Fore
SplineSet
67 239 m 0
 67 400 174 492 300 492 c 0
 426 492 533 400 533 239 c 0
 533 80 426 -12 300 -12 c 0
 174 -12 67 80 67 239 c 0
114 239 m 0
 114 113 192 27 300 27 c 0
 408 27 486 113 486 239 c 0
 486 366 408 453 300 453 c 0
 192 453 114 366 114 239 c 0
218 570 m 1
 290 708 l 1
 335 708 l 1
 252 570 l 1
 218 570 l 1
351 570 m 1
 423 708 l 1
 469 708 l 1
 385 570 l 1
 351 570 l 1
EndSplineSet
EndChar

StartChar: OE
Encoding: 338 338 162
Width: 600
GlyphClass: 2
Flags: MW
HStem: 0 40<364 589 364 589> 330 40<364 528 364 528> 621 39<224 579 301 319 364 579 364 364>
VStem: 41 47<246 418 246 432> 319 45<40 330 370 621>
AnchorPoint: "Anchor-0" 417 681 basechar 0
LayerCount: 2
Fore
SplineSet
41 332 m 0
 41 532 131 660 301 660 c 2
 579 660 l 1
 579 621 l 1
 364 621 l 1
 364 370 l 1
 528 370 l 1
 528 330 l 1
 364 330 l 1
 364 40 l 1
 589 40 l 1
 589 0 l 1
 301 0 l 2
 131 0 41 132 41 332 c 0
88 332 m 0
 88 160 152 39 296 39 c 2
 319 39 l 1
 319 621 l 1
 296 621 l 2
 152 621 88 504 88 332 c 0
EndSplineSet
EndChar

StartChar: oe
Encoding: 339 339 342
Width: 600
GlyphClass: 2
Flags: MW
HStem: -12 37<140.5 214> 234 34<346 559 345 597 346 346> 454 38<140.5 213.5 132 218.5 430.5 499>
VStem: 10 44<177 303 177 320> 306 40<234 234 234 303> 559 40<273.5 317>
AnchorPoint: "Anchor-0" 321 502 basechar 0
LayerCount: 2
Fore
SplineSet
54 240 m 0
 54 114 100 25 181 25 c 0
 256 25 306 114 306 240 c 0
 306 366 256 454 181 454 c 0
 100 454 54 366 54 240 c 0
10 240 m 0
 10 400 83 492 181 492 c 0
 246 492 298 443 325 357 c 1
 353 441 395 492 466 492 c 0
 555 492 599 395 599 280 c 0
 599 267 599 254 597 234 c 1
 346 234 l 1
 347 114 389 26 477 26 c 0
 514 26 541 42 568 60 c 1
 585 29 l 1
 557 9 524 -12 475 -12 c 0
 406 -12 353 34 325 120 c 1
 297 34 246 -12 182 -12 c 0
 83 -12 10 80 10 240 c 0
345 268 m 1
 559 268 l 1
 559 366 535 454 463 454 c 0
 390 454 353 379 345 268 c 1
EndSplineSet
EndChar

StartChar: Racute
Encoding: 340 340 170
Width: 600
Flags: MW
HStem: 0 21G<117 163 117 117 481 535 481 481> 303 38<163 293 293 303 163 293> 620 39<163 293 163 163> 709 106<268 418 268 418>
VStem: 117 46<0 303 0 341 341 620> 475 47<436.5 534.5>
LayerCount: 2
Fore
SplineSet
418 815 m 1
 309 709 l 1
 268 709 l 1
 361 815 l 1
 418 815 l 1
163 341 m 1
 293 341 l 2
 410 341 475 388 475 485 c 0
 475 584 410 620 293 620 c 2
 163 620 l 1
 163 341 l 1
535 0 m 1
 481 0 l 1
 303 303 l 1
 163 303 l 1
 163 0 l 1
 117 0 l 1
 117 659 l 1
 305 659 l 2
 436 659 522 611 522 485 c 0
 522 380 456 320 353 306 c 1
 535 0 l 1
EndSplineSet
EndChar

StartChar: racute
Encoding: 341 341 350
Width: 600
Flags: MW
HStem: 0 21G<163 163 163 208> 450 42<387 446> 460 20G<163 201 201 201> 472 20
VStem: 163 45<0 300>
LayerCount: 2
Fore
SplineSet
163 0 m 1xc8
 163 480 l 1
 201 480 l 1xa8
 206 362 l 1
 208 362 l 1
 260 438 338 492 434 492 c 0xc8
 466 492 500 488 530 472 c 1x98
 518 433 l 1
 483 445 465 450 427 450 c 0
 347 450 274 409 208 300 c 1
 208 0 l 1
 163 0 l 1xc8
433 710 m 1
 325 572 l 1
 288 572 l 1
 379 710 l 1
 433 710 l 1
EndSplineSet
EndChar

StartChar: uni0156
Encoding: 342 342 172
Width: 600
Flags: MW
HStem: 0 21G<117 163 117 117 481 535 481 481> 303 38<163 293 293 303 163 293> 620 39<163 293 163 163>
VStem: 117 46<0 303 0 341 341 620> 339 39<-142.5 -113.5> 475 47<436.5 534.5>
LayerCount: 2
Fore
SplineSet
282 -80 m 1
 295 -51 l 1
 349 -62 378 -83 378 -124 c 0
 378 -176 317 -201 253 -209 c 1
 246 -179 l 1
 301 -171 339 -156 339 -129 c 0
 339 -98 311 -86 282 -80 c 1
163 341 m 1
 293 341 l 2
 410 341 475 388 475 485 c 0
 475 584 410 620 293 620 c 2
 163 620 l 1
 163 341 l 1
353 306 m 1
 535 0 l 1
 481 0 l 1
 303 303 l 1
 163 303 l 1
 163 0 l 1
 117 0 l 1
 117 659 l 1
 305 659 l 2
 436 659 522 611 522 485 c 0
 522 380 456 320 353 306 c 1
EndSplineSet
EndChar

StartChar: uni0157
Encoding: 343 343 351
Width: 600
Flags: MW
HStem: 0 21G<163 163 163 208> 450 42<387 446> 460 20G<163 201 201 201> 472 20
VStem: 163 45<0 300> 217 39<-142.5 -113.5>
LayerCount: 2
Fore
SplineSet
163 0 m 1xc8
 163 480 l 1
 201 480 l 1xa8
 206 362 l 1
 208 362 l 1
 260 438 338 492 434 492 c 0xc8
 466 492 500 488 530 472 c 1x98
 518 433 l 1
 483 445 465 450 427 450 c 0
 347 450 274 409 208 300 c 1
 208 0 l 1
 163 0 l 1xc8
173 -51 m 1xcc
 228 -62 256 -83 256 -124 c 0
 256 -176 195 -201 131 -209 c 1
 125 -179 l 1
 180 -171 217 -156 217 -129 c 0
 217 -98 189 -86 161 -80 c 1
 173 -51 l 1xcc
EndSplineSet
EndChar

StartChar: Rcaron
Encoding: 344 344 171
Width: 600
Flags: MW
HStem: 0 21G<117 163 117 117 481 535 481 481> 303 38<163 293 293 303 163 293> 620 39<163 293 163 163> 709 34<304 308 304 327 285 308>
VStem: 117 46<0 303 0 341 341 620> 475 47<436.5 534.5>
LayerCount: 2
Fore
SplineSet
327 709 m 1
 285 709 l 1
 189 815 l 1
 229 815 l 1
 304 743 l 1
 308 743 l 1
 383 815 l 1
 423 815 l 1
 327 709 l 1
163 341 m 1
 293 341 l 2
 410 341 475 388 475 485 c 0
 475 584 410 620 293 620 c 2
 163 620 l 1
 163 341 l 1
535 0 m 1
 481 0 l 1
 303 303 l 1
 163 303 l 1
 163 0 l 1
 117 0 l 1
 117 659 l 1
 305 659 l 2
 436 659 522 611 522 485 c 0
 522 380 456 320 353 306 c 1
 535 0 l 1
EndSplineSet
EndChar

StartChar: rcaron
Encoding: 345 345 352
Width: 600
Flags: MW
HStem: 0 21G<163 163 163 208> 450 42<387 446> 460 20G<163 201 201 201> 472 20 572 37<324 345 341 345 341 363>
VStem: 163 45<0 300>
LayerCount: 2
Fore
SplineSet
163 0 m 1xcc
 163 480 l 1
 201 480 l 1xac
 206 362 l 1
 208 362 l 1
 260 438 338 492 434 492 c 0xcc
 466 492 500 488 530 472 c 1x9c
 518 433 l 1
 483 445 465 450 427 450 c 0
 347 450 274 409 208 300 c 1
 208 0 l 1
 163 0 l 1xcc
324 572 m 1
 229 710 l 1
 266 710 l 1
 341 609 l 1
 345 609 l 1
 420 710 l 1
 458 710 l 1
 363 572 l 1
 324 572 l 1
EndSplineSet
EndChar

StartChar: Scircumflex
Encoding: 348 348 177
Width: 600
Flags: MW
HStem: -12 42<268.5 362.5 268.5 375.5> 629 42<265.5 347> 781 34<311 315 311 311>
VStem: 111 46<473 547 473 556.5> 483 46<123 203>
LayerCount: 2
Fore
SplineSet
76 87 m 1
 106 119 l 1
 156 65 228 30 309 30 c 0
 416 30 483 84 483 162 c 0
 483 244 424 271 354 300 c 1
 254 345 l 1
 193 370 111 411 111 509 c 0
 111 604 197 671 312 671 c 0
 396 671 463 635 506 592 c 1
 479 561 l 1
 438 602 382 629 312 629 c 0
 219 629 157 583 157 511 c 0
 157 435 229 406 281 384 c 1
 380 340 l 1
 459 307 529 266 529 165 c 0
 529 64 442 -12 309 -12 c 0
 208 -12 130 29 76 87 c 1
236 709 m 1
 196 709 l 1
 292 815 l 1
 334 815 l 1
 430 709 l 1
 390 709 l 1
 315 781 l 1
 311 781 l 1
 236 709 l 1
EndSplineSet
EndChar

StartChar: scircumflex
Encoding: 349 349 357
Width: 600
Flags: MW
HStem: -12 38<271.5 370.5 271.5 382> 454 38<243.5 329.5> 673 37<296 300 296 296>
VStem: 110 46<344 389.5 344 399> 471 46<95.5 143>
LayerCount: 2
Fore
SplineSet
83 64 m 1
 108 96 l 1
 160 53 222 26 321 26 c 0
 420 26 471 70 471 121 c 0
 471 165 440 197 299 231 c 0
 191 257 110 300 110 364 c 0
 110 434 169 492 298 492 c 0
 362 492 436 467 482 433 c 1
 458 401 l 1
 416 433 362 454 297 454 c 0
 190 454 156 412 156 367 c 0
 156 321 219 291 318 267 c 0
 468 230 517 192 517 123 c 0
 517 51 445 -12 319 -12 c 0
 220 -12 140 23 83 64 c 1
183 572 m 1
 278 710 l 1
 318 710 l 1
 413 572 l 1
 375 572 l 1
 300 673 l 1
 296 673 l 1
 221 572 l 1
 183 572 l 1
EndSplineSet
EndChar

StartChar: uni015E
Encoding: 350 350 179
Width: 600
Flags: MW
HStem: -208 30<237 243> -12 42<296 296> 629 42<265.5 347>
VStem: 111 46<473 547 473 556.5> 329 40<-141 -112> 483 46<123 203>
LayerCount: 2
Fore
SplineSet
281 384 m 1
 380 340 l 1
 459 307 529 266 529 165 c 0
 529 70 452 -3 331 -11 c 1
 309 -54 l 1
 341 -65 369 -83 369 -123 c 0
 369 -175 308 -200 243 -208 c 1
 237 -178 l 1
 292 -170 329 -155 329 -127 c 0
 329 -97 301 -84 263 -74 c 1
 296 -12 l 1
 201 -8 128 32 76 87 c 1
 106 119 l 1
 156 65 228 30 309 30 c 0
 416 30 483 84 483 162 c 0
 483 244 424 271 354 300 c 1
 254 345 l 1
 193 370 111 411 111 509 c 0
 111 604 197 671 312 671 c 0
 396 671 463 635 506 592 c 1
 479 561 l 1
 438 602 382 629 312 629 c 0
 219 629 157 583 157 511 c 0
 157 435 229 406 281 384 c 1
EndSplineSet
EndChar

StartChar: uni015F
Encoding: 351 351 359
Width: 600
Flags: MW
HStem: -12 38<300 300 335 335> 454 38<243.5 329.5>
VStem: 110 46<344 389.5 344 399> 334 39<-141 -112> 471 46<95.5 143>
LayerCount: 2
Fore
SplineSet
482 433 m 1
 458 401 l 1
 416 433 362 454 297 454 c 0
 190 454 156 412 156 367 c 0
 156 321 219 291 318 267 c 0
 468 230 517 192 517 123 c 0
 517 54 451 -7 335 -12 c 1
 313 -54 l 1
 346 -65 373 -83 373 -123 c 0
 373 -175 312 -200 248 -208 c 1
 241 -178 l 1
 296 -170 334 -155 334 -127 c 0
 334 -97 306 -84 267 -74 c 1
 300 -12 l 1
 210 -7 136 26 83 64 c 1
 108 96 l 1
 160 53 222 26 321 26 c 0
 420 26 471 70 471 121 c 0
 471 165 440 197 299 231 c 0
 191 257 110 300 110 364 c 0
 110 434 169 492 298 492 c 0
 362 492 436 467 482 433 c 1
EndSplineSet
EndChar

StartChar: uni0162
Encoding: 354 354 185
Width: 600
Flags: MW
HStem: -208 30<219 225> 0 21G<277 284 277 277 319 323 319 319> 619 40<48 277 48 552 323 323 323 552>
VStem: 277 46<0 619> 311 40<-141 -112>
LayerCount: 2
Fore
SplineSet
323 0 m 1x70
 319 0 l 1x70
 291 -54 l 1
 323 -65 351 -83 351 -123 c 0
 351 -175 290 -200 225 -208 c 1
 219 -178 l 1
 274 -170 311 -155 311 -127 c 0
 311 -97 283 -84 245 -74 c 1xe8
 284 0 l 1
 277 0 l 1
 277 619 l 1
 48 619 l 1
 48 659 l 1
 552 659 l 1
 552 619 l 1
 323 619 l 1
 323 0 l 1x70
EndSplineSet
EndChar

StartChar: uni0163
Encoding: 355 355 365
Width: 600
Flags: MW
HStem: -12 39<397 420> -10 37<363 363> 442 38<80 226 269 525>
VStem: 225 44<180 442> 396 39<-141 -112>
LayerCount: 2
Fore
SplineSet
397 -12 m 1xb8
 375 -54 l 1xb8
 408 -65 435 -83 435 -123 c 0
 435 -175 374 -200 310 -208 c 1
 303 -178 l 1
 358 -170 396 -155 396 -127 c 0
 396 -97 368 -84 329 -74 c 1
 363 -10 l 1x78
 258 2 225 75 225 180 c 2
 225 442 l 1
 80 442 l 1
 80 476 l 1
 226 480 l 1
 232 619 l 1
 269 619 l 1
 269 480 l 1
 525 480 l 1
 525 442 l 1
 269 442 l 1
 269 176 l 2
 269 83 296 27 402 27 c 0
 453 27 493 36 531 52 c 1
 543 18 l 1
 500 0 443 -12 397 -12 c 1xb8
EndSplineSet
EndChar

StartChar: Tcaron
Encoding: 356 356 184
Width: 600
Flags: MW
HStem: 0 21G<277 277 277 323> 619 40<48 277 48 552 323 323 323 552> 709 34<297 301 297 320 278 301>
VStem: 277 46<0 619 0 619>
LayerCount: 2
Fore
SplineSet
277 0 m 1
 277 619 l 1
 48 619 l 1
 48 659 l 1
 552 659 l 1
 552 619 l 1
 323 619 l 1
 323 0 l 1
 277 0 l 1
376 815 m 1
 416 815 l 1
 320 709 l 1
 278 709 l 1
 182 815 l 1
 222 815 l 1
 297 743 l 1
 301 743 l 1
 376 815 l 1
EndSplineSet
EndChar

StartChar: tcaron
Encoding: 357 357 364
Width: 600
GlyphClass: 3
Flags: MW
HStem: -12 39<349 419> 442 38<80 226 269 525> 548 206<399 426 399 399>
VStem: 225 44<180 442> 397.5 36.5
LayerCount: 2
Fore
SplineSet
225 180 m 2
 225 442 l 1
 80 442 l 1
 80 476 l 1
 226 480 l 1
 232 619 l 1
 269 619 l 1
 269 480 l 1
 525 480 l 1
 525 442 l 1
 269 442 l 1
 269 176 l 2
 269 83 296 27 402 27 c 0
 453 27 493 36 531 52 c 1
 543 18 l 1
 500 0 442 -12 396 -12 c 0
 265 -12 225 65 225 180 c 2
426 548 m 1
 399 548 l 1
 396 754 l 1
 434 754 l 1
 434 704 l 1
 426 548 l 1
EndSplineSet
Ligature2: "'ccmp' Glyph Composition/Decomposition in Latin lookup 6 subtable" t uni030C
EndChar

StartChar: Utilde
Encoding: 360 360 192
Width: 600
Flags: MW
HStem: -12 42<256 345 256 355.5> 639 20G<89 135 135 135 468 511 511 511> 716 36<339.5 370.5 339.5 381.5> 773 35<229.5 260.5>
VStem: 89 46<247 252 252 659> 170 29<716 716> 401 29<808 808> 468 43<252 659>
LayerCount: 2
Fore
SplineSet
89 247 m 2
 89 659 l 1
 135 659 l 1
 135 252 l 2
 135 82 212 30 300 30 c 0
 390 30 468 82 468 252 c 2
 468 659 l 1
 511 659 l 1
 511 247 l 2
 511 47 411 -12 300 -12 c 0
 190 -12 89 47 89 247 c 2
359 716 m 0xff
 306 716 281 773 240 773 c 0
 219 773 203 750 199 716 c 1
 170 716 l 1
 173 761 196 808 241 808 c 0xdf
 294 808 319 752 360 752 c 0
 381 752 397 774 401 808 c 1
 430 808 l 1
 427 764 404 716 359 716 c 0xff
EndSplineSet
EndChar

StartChar: utilde
Encoding: 361 361 373
Width: 600
Flags: MW
HStem: -12 40<218.5 297.5> 0 21G<457 494 457 457> 460 20G<87 131 131 131 450 494 494 494> 581 34<333 361 333 372.5> 637 34<228 256.5>
VStem: 87 44<181 187 187 480> 170 30<581 581> 388 31<671 671> 450 44<137 480 0 480>
LayerCount: 2
Fore
SplineSet
494 480 m 1xaf80
 494 0 l 1
 457 0 l 1x6f80
 452 93 l 1
 448 93 l 1
 396 32 336 -12 259 -12 c 0
 142 -12 87 51 87 181 c 2
 87 480 l 1
 131 480 l 1
 131 187 l 2
 131 80 171 28 266 28 c 0
 334 28 384 62 450 137 c 1
 450 480 l 1
 494 480 l 1xaf80
170 581 m 1
 173 625 191 671 240 671 c 0xaf80
 288 671 316 615 350 615 c 0
 372 615 384 636 388 671 c 1
 419 671 l 1
 415 628 397 581 348 581 c 0xbf80
 300 581 274 637 239 637 c 0
 217 637 205 617 200 581 c 1
 170 581 l 1
EndSplineSet
EndChar

StartChar: Umacron
Encoding: 362 362 194
Width: 600
Flags: MW
HStem: -12 42<256 345 256 355.5> 639 20G<89 135 135 135 468 511 511 511> 734 36<186 414 186 414>
VStem: 89 46<247 252 252 659> 186 228<734 770 734 770> 468 43<252 659>
LayerCount: 2
Fore
SplineSet
89 247 m 2
 89 659 l 1
 135 659 l 1
 135 252 l 2
 135 82 212 30 300 30 c 0
 390 30 468 82 468 252 c 2
 468 659 l 1
 511 659 l 1
 511 247 l 2
 511 47 411 -12 300 -12 c 0
 190 -12 89 47 89 247 c 2
186 734 m 1
 186 770 l 1
 414 770 l 1
 414 734 l 1
 186 734 l 1
EndSplineSet
EndChar

StartChar: umacron
Encoding: 363 363 375
Width: 600
Flags: MW
HStem: -12 40<218.5 297.5> 0 21G<457 494 457 457> 460 20G<87 131 131 131 450 494 494 494> 606 36<181 408 181 408>
VStem: 87 44<181 187 187 480> 181 227<606 642 606 642> 450 44<137 480 0 480>
LayerCount: 2
Fore
SplineSet
494 480 m 1xba
 494 0 l 1
 457 0 l 1x7e
 452 93 l 1
 448 93 l 1
 396 32 336 -12 259 -12 c 0
 142 -12 87 51 87 181 c 2
 87 480 l 1
 131 480 l 1
 131 187 l 2
 131 80 171 28 266 28 c 0
 334 28 384 62 450 137 c 1
 450 480 l 1
 494 480 l 1xba
181 606 m 1
 181 642 l 1
 408 642 l 1
 408 606 l 1
 181 606 l 1
EndSplineSet
EndChar

StartChar: Ubreve
Encoding: 364 364 195
Width: 600
Flags: MW
HStem: -12 42<256 345 256 355.5> 639 20G<89 135 135 135 468 511 511 511> 711 32<274 326 274 338>
VStem: 89 46<247 252 252 659> 185 33<815 815> 468 43<252 659>
LayerCount: 2
Fore
SplineSet
89 247 m 2
 89 659 l 1
 135 659 l 1
 135 252 l 2
 135 82 212 30 300 30 c 0
 390 30 468 82 468 252 c 2
 468 659 l 1
 511 659 l 1
 511 247 l 2
 511 47 411 -12 300 -12 c 0
 190 -12 89 47 89 247 c 2
300 711 m 0
 224 711 191 769 185 815 c 1
 218 815 l 1
 224 780 248 743 300 743 c 0
 352 743 376 780 382 815 c 1
 415 815 l 1
 409 769 376 711 300 711 c 0
EndSplineSet
EndChar

StartChar: ubreve
Encoding: 365 365 376
Width: 600
Flags: MW
HStem: -12 40<218.5 297.5> 0 21G<457 494 457 457> 460 20G<87 131 131 131 450 494 494 494> 576 32<267 321 267 335.5>
VStem: 87 44<181 187 187 480> 174 33<697 697> 381 33<697 697> 450 44<137 480 0 480>
LayerCount: 2
Fore
SplineSet
494 480 m 1xb9
 494 0 l 1
 457 0 l 1x7f
 452 93 l 1
 448 93 l 1
 396 32 336 -12 259 -12 c 0
 142 -12 87 51 87 181 c 2
 87 480 l 1
 131 480 l 1
 131 187 l 2
 131 80 171 28 266 28 c 0
 334 28 384 62 450 137 c 1
 450 480 l 1
 494 480 l 1xb9
294 576 m 0
 212 576 180 645 174 697 c 1
 207 697 l 1
 213 653 240 608 294 608 c 0
 348 608 375 653 381 697 c 1
 414 697 l 1
 408 645 377 576 294 576 c 0
EndSplineSet
EndChar

StartChar: Uring
Encoding: 366 366 196
Width: 600
Flags: MW
HStem: -12 42<256 345 256 355.5> 639 20G<89 135 135 135 468 511 511 511> 700 26<285.5 313.5 285.5 322.5> 838 26<285.5 313.5>
VStem: 89 46<247 252 252 659> 218 30<763.5 799.5 763.5 806.5> 351 31<763.5 799.5> 468 43<252 659>
LayerCount: 2
Fore
SplineSet
89 247 m 2
 89 659 l 1
 135 659 l 1
 135 252 l 2
 135 82 212 30 300 30 c 0
 390 30 468 82 468 252 c 2
 468 659 l 1
 511 659 l 1
 511 247 l 2
 511 47 411 -12 300 -12 c 0
 190 -12 89 47 89 247 c 2
300 700 m 0
 253 700 218 732 218 782 c 0
 218 831 253 864 300 864 c 0
 345 864 382 831 382 782 c 0
 382 732 345 700 300 700 c 0
300 726 m 0
 327 726 351 745 351 782 c 0
 351 817 327 838 300 838 c 0
 271 838 248 817 248 782 c 0
 248 745 271 726 300 726 c 0
EndSplineSet
EndChar

StartChar: uring
Encoding: 367 367 377
Width: 600
Flags: MW
HStem: -12 40<218.5 297.5> 0 21G<457 494 457 457> 460 20G<87 131 131 131 450 494 494 494> 539 26<279.5 308.5 279.5 317.5> 686 26<279.5 308.5>
VStem: 87 44<181 187 187 480> 212 30<607 643.5 607 651> 347 29<607 643.5> 450 44<137 480 0 480>
LayerCount: 2
Fore
SplineSet
494 480 m 1xbf80
 494 0 l 1
 457 0 l 1x7f80
 452 93 l 1
 448 93 l 1
 396 32 336 -12 259 -12 c 0
 142 -12 87 51 87 181 c 2
 87 480 l 1
 131 480 l 1
 131 187 l 2
 131 80 171 28 266 28 c 0
 334 28 384 62 450 137 c 1
 450 480 l 1
 494 480 l 1xbf80
294 539 m 0
 247 539 212 574 212 625 c 0
 212 677 247 712 294 712 c 0
 341 712 376 677 376 625 c 0
 376 574 341 539 294 539 c 0
294 565 m 0
 323 565 347 589 347 625 c 0
 347 662 323 686 294 686 c 0
 265 686 242 662 242 625 c 0
 242 589 265 565 294 565 c 0
EndSplineSet
EndChar

StartChar: Uhungarumlaut
Encoding: 368 368 197
Width: 600
Flags: MW
HStem: -12 42<256 345 256 355.5> 639 20G<89 135 135 135 468 511 511 511> 709 106<208 324 208 324 275 389 275 353>
VStem: 89 46<247 252 252 659> 468 43<252 659>
LayerCount: 2
Fore
SplineSet
89 247 m 2
 89 659 l 1
 135 659 l 1
 135 252 l 2
 135 82 212 30 300 30 c 0
 390 30 468 82 468 252 c 2
 468 659 l 1
 511 659 l 1
 511 247 l 2
 511 47 411 -12 300 -12 c 0
 190 -12 89 47 89 247 c 2
244 709 m 1
 208 709 l 1
 275 815 l 1
 324 815 l 1
 244 709 l 1
353 709 m 1
 420 815 l 1
 469 815 l 1
 389 709 l 1
 353 709 l 1
EndSplineSet
EndChar

StartChar: uhungarumlaut
Encoding: 369 369 378
Width: 600
Flags: MW
HStem: -12 40<218.5 297.5> 0 21G<457 494 457 457> 460 20G<87 131 131 131 450 494 494 494> 570 138<212 330 212 330 284 379 284 345>
VStem: 87 44<181 187 187 480> 450 44<137 480 0 480>
LayerCount: 2
Fore
SplineSet
494 480 m 1xbc
 494 0 l 1
 457 0 l 1x7c
 452 93 l 1
 448 93 l 1
 396 32 336 -12 259 -12 c 0
 142 -12 87 51 87 181 c 2
 87 480 l 1
 131 480 l 1
 131 187 l 2
 131 80 171 28 266 28 c 0
 334 28 384 62 450 137 c 1
 450 480 l 1
 494 480 l 1xbc
212 570 m 1
 284 708 l 1
 330 708 l 1
 246 570 l 1
 212 570 l 1
345 570 m 1
 417 708 l 1
 463 708 l 1
 379 570 l 1
 345 570 l 1
EndSplineSet
EndChar

StartChar: Uogonek
Encoding: 370 370 205
Width: 600
GlyphClass: 2
Flags: MW
HStem: -205 37<321 338.5> -11 41 639 20G<89 135 135 135 468 511 511 511>
VStem: 89 46<247 252 252 659> 243 40<-133.5 -97> 468 43<252 659>
AnchorPoint: "Anchor-0" 299 681 basechar 0
LayerCount: 2
Fore
SplineSet
89 247 m 2
 89 659 l 1
 135 659 l 1
 135 252 l 2
 135 82 210 30 299 30 c 0
 388 30 468 82 468 252 c 2
 468 659 l 1
 511 659 l 1
 511 247 l 2
 511 102 457 34 387 3 c 0
 322 -26 283 -76 283 -116 c 0
 283 -151 308 -168 334 -168 c 0
 351 -168 363 -164 377 -154 c 1
 393 -181 l 1
 378 -194 349 -205 328 -205 c 0
 281 -205 243 -178 243 -123 c 0
 243 -71 279 -41 309 -11 c 1
 160 -14 89 76 89 247 c 2
EndSplineSet
Ligature2: "'ccmp' Glyph Composition/Decomposition in Latin lookup 6 subtable" U uni0328
EndChar

StartChar: uogonek
Encoding: 371 371 386
Width: 600
GlyphClass: 2
Flags: MW
HStem: -203 35<444.5 461.5> -12 21G<200.5 297.5> -12 40<218.5 297.5> 0 21G<494 494> 460 20G<87 131 131 131 450 494 494 494>
VStem: 87 44<181 187 187 480> 370 38<-133 -96.5> 450 44<137 480 0 480>
AnchorPoint: "Anchor-0" 294 502 basechar 0
LayerCount: 2
Fore
SplineSet
494 480 m 1xaf
 494 0 l 1x9f
 439 -34 408 -73 408 -116 c 0
 408 -150 432 -168 457 -168 c 0
 474 -168 487 -164 500 -154 c 1
 516 -180 l 1
 501 -193 472 -203 451 -203 c 0
 405 -203 370 -176 370 -122 c 0
 370 -71 405 -31 457 7 c 1xcf
 452 93 l 1
 448 93 l 1
 396 32 336 -12 259 -12 c 0
 142 -12 87 51 87 181 c 2
 87 480 l 1
 131 480 l 1
 131 187 l 2
 131 80 171 28 266 28 c 0
 334 28 384 62 450 137 c 1
 450 480 l 1
 494 480 l 1xaf
EndSplineSet
Ligature2: "'ccmp' Glyph Composition/Decomposition in Latin lookup 6 subtable" u uni0328
EndChar

StartChar: wcircumflex
Encoding: 373 373 395
Width: 600
Flags: MW
HStem: 0 41<135 168 164 168 164 192 435 439> 431 41<298 302 298 298> 460 20G<11 58 58 58 545 589 589 589> 673 37<298 302 298 298>
VStem: 11 578<480 480>
LayerCount: 2
Fore
SplineSet
135 0 m 1xb8
 11 480 l 1
 58 480 l 1xb8
 135 169 l 2
 146 125 156 84 164 41 c 1
 168 41 l 1
 179 84 189 125 200 169 c 2
 277 472 l 1
 326 472 l 1xd8
 403 169 l 2
 414 125 424 84 435 41 c 1
 439 41 l 1
 449 84 459 125 469 169 c 2
 545 480 l 1
 589 480 l 1xb8
 467 0 l 1
 410 0 l 1
 334 294 l 2
 323 340 314 384 302 431 c 1
 298 431 l 1xd8
 288 387 279 341 266 292 c 2
 192 0 l 1
 135 0 l 1xb8
185 572 m 1
 280 710 l 1
 320 710 l 1
 415 572 l 1
 377 572 l 1
 302 673 l 1
 298 673 l 1
 223 572 l 1
 185 572 l 1
EndSplineSet
EndChar

StartChar: Ycircumflex
Encoding: 374 374 218
Width: 600
Flags: MW
HStem: 0 21G<277 277 277 323> 639 20G<51 98 98 98 504 549 549 549> 781 34<298 302 298 298>
VStem: 277 46<0 242 0 242>
LayerCount: 2
Fore
SplineSet
277 0 m 1
 277 242 l 1
 51 659 l 1
 98 659 l 1
 215 441 l 1
 245 391 270 339 300 286 c 1
 304 286 l 1
 334 339 362 391 390 442 c 1
 504 659 l 1
 549 659 l 1
 323 242 l 1
 323 0 l 1
 277 0 l 1
223 709 m 1
 183 709 l 1
 279 815 l 1
 321 815 l 1
 417 709 l 1
 377 709 l 1
 302 781 l 1
 298 781 l 1
 223 709 l 1
EndSplineSet
EndChar

StartChar: ycircumflex
Encoding: 375 375 399
Width: 600
Flags: MW
HStem: -219 41<117.5 163 117.5 175.5> 460 20G<60 106 106 106 497 540 540 540> 673 37<301 305 301 301>
VStem: 60 480<480 480>
LayerCount: 2
Fore
SplineSet
79 -170 m 1
 91 -174 109 -178 126 -178 c 0
 200 -178 247 -124 276 -51 c 2
 293 -9 l 1
 60 480 l 1
 106 480 l 1
 246 178 l 2
 265 138 289 86 312 43 c 1
 316 43 l 1
 335 86 355 137 372 178 c 2
 497 480 l 1
 540 480 l 1
 314 -60 l 1
 286 -140 226 -219 125 -219 c 0
 105 -219 81 -215 67 -209 c 1
 79 -170 l 1
188 572 m 1
 283 710 l 1
 322 710 l 1
 417 572 l 1
 380 572 l 1
 305 673 l 1
 301 673 l 1
 226 572 l 1
 188 572 l 1
EndSplineSet
EndChar

StartChar: Ydieresis
Encoding: 376 376 219
Width: 600
Flags: MW
HStem: 0 21G<277 277 277 323> 639 20G<51 98 98 98 504 549 549 549> 725 73<210.5 231.5 368.5 389.5>
VStem: 185 73<750 772.5> 277 46<0 242 0 242> 342 73<750 772.5>
LayerCount: 2
Fore
SplineSet
277 0 m 1
 277 242 l 1
 51 659 l 1
 98 659 l 1
 215 441 l 1
 245 391 270 339 300 286 c 1
 304 286 l 1
 334 339 362 391 390 442 c 1
 504 659 l 1
 549 659 l 1
 323 242 l 1
 323 0 l 1
 277 0 l 1
221 725 m 0xfc
 200 725 185 739 185 761 c 0
 185 784 200 798 221 798 c 0
 242 798 258 784 258 761 c 0
 258 739 242 725 221 725 c 0xfc
379 725 m 0
 358 725 342 739 342 761 c 0
 342 784 358 798 379 798 c 0
 400 798 415 784 415 761 c 0
 415 739 400 725 379 725 c 0
EndSplineSet
EndChar

StartChar: Zacute
Encoding: 377 377 224
Width: 600
Flags: MW
HStem: 0 40<125 535 125 535> 621 39<104 473 104 528> 621 194<371 429 371 473>
VStem: 70 465<0 28 28 28>
LayerCount: 2
Fore
SplineSet
70 0 m 1xd0
 70 28 l 1
 473 621 l 1
 104 621 l 1
 104 660 l 1
 528 660 l 1
 528 632 l 1
 125 40 l 1
 535 40 l 1
 535 0 l 1
 70 0 l 1xd0
429 815 m 1xb0
 319 709 l 1
 279 709 l 1
 371 815 l 1
 429 815 l 1xb0
EndSplineSet
EndChar

StartChar: zacute
Encoding: 378 378 405
Width: 600
Flags: MW
HStem: 0 39<139 526 139 526> 442 38<112 448 112 515>
VStem: 72 454<0 24 24 24>
LayerCount: 2
Fore
SplineSet
72 0 m 1
 72 24 l 1
 448 442 l 1
 112 442 l 1
 112 480 l 1
 515 480 l 1
 515 457 l 1
 139 39 l 1
 526 39 l 1
 526 0 l 1
 72 0 l 1
408 710 m 1
 301 572 l 1
 263 572 l 1
 355 710 l 1
 408 710 l 1
EndSplineSet
EndChar

StartChar: Zdotaccent
Encoding: 379 379 226
Width: 600
Flags: MW
HStem: 0 40<125 535 125 535> 621 39<104 473 104 528> 721 80<305 327>
VStem: 276 80<749.5 773.5>
LayerCount: 2
Fore
SplineSet
70 0 m 1
 70 28 l 1
 473 621 l 1
 104 621 l 1
 104 660 l 1
 528 660 l 1
 528 632 l 1
 125 40 l 1
 535 40 l 1
 535 0 l 1
 70 0 l 1
316 721 m 0
 294 721 276 737 276 762 c 0
 276 785 294 801 316 801 c 0
 338 801 356 785 356 762 c 0
 356 737 338 721 316 721 c 0
EndSplineSet
EndChar

StartChar: zdotaccent
Encoding: 380 380 407
Width: 600
Flags: MW
HStem: 0 39<139 526 139 526> 442 38<112 448 112 515> 596 96<305.5 332>
VStem: 272 94<629.5 658.5>
LayerCount: 2
Fore
SplineSet
72 0 m 1
 72 24 l 1
 448 442 l 1
 112 442 l 1
 112 480 l 1
 515 480 l 1
 515 457 l 1
 139 39 l 1
 526 39 l 1
 526 0 l 1
 72 0 l 1
319 596 m 0
 292 596 272 615 272 644 c 0
 272 673 292 692 319 692 c 0
 345 692 366 673 366 644 c 0
 366 615 345 596 319 596 c 0
EndSplineSet
EndChar

StartChar: Zcaron
Encoding: 381 381 225
Width: 600
Flags: MW
HStem: 0 40<125 535 125 535> 621 39<104 473 104 528> 621 194<199 239 393 433 104 239> 709 34<314 318 314 337 295 318>
VStem: 70 465<0 28 28 28>
LayerCount: 2
Fore
SplineSet
70 0 m 1xc8
 70 28 l 1
 473 621 l 1
 104 621 l 1
 104 660 l 1
 528 660 l 1
 528 632 l 1
 125 40 l 1
 535 40 l 1
 535 0 l 1
 70 0 l 1xc8
393 815 m 1xa8
 433 815 l 1xa8
 337 709 l 1
 295 709 l 1xd8
 199 815 l 1
 239 815 l 1xa8
 314 743 l 1
 318 743 l 1xd8
 393 815 l 1xa8
EndSplineSet
EndChar

StartChar: zcaron
Encoding: 382 382 406
Width: 600
Flags: MW
HStem: 0 39<139 526 139 526> 442 38<112 448 112 515> 572 37<299 321 317 321 317 338>
VStem: 72 454<0 24 24 24>
LayerCount: 2
Fore
SplineSet
72 0 m 1
 72 24 l 1
 448 442 l 1
 112 442 l 1
 112 480 l 1
 515 480 l 1
 515 457 l 1
 139 39 l 1
 526 39 l 1
 526 0 l 1
 72 0 l 1
299 572 m 1
 204 710 l 1
 242 710 l 1
 317 609 l 1
 321 609 l 1
 396 710 l 1
 433 710 l 1
 338 572 l 1
 299 572 l 1
EndSplineSet
EndChar

StartChar: uni0180
Encoding: 384 384 254
Width: 600
Flags: MW
HStem: -12 39<288 359.5 288 369> 0 21G<105 142 105 105> 433 39<298 381> 581 33<29 105 150 379> 581 138<29 150 29 150 105 150 105 379>
VStem: 105 45<98 345 491 581 614 719> 486 47<175 293>
LayerCount: 2
Fore
SplineSet
150 345 m 1xb6
 150 98 l 1
 206 47 268 27 308 27 c 0
 411 27 486 113 486 237 c 0
 486 349 440 433 322 433 c 0
 272 433 210 405 150 345 c 1xb6
150 491 m 1
 147 388 l 1
 199 438 267 472 329 472 c 0
 465 472 533 380 533 237 c 0
 533 80 428 -12 310 -12 c 0
 261 -12 197 14 149 54 c 1
 147 54 l 1xb6
 142 0 l 1
 105 0 l 1
 105 581 l 1
 29 581 l 1
 29 610 l 1
 105 614 l 1x76
 105 719 l 1
 150 719 l 1xae
 150 614 l 1
 379 614 l 1
 379 581 l 1
 150 581 l 1
 150 491 l 1
EndSplineSet
EndChar

StartChar: uni018F
Encoding: 399 399 230
Width: 600
GlyphClass: 2
Flags: MW
HStem: -12 40<245 356 245 372.5> 296 37<111 111 111 497> 631 40<274 366.5>
VStem: 65 46<294 333 294 333> 498 46<333 423.5>
AnchorPoint: "Anchor-2" 316 -22 basechar 0
AnchorPoint: "Anchor-0" 316 681 basechar 0
LayerCount: 2
Fore
SplineSet
111 296 m 1
 111 294 l 1
 121 131 191 28 299 28 c 0
 413 28 488 134 497 296 c 1
 111 296 l 1
158 566 m 1
 135 597 l 1
 173 639 230 671 303 671 c 0
 456 671 544 540 544 331 c 0
 544 123 446 -12 299 -12 c 0
 153 -12 65 130 65 326 c 0
 65 329 65 331 65 333 c 1
 498 333 l 1
 498 514 430 631 303 631 c 0
 245 631 195 606 158 566 c 1
EndSplineSet
EndChar

StartChar: uni0192
Encoding: 402 402 635
Width: 600
Flags: MW
HStem: -98 39<115.5 166 115.5 178> 368 37<226 273 321 478> 629 20G<527 527> 632 39<402 455.5>
VStem: 280.5 44
LayerCount: 2
Fore
SplineSet
527 649 m 1xe8
 512 615 l 1
 492 626 471 632 440 632 c 0
 364 632 335 553 328 472 c 1
 321 405 l 1
 478 405 l 1
 478 368 l 1
 316 368 l 1
 287 102 l 1
 272 -21 230 -98 126 -98 c 0
 96 -98 72 -88 51 -78 c 1
 64 -44 l 1
 83 -52 104 -59 127 -59 c 0
 205 -59 233 11 245 106 c 1
 273 368 l 1
 159 368 l 1
 159 401 l 1
 226 405 l 1
 277 405 l 1
 284 468 l 2
 298 593 342 671 440 671 c 0xd8
 478 671 506 661 527 649 c 1xe8
EndSplineSet
EndChar

StartChar: ohorn
Encoding: 417 417 343
Width: 600
GlyphClass: 2
Flags: MW
HStem: -12 39<246 354 246 363> 453 39<246 318.5 237 354>
VStem: 67 47<176 302.5 176 319.5> 486 47<176 286 159.5 302.5> 498 40<520 545.5>
AnchorPoint: "Anchor-2" 300 -22 basechar 0
AnchorPoint: "Anchor-0" 300 502 basechar 0
LayerCount: 2
Fore
SplineSet
300 27 m 0xf0
 408 27 486 113 486 239 c 0
 486 366 408 453 300 453 c 0
 192 453 114 366 114 239 c 0
 114 113 192 27 300 27 c 0xf0
484 578 m 1xe8
 519 598 l 1
 531 580 538 562 538 542 c 0xe8
 538 489 498 460 441 446 c 1
 497 403 533 333 533 239 c 0xf0
 533 80 426 -12 300 -12 c 0
 174 -12 67 80 67 239 c 0
 67 400 174 492 300 492 c 0
 337 492 372 484 403 469 c 1
 472 478 498 501 498 539 c 0
 498 552 494 565 484 578 c 1xe8
EndSplineSet
EndChar

StartChar: Uhorn
Encoding: 431 431 206
Width: 600
GlyphClass: 2
Flags: MW
HStem: -12 42<256 345 256 355.5> 639 20G<89 135 135 135 468 482 482 482>
VStem: 89 46<247 252 252 659> 468 43<252 633> 572 41<707.5 734.5>
AnchorPoint: "Anchor-2" 300 -22 basechar 0
AnchorPoint: "Anchor-0" 300 681 basechar 0
LayerCount: 2
Fore
SplineSet
558 767 m 1
 593 786 l 1
 606 768 613 751 613 731 c 0
 613 669 564 645 511 633 c 1
 511 247 l 2
 511 47 411 -12 300 -12 c 0
 190 -12 89 47 89 247 c 2
 89 659 l 1
 135 659 l 1
 135 252 l 2
 135 82 212 30 300 30 c 0
 390 30 468 82 468 252 c 2
 468 659 l 1
 482 659 l 1
 543 668 572 687 572 728 c 0
 572 741 568 753 558 767 c 1
EndSplineSet
EndChar

StartChar: uhorn
Encoding: 432 432 387
Width: 600
GlyphClass: 2
Flags: MW
HStem: -12 40<218.5 297.5> 0 21G<457 494 457 457> 460 20G<87 131 131 131 450 458 458 458>
VStem: 87 44<181 187 187 480> 450 44<137 457 0 480 0 480> 543 40<528.5 555.5>
AnchorPoint: "Anchor-2" 322 -22 basechar 0
AnchorPoint: "Anchor-0" 294 502 basechar 0
LayerCount: 2
Fore
SplineSet
529 588 m 1xbc
 564 608 l 1
 576 590 583 572 583 552 c 0
 583 492 534 468 494 457 c 1
 494 0 l 1
 457 0 l 1x7c
 452 93 l 1
 448 93 l 1
 396 32 336 -12 259 -12 c 0
 142 -12 87 51 87 181 c 2
 87 480 l 1
 131 480 l 1
 131 187 l 2
 131 80 171 28 266 28 c 0
 334 28 384 62 450 137 c 1
 450 480 l 1
 458 480 l 1
 510 487 543 508 543 549 c 0
 543 562 539 575 529 588 c 1xbc
EndSplineSet
EndChar

StartChar: uni01CD
Encoding: 461 461 62
Width: 600
Flags: MW
HStem: 0 21G<45 91 45 45 506 555 506 506> 226 39<183 417 183 430 169 417> 616 43<298 302 298 298> 709 34<298 302 298 321 279 302>
VStem: 45 510<0 0>
LayerCount: 2
Fore
SplineSet
321 709 m 1
 279 709 l 1
 183 815 l 1
 223 815 l 1
 298 743 l 1
 302 743 l 1
 377 815 l 1
 417 815 l 1
 321 709 l 1
183 265 m 1
 417 265 l 1
 375 388 l 2
 348 466 325 535 302 616 c 1
 298 616 l 1
 275 535 251 466 225 388 c 2
 183 265 l 1
506 0 m 1
 430 226 l 1
 169 226 l 1
 91 0 l 1
 45 0 l 1
 277 659 l 1
 323 659 l 1
 555 0 l 1
 506 0 l 1
EndSplineSet
EndChar

StartChar: uni01CE
Encoding: 462 462 239
Width: 600
Flags: MW
HStem: -12 38<234.5 294.5> 0 21G<467 504 467 467> 453 39<281 372> 572 37<297 319 315 319 315 337>
VStem: 92 45<87.5 160.5 87.5 173.5> 460 44<72 72 113 267 267 267>
LayerCount: 2
Fore
SplineSet
92 120 m 0xac
 92 227 200 278 460 301 c 1
 459 380 427 453 317 453 c 0
 245 453 175 416 135 388 c 1
 115 421 l 1
 153 448 237 492 322 492 c 0
 451 492 504 410 504 307 c 2
 504 0 l 1
 467 0 l 1x6c
 462 72 l 1
 460 72 l 1
 404 28 330 -12 259 -12 c 0
 173 -12 92 29 92 120 c 0xac
137 122 m 0
 137 53 202 26 267 26 c 0
 328 26 392 56 460 113 c 1
 460 267 l 1
 216 245 137 199 137 122 c 0
297 572 m 1xbc
 202 710 l 1
 240 710 l 1
 315 609 l 1
 319 609 l 1
 394 710 l 1
 431 710 l 1
 337 572 l 1
 297 572 l 1xbc
EndSplineSet
Substitution2: "'ss02' Style Set 2 in Latin lookup 18 subtable" uni01CE.a
Substitution2: "'aalt' Access All Alternates in Latin lookup 0 subtable" uni01CE.a
EndChar

StartChar: uni01CF
Encoding: 463 463 123
Width: 600
Flags: MW
HStem: 0 40<107 277 107 277 323 493> 619 40<107 277 107 493 323 323 323 493> 709 34<298 302 298 321 279 302>
VStem: 277 46<40 619 40 619>
LayerCount: 2
Fore
SplineSet
107 0 m 1
 107 40 l 1
 277 40 l 1
 277 619 l 1
 107 619 l 1
 107 659 l 1
 493 659 l 1
 493 619 l 1
 323 619 l 1
 323 40 l 1
 493 40 l 1
 493 0 l 1
 107 0 l 1
377 815 m 1
 417 815 l 1
 321 709 l 1
 279 709 l 1
 183 815 l 1
 223 815 l 1
 298 743 l 1
 302 743 l 1
 377 815 l 1
EndSplineSet
EndChar

StartChar: uni01D0
Encoding: 464 464 299
Width: 600
Flags: MW
HStem: 0 21G<338 382 338 338> 442 38<97 382 97 338> 572 37<330 351 347 351 347 369>
VStem: 338 44<0 442 442 442>
LayerCount: 2
Fore
SplineSet
97 442 m 1
 97 480 l 1
 382 480 l 1
 382 0 l 1
 338 0 l 1
 338 442 l 1
 97 442 l 1
330 572 m 1
 235 710 l 1
 272 710 l 1
 347 609 l 1
 351 609 l 1
 426 710 l 1
 464 710 l 1
 369 572 l 1
 330 572 l 1
EndSplineSet
EndChar

StartChar: uni01D1
Encoding: 465 465 153
Width: 600
Flags: MW
HStem: -12 42<241 359 241 372> 629 42<241 359> 709 34<298 302 298 321 279 302>
VStem: 54 48<240.5 423 240.5 436> 498 48<240.5 423>
LayerCount: 2
Fore
SplineSet
300 -12 m 0
 156 -12 54 123 54 332 c 0
 54 540 156 671 300 671 c 0
 444 671 546 540 546 332 c 0
 546 123 444 -12 300 -12 c 0
300 30 m 0
 418 30 498 149 498 332 c 0
 498 514 418 629 300 629 c 0
 182 629 102 514 102 332 c 0
 102 149 182 30 300 30 c 0
377 815 m 1
 417 815 l 1
 321 709 l 1
 279 709 l 1
 183 815 l 1
 223 815 l 1
 298 743 l 1
 302 743 l 1
 377 815 l 1
EndSplineSet
EndChar

StartChar: uni01D3
Encoding: 467 467 198
Width: 600
Flags: MW
HStem: -12 42<256 345 256 355.5> 639 20G<89 135 135 135 468 511 511 511> 709 34<298 302 298 321 279 302>
VStem: 89 46<247 252 252 659> 468 43<252 659>
LayerCount: 2
Fore
SplineSet
89 247 m 2
 89 659 l 1
 135 659 l 1
 135 252 l 2
 135 82 212 30 300 30 c 0
 390 30 468 82 468 252 c 2
 468 659 l 1
 511 659 l 1
 511 247 l 2
 511 47 411 -12 300 -12 c 0
 190 -12 89 47 89 247 c 2
377 815 m 1
 417 815 l 1
 321 709 l 1
 279 709 l 1
 183 815 l 1
 223 815 l 1
 298 743 l 1
 302 743 l 1
 377 815 l 1
EndSplineSet
EndChar

StartChar: uni01D4
Encoding: 468 468 379
Width: 600
Flags: MW
HStem: -12 40<218.5 297.5> 0 21G<457 494 457 457> 460 20G<87 131 131 131 450 494 494 494> 572 37<274 296 292 296 292 314>
VStem: 87 44<181 187 187 480> 450 44<137 480 0 480>
LayerCount: 2
Fore
SplineSet
494 480 m 1xbc
 494 0 l 1
 457 0 l 1x7c
 452 93 l 1
 448 93 l 1
 396 32 336 -12 259 -12 c 0
 142 -12 87 51 87 181 c 2
 87 480 l 1
 131 480 l 1
 131 187 l 2
 131 80 171 28 266 28 c 0
 334 28 384 62 450 137 c 1
 450 480 l 1
 494 480 l 1xbc
274 572 m 1
 180 710 l 1
 217 710 l 1
 292 609 l 1
 296 609 l 1
 371 710 l 1
 409 710 l 1
 314 572 l 1
 274 572 l 1
EndSplineSet
EndChar

StartChar: uni01D5
Encoding: 469 469 199
Width: 600
Flags: MW
HStem: -12 42<256 345 256 355.5> 639 20G<89 135 135 135 468 511 511 511> 725 71<211 231 369 389> 854 33<186 414 186 414>
VStem: 89 46<247 252 252 659> 186 71<749 771> 343 71<749 771> 468 43<252 659>
LayerCount: 2
Fore
SplineSet
89 247 m 2
 89 659 l 1
 135 659 l 1
 135 252 l 2
 135 82 212 30 300 30 c 0
 390 30 468 82 468 252 c 2
 468 659 l 1
 511 659 l 1
 511 247 l 2
 511 47 411 -12 300 -12 c 0
 190 -12 89 47 89 247 c 2
186 854 m 1
 186 887 l 1
 414 887 l 1
 414 854 l 1
 186 854 l 1
221 725 m 0
 201 725 186 738 186 760 c 0
 186 782 201 796 221 796 c 0
 241 796 257 782 257 760 c 0
 257 738 241 725 221 725 c 0
379 725 m 0
 359 725 343 738 343 760 c 0
 343 782 359 796 379 796 c 0
 399 796 414 782 414 760 c 0
 414 738 399 725 379 725 c 0
EndSplineSet
EndChar

StartChar: uni01DB
Encoding: 475 475 202
Width: 600
Flags: MW
HStem: -12 42<256 345 256 355.5> 639 20G<89 135 135 135 468 511 511 511> 725 71<211 231 369 389> 829 106<189 337 189 298>
VStem: 89 46<247 252 252 659> 186 71<749 771> 343 71<749 771> 468 43<252 659>
LayerCount: 2
Fore
SplineSet
89 247 m 2
 89 659 l 1
 135 659 l 1
 135 252 l 2
 135 82 212 30 300 30 c 0
 390 30 468 82 468 252 c 2
 468 659 l 1
 511 659 l 1
 511 247 l 2
 511 47 411 -12 300 -12 c 0
 190 -12 89 47 89 247 c 2
243 935 m 1
 337 829 l 1
 298 829 l 1
 189 935 l 1
 243 935 l 1
379 725 m 0
 359 725 343 738 343 760 c 0
 343 782 359 796 379 796 c 0
 399 796 414 782 414 760 c 0
 414 738 399 725 379 725 c 0
221 725 m 0
 201 725 186 738 186 760 c 0
 186 782 201 796 221 796 c 0
 241 796 257 782 257 760 c 0
 257 738 241 725 221 725 c 0
EndSplineSet
EndChar

StartChar: uni01DC
Encoding: 476 476 383
Width: 600
Flags: MW
HStem: -12 40<218.5 297.5> 0 21G<457 494 457 457> 460 20G<87 131 131 131 450 494 494 494> 598 71<205 225.5 363 383> 710 98<205 338 205 302>
VStem: 87 44<181 187 187 480> 180 71<624 644> 337 72<624 644> 450 44<137 480 0 480>
LayerCount: 2
Fore
SplineSet
494 480 m 1xbc80
 494 0 l 1
 457 0 l 1x7f80
 452 93 l 1
 448 93 l 1
 396 32 336 -12 259 -12 c 0
 142 -12 87 51 87 181 c 2
 87 480 l 1
 131 480 l 1
 131 187 l 2
 131 80 171 28 266 28 c 0
 334 28 384 62 450 137 c 1
 450 480 l 1
 494 480 l 1xbc80
257 808 m 1
 338 710 l 1
 302 710 l 1
 205 808 l 1
 257 808 l 1
373 598 m 0
 353 598 337 614 337 634 c 0
 337 654 353 669 373 669 c 0
 393 669 409 654 409 634 c 0
 409 614 393 598 373 598 c 0
215 598 m 0
 195 598 180 614 180 634 c 0
 180 654 195 669 215 669 c 0
 236 669 251 654 251 634 c 0
 251 614 236 598 215 598 c 0
EndSplineSet
EndChar

StartChar: Gcaron
Encoding: 486 486 108
Width: 600
Flags: MW
HStem: -12 42<265 366 265 376.5> 285 39<328 480 328 525> 629 42<270.5 378> 709 34<330 334 330 353 311 334>
VStem: 59 48<239.5 422.5 239.5 435.5> 480 45<80 285 285 285>
LayerCount: 2
Fore
SplineSet
59 331 m 0
 59 540 173 671 343 671 c 0
 430 671 484 629 518 592 c 1
 491 562 l 1
 458 599 413 629 343 629 c 0
 198 629 107 514 107 331 c 0
 107 148 193 30 337 30 c 0
 395 30 449 48 480 80 c 1
 480 285 l 1
 328 285 l 1
 328 324 l 1
 525 324 l 1
 525 63 l 1
 485 19 419 -12 334 -12 c 0
 170 -12 59 121 59 331 c 0
409 815 m 1
 449 815 l 1
 353 709 l 1
 311 709 l 1
 215 815 l 1
 255 815 l 1
 330 743 l 1
 334 743 l 1
 409 815 l 1
EndSplineSet
EndChar

StartChar: uni01EA
Encoding: 490 490 169
Width: 600
GlyphClass: 2
Flags: MW
HStem: -205 37<325.5 343> -12 42 629 42<241 359>
VStem: 54 48<245 423 240.5 436> 248 39<-133.5 -103> 498 48<243.5 423>
AnchorPoint: "Anchor-0" 300 681 basechar 0
LayerCount: 2
Fore
SplineSet
381 -154 m 1
 398 -181 l 1
 382 -194 354 -205 332 -205 c 0
 286 -205 248 -178 248 -123 c 0
 248 -83 270 -43 308 -12 c 1
 131 -13 54 158 54 332 c 0
 54 540 156 671 300 671 c 0
 444 671 546 540 546 332 c 0
 546 155 478 45 370 -1 c 0
 315 -25 287 -77 287 -116 c 0
 287 -151 313 -168 338 -168 c 0
 356 -168 368 -164 381 -154 c 1
300 30 m 0
 418 30 498 149 498 332 c 0
 498 514 418 629 300 629 c 0
 182 629 102 514 102 332 c 0
 102 149 182 30 300 30 c 0
EndSplineSet
Ligature2: "'ccmp' Glyph Composition/Decomposition in Latin lookup 6 subtable" O uni0328
EndChar

StartChar: uni01EB
Encoding: 491 491 349
Width: 600
GlyphClass: 2
Flags: MW
HStem: -203 35<320.5 337.5> -12 39<246 301> 453 39<246 354>
VStem: 67 47<176 302.5 176 319.5> 246 38<-133.5 -97> 486 47<176 302.5>
AnchorPoint: "Anchor-0" 300 502 basechar 0
LayerCount: 2
Fore
SplineSet
246 -122 m 0
 246 -72 279 -30 301 -12 c 1
 171 -12 67 82 67 239 c 0
 67 400 174 492 300 492 c 0
 426 492 533 400 533 239 c 0
 533 102 465 35 359 -7 c 1
 314 -27 284 -74 284 -116 c 0
 284 -151 308 -168 333 -168 c 0
 350 -168 363 -164 376 -154 c 1
 392 -180 l 1
 377 -193 348 -203 327 -203 c 0
 281 -203 246 -176 246 -122 c 0
114 239 m 0
 114 113 192 27 300 27 c 0
 408 27 486 113 486 239 c 0
 486 366 408 453 300 453 c 0
 192 453 114 366 114 239 c 0
EndSplineSet
Ligature2: "'ccmp' Glyph Composition/Decomposition in Latin lookup 6 subtable" o uni0328
EndChar

StartChar: uni0218
Encoding: 536 536 180
Width: 600
Flags: MW
HStem: -12 42<268.5 362.5 268.5 375.5> 629 42<265.5 347>
VStem: 111 46<473 547 473 556.5> 329 39<-142.5 -113.5> 483 46<123 203>
LayerCount: 2
Fore
SplineSet
76 87 m 1
 106 119 l 1
 156 65 228 30 309 30 c 0
 416 30 483 84 483 162 c 0
 483 244 424 271 354 300 c 1
 254 345 l 1
 193 370 111 411 111 509 c 0
 111 604 197 671 312 671 c 0
 396 671 463 635 506 592 c 1
 479 561 l 1
 438 602 382 629 312 629 c 0
 219 629 157 583 157 511 c 0
 157 435 229 406 281 384 c 1
 380 340 l 1
 459 307 529 266 529 165 c 0
 529 64 442 -12 309 -12 c 0
 208 -12 130 29 76 87 c 1
285 -51 m 1
 339 -62 368 -83 368 -124 c 0
 368 -176 307 -201 243 -209 c 1
 236 -179 l 1
 291 -171 329 -156 329 -129 c 0
 329 -98 301 -86 272 -80 c 1
 285 -51 l 1
EndSplineSet
EndChar

StartChar: uni021A
Encoding: 538 538 186
Width: 600
Flags: MW
HStem: -209 30<227 233> 0 21G<277 277 277 323> 619 40<48 277 48 552 323 323 323 552>
VStem: 277 46<0 619 0 619> 319 40<-142.5 -113.5>
LayerCount: 2
Fore
SplineSet
277 0 m 1x70
 277 619 l 1
 48 619 l 1
 48 659 l 1
 552 659 l 1
 552 619 l 1
 323 619 l 1
 323 0 l 1
 277 0 l 1x70
275 -51 m 1xe8
 330 -62 359 -83 359 -124 c 0
 359 -176 298 -201 233 -209 c 1
 227 -179 l 1
 282 -171 319 -156 319 -129 c 0
 319 -98 291 -86 263 -80 c 1
 275 -51 l 1xe8
EndSplineSet
EndChar

StartChar: uni021B
Encoding: 539 539 366
Width: 600
Flags: MW
HStem: -12 39<349 419> 442 38<80 226 269 525>
VStem: 225 44<180 442> 404 39<-142.5 -113.5>
LayerCount: 2
Fore
SplineSet
225 180 m 2
 225 442 l 1
 80 442 l 1
 80 476 l 1
 226 480 l 1
 232 619 l 1
 269 619 l 1
 269 480 l 1
 525 480 l 1
 525 442 l 1
 269 442 l 1
 269 176 l 2
 269 83 296 27 402 27 c 0
 453 27 493 36 531 52 c 1
 543 18 l 1
 500 0 442 -12 396 -12 c 0
 265 -12 225 65 225 180 c 2
360 -51 m 1
 415 -62 443 -83 443 -124 c 0
 443 -176 382 -201 318 -209 c 1
 312 -179 l 1
 367 -171 404 -156 404 -129 c 0
 404 -98 376 -86 348 -80 c 1
 360 -51 l 1
EndSplineSet
EndChar

StartChar: uni0237
Encoding: 567 567 411
Width: 600
GlyphClass: 2
Flags: MW
HStem: -229 38<176.5 253 176.5 265.5> 442 38<97 382 97 338>
VStem: 338 44<-43 -37 -37 442 442 442>
AnchorPoint: "Anchor-0" 349 502 basechar 0
LayerCount: 2
Fore
SplineSet
97 442 m 1
 97 480 l 1
 382 480 l 1
 382 -37 l 2
 382 -155 337 -229 194 -229 c 0
 149 -229 99 -215 63 -197 c 1
 81 -162 l 1
 113 -178 156 -191 197 -191 c 0
 309 -191 338 -131 338 -43 c 2
 338 442 l 1
 97 442 l 1
EndSplineSet
EndChar

StartChar: uni0243
Encoding: 579 579 77
Width: 600
Flags: MW
HStem: 0 37<162 293 293 305> 178 33<38 116 162 326> 335 35<162 273 273 293 162 273> 622 37<162 162 162 279>
VStem: 116 46<37 37 37 178 211 335 370 622> 463 46<465 543.5> 504 45<139.5 239 129 241>
LayerCount: 2
Fore
SplineSet
162 37 m 1xfa
 293 37 l 2
 423 37 504 86 504 193 c 0
 504 289 427 335 293 335 c 2
 162 335 l 1
 162 211 l 1
 326 211 l 1
 326 178 l 1
 162 178 l 1
 162 37 l 1xfa
162 622 m 1
 162 370 l 1
 273 370 l 2
 408 370 463 414 463 501 c 0xfc
 463 586 400 622 279 622 c 2
 162 622 l 1
392 357 m 1xfa
 392 353 l 1
 489 339 549 285 549 193 c 0xfa
 549 65 454 0 305 0 c 2
 116 0 l 1
 116 178 l 1
 38 178 l 1
 38 207 l 1
 116 211 l 1
 116 659 l 1
 292 659 l 2
 424 659 509 609 509 499 c 0xfc
 509 431 469 377 392 357 c 1xfa
EndSplineSet
EndChar

StartChar: uni0250
Encoding: 592 592 412
Width: 600
GlyphClass: 2
Flags: MW
HStem: -12 39<239 330.5 239 332> 454 38<316.5 377.5> 460 20G<107 145 145 145>
VStem: 107 44<213 367 213 480> 474 46<319.5 392.5>
AnchorPoint: "Anchor-2" 324 -22 basechar 0
AnchorPoint: "Anchor-0" 312 502 basechar 0
LayerCount: 2
Fore
SplineSet
520 361 m 0xd8
 520 253 412 202 151 180 c 1
 152 100 184 27 294 27 c 0
 367 27 437 64 476 92 c 1
 496 59 l 1
 458 32 375 -12 289 -12 c 0
 160 -12 107 71 107 173 c 2
 107 480 l 1
 145 480 l 1xb8
 149 408 l 1
 152 408 l 1
 207 453 281 492 352 492 c 0
 438 492 520 451 520 361 c 0xd8
474 358 m 0
 474 427 410 454 345 454 c 0
 283 454 219 424 151 367 c 1
 151 213 l 1
 396 235 474 281 474 358 c 0
EndSplineSet
EndChar

StartChar: uni0251
Encoding: 593 593 413
Width: 600
GlyphClass: 2
Flags: MW
HStem: -12 39<231.5 312.5> 0 21G<457 495 457 457> 453 39<245.5 321> 460 20G<458 495 495 495>
VStem: 67 47<175.5 299.5 175.5 316.5> 450 45<71 71 115 382 382 382>
AnchorPoint: "Anchor-2" 304 -22 basechar 0
AnchorPoint: "Anchor-0" 303 502 basechar 0
LayerCount: 2
Fore
SplineSet
114 239 m 0xac
 114 112 178 27 285 27 c 0
 341 27 397 59 450 115 c 1
 450 382 l 1
 396 433 346 453 296 453 c 0
 195 453 114 360 114 239 c 0xac
67 239 m 0
 67 394 174 492 294 492 c 0
 354 492 403 467 451 425 c 1
 453 425 l 1xac
 458 480 l 1
 495 480 l 1
 495 0 l 1
 457 0 l 1x5c
 452 71 l 1
 450 71 l 1
 408 27 346 -12 279 -12 c 0
 153 -12 67 77 67 239 c 0
EndSplineSet
EndChar

StartChar: uni0252
Encoding: 594 594 414
Width: 600
GlyphClass: 2
Flags: MW
HStem: -12 39<287 359 287 369.5> 0 21G<105 142 105 105> 453 39<295 380.5> 460 20G<105 143 143 143>
VStem: 105 45<98 365 98 409 98 480> 486 47<181.5 305.5>
AnchorPoint: "Anchor-2" 310 -22 basechar 0
AnchorPoint: "Anchor-0" 314 502 basechar 0
LayerCount: 2
Fore
SplineSet
486 246 m 0xac
 486 365 439 453 322 453 c 0
 266 453 203 422 150 365 c 1
 150 98 l 1
 207 46 267 27 307 27 c 0
 411 27 486 117 486 246 c 0xac
533 247 m 0
 533 84 429 -12 310 -12 c 0
 260 -12 198 14 149 54 c 1
 147 54 l 1xac
 142 0 l 1
 105 0 l 1
 105 480 l 1
 143 480 l 1x5c
 148 409 l 1
 150 409 l 1
 192 453 261 492 329 492 c 0
 465 492 533 396 533 247 c 0
EndSplineSet
EndChar

StartChar: uni0254
Encoding: 596 596 415
Width: 600
GlyphClass: 2
Flags: MW
HStem: -12 39<223.5 319.5 223.5 331> 453 39<230 324>
VStem: 466 47<176 302.5>
AnchorPoint: "Anchor-2" 322 -22 basechar 0
AnchorPoint: "Anchor-0" 281 502 basechar 0
LayerCount: 2
Fore
SplineSet
513 239 m 0
 513 80 403 -12 259 -12 c 0
 182 -12 115 19 66 65 c 1
 89 96 l 1
 132 56 190 27 257 27 c 0
 382 27 466 113 466 239 c 0
 466 366 384 453 264 453 c 0
 196 453 144 427 103 389 c 1
 78 419 l 1
 117 457 175 492 265 492 c 0
 401 492 513 400 513 239 c 0
EndSplineSet
EndChar

StartChar: uni0258
Encoding: 600 600 416
Width: 600
GlyphClass: 2
Flags: MW
HStem: -12 38<234 328.5 234 339> 234 36<111 477 111 477> 454 38<245 344.5>
VStem: 68 43<270 330.5 270 339> 477 46<234 234 270 270>
AnchorPoint: "Anchor-4" 397 0 basechar 0
AnchorPoint: "Anchor-2" 307 -22 basechar 0
AnchorPoint: "Anchor-0" 287 502 basechar 0
LayerCount: 2
Fore
SplineSet
523 239 m 0
 523 82 408 -12 270 -12 c 0
 186 -12 132 16 88 44 c 1
 106 78 l 1
 151 47 202 26 266 26 c 0
 391 26 475 112 477 234 c 1
 70 234 l 1
 68 246 68 258 68 270 c 0
 68 408 170 492 293 492 c 0
 424 492 523 396 523 239 c 0
111 270 m 1
 477 270 l 1
 463 384 397 454 292 454 c 0
 198 454 111 391 111 270 c 1
EndSplineSet
EndChar

StartChar: uni0259
Encoding: 601 601 417
Width: 600
GlyphClass: 2
Flags: MW
HStem: -12 38<245.5 354 245.5 367> 221 36<120 120 120 486> 454 38<253.5 351.5>
VStem: 77 43<154 221 154 225> 486 46<221 221 257 257>
AnchorPoint: "Anchor-4" 286 0 basechar 0
AnchorPoint: "Anchor-2" 286 -22 basechar 0
AnchorPoint: "Anchor-0" 298 502 basechar 0
LayerCount: 2
Fore
SplineSet
77 219 m 0
 77 231 77 245 79 257 c 1
 486 257 l 1
 484 369 418 454 285 454 c 0
 222 454 170 435 125 408 c 1
 107 442 l 1
 151 469 209 492 289 492 c 0
 437 492 532 401 532 241 c 0
 532 84 439 -12 295 -12 c 0
 171 -12 77 69 77 219 c 0
120 221 m 1
 120 87 196 26 295 26 c 0
 413 26 478 100 486 221 c 1
 120 221 l 1
EndSplineSet
Substitution2: "'sups' Superscript in Latin lookup 12 subtable" uni0259.sups
Substitution2: "'aalt' Access All Alternates in Latin lookup 0 subtable" uni0259.sups
EndChar

StartChar: uni0261
Encoding: 609 609 418
Width: 600
GlyphClass: 2
Flags: MW
HStem: -229 37<259 338 259 350.5> 0 39<231.5 312.5> 453 39<245.5 321> 460 20G<458 495 495 495>
VStem: 67 46<184 304.5 184 322> 450 45<127 382 382 382>
AnchorPoint: "Anchor-2" 461 -218 basechar 0
AnchorPoint: "Anchor-0" 305 502 basechar 0
LayerCount: 2
Fore
SplineSet
124 -142 m 1xec
 175 -177 232 -192 286 -192 c 0
 390 -192 450 -132 451 -35 c 1
 451 83 l 1
 410 39 346 0 279 0 c 0
 153 0 67 88 67 246 c 0
 67 398 173 492 294 492 c 0
 354 492 406 465 451 425 c 1
 453 425 l 1xec
 458 480 l 1
 495 480 l 1xdc
 495 -40 l 2
 495 -155 415 -229 286 -229 c 0
 218 -229 154 -210 104 -177 c 1
 124 -142 l 1xec
285 39 m 0
 341 39 397 70 450 127 c 1
 450 382 l 1
 396 433 346 453 296 453 c 0
 195 453 113 363 113 246 c 0
 113 122 178 39 285 39 c 0
EndSplineSet
EndChar

StartChar: uni0265
Encoding: 613 613 419
Width: 600
GlyphClass: 2
Flags: MW
HStem: -217 21G<450 495 450 450> -12 40<218.5 297.5> 460 20G<86 131 131 131 450 495 495 495>
VStem: 86 45<181 187 187 480> 450 45<-217 -30 -30 -30 136 480 -217 480>
AnchorPoint: "Anchor-2" 299 -22 basechar 0
AnchorPoint: "Anchor-0" 292 502 basechar 0
LayerCount: 2
Fore
SplineSet
495 480 m 1
 495 -217 l 1
 450 -217 l 1
 450 -30 l 1
 453 95 l 1
 393 33 336 -12 259 -12 c 0
 142 -12 86 51 86 181 c 2
 86 480 l 1
 131 480 l 1
 131 187 l 2
 131 80 171 28 266 28 c 0
 334 28 381 63 450 136 c 1
 450 480 l 1
 495 480 l 1
EndSplineSet
EndChar

StartChar: uni026F
Encoding: 623 623 420
Width: 600
GlyphClass: 2
Flags: MW
HStem: -12 40<144 185.5 357 399> 0 21G<490 526 490 490> 460 20G<55 98 98 98 270 310 310 310 483 526 526 526>
VStem: 55 43<132 137 137 480> 270 40<118 137 137 480> 483 43<65 65 118 480 0 480>
AnchorPoint: "Anchor-2" 293 -22 basechar 0
AnchorPoint: "Anchor-0" 291 501 basechar 0
LayerCount: 2
Fore
SplineSet
526 480 m 1xbc
 526 0 l 1
 490 0 l 1x7c
 485 65 l 1
 483 65 l 1
 455 18 426 -12 372 -12 c 0
 319 -12 289 16 276 73 c 1
 242 19 212 -12 159 -12 c 0
 92 -12 55 36 55 132 c 2
 55 480 l 1
 98 480 l 1
 98 137 l 2
 98 65 121 28 167 28 c 0
 211 28 239 58 270 118 c 1
 270 480 l 1
 310 480 l 1
 310 137 l 2
 310 65 334 28 380 28 c 0
 423 28 451 58 483 118 c 1
 483 480 l 1
 526 480 l 1xbc
EndSplineSet
EndChar

StartChar: uni0279
Encoding: 633 633 421
Width: 600
GlyphClass: 2
Flags: MW
HStem: -12 21G<150 214> -12 42<154 213 154 214> 0 21G<399 437 399 399> 460 20G<392 437 437 437>
VStem: 392 45<119 119 180 480 0 480>
AnchorPoint: "Anchor-2" 105 -22 basechar 0
AnchorPoint: "Anchor-0" 402 502 basechar 0
LayerCount: 2
Fore
SplineSet
437 480 m 1x58
 437 0 l 1
 399 0 l 1x38
 394 119 l 1
 392 119 l 1
 340 42 262 -12 166 -12 c 0x58
 134 -12 100 -8 70 8 c 1x98
 82 48 l 1
 117 35 135 30 173 30 c 0
 253 30 326 71 392 180 c 1
 392 480 l 1
 437 480 l 1x58
EndSplineSet
EndChar
